<svg width="500" height="500" viewBox="0 0 500 500" xmlns="http://www.w3.org/2000/svg"><title>arizona-diamondbacks</title><g fill-rule="nonzero" fill="none"><path d="M445.895 404.8123h-4.0402v11.0467h-2.7556v-11.0467h-4.0598v-2.3928h10.8555v2.3928zm18.367 11.0467h-2.7457v-10.6888h-.0539l-3.898 10.6888h-2.633l-3.7754-10.6888h-.0784v10.6888h-2.7458v-13.4345h4.7708l3.1232 8.7619h.0785l3.2557-8.762h4.702v13.4346zm-287.7747-49.3157l51.272-86.099c1.3386 5.2904 4.0305 15.8224 4.4374 17.4404-2.633 4.5354-42.2846 73.1303-42.2846 73.1303s58.4993-48.34 61.1862-50.5513c.9855 1.1718 43.3486 52.5665 43.3486 52.5665s-19.9214-66.5307-21.2698-71.066c1.0199-1.6181 7.6685-12.2383 11.8754-18.99l18.1367 83.731-36.239 49.8403H422.708L348.2637 83.5736l-103.6032.0637L34.262 416.5455h166.03l-23.8048-50.0022zm53.1108-89.1733l32.6793-54.866h9.674l11.8851 54.866h-54.2384z" fill="#E3D4AD"/><path fill="#000" d="M260.1642 96.6748h77.146l68.3251 306.745H294.6381l24.8-33.557-35.6016-159.2245-29.4286-.0245-94.959 156.2188 17.715 36.4499H67.1866l-10.7918 6.6879h132.625l-20.9855-43.2702 90.0608-150.1977h19.6174l34.0082 151.698-30.5515 41.7895h133.076L343.0517 89.9477l-87.3395-.0687z"/><path fill="#000" d="M145.4161 347.421l11.4979-7.2615-20.451-48.6685 65.148-40.8137-22.3878-40.1517 63.0151-30.4093-20.343-35.832 48.5164-21.5592-17.7199-26.0503-4.1137-6.0162-202.3279 319.199z"/><path d="M239.4485 298.885l-24.8442 42.9367s32.7578-27.0702 37.406-30.8995l26.3494 31.939-12.5422-41.8973 10.527-16.803h-40.647c0 .0048 3.0547 12.042 3.751 14.724z" fill="#A71930"/><path fill="#A71930" d="M159.449 366.8326l94.959-156.2188 29.4285.0245 35.6017 159.2244-24.8 33.557h110.9971l-68.3252-306.745h-77.1459l19.0144 29.1933-47.9282 21.5591 20.6373 35.7439-62.971 30.1444 21.0737 39.0682-65.1724 41.0785 20.0734 49.2422-97.7048 60.5782H177.164z"/></g></svg>