<svg width="500" height="500" viewBox="0 0 500 500" xmlns="http://www.w3.org/2000/svg"><title>atlanta-braves</title><g fill-rule="nonzero" fill="none"><path d="M461.5892 297.3045c.0192-.2972.0431-.5333.0431-.8664 0-1.1539-.0803-2.5882-.4517-4.2142-.9658-4.5102-3.3887-7.8066-5.1489-10.1971l-1.3948-2.0322-.6266-1.5374c-.2397-.671-.5333-1.4642-.9107-2.3186 3.8056-3.1478 5.3538-6.63 5.9673-8.9869 1.294-5.0542-.1294-10.2833-3.8524-13.9895-3.6942-3.6547-9.1714-5.3406-15.3496-4.8949-.1857-8.0186-3.8943-12.566-5.972-14.9206-.0192-.3978-.0192-.8184-.0192-.8184-.036-4.6851-.0923-13.3724-7.0637-20.3606-1.5062-1.5242-1.6847-1.97-2.2934-3.4953 0 0-.7118-1.6835-.9227-2.1425-.3786-.9418-1.402-3.1226-4.721-5.6006l-7.8762-5.8738-5.3597 8.3518c-2.9681 4.5737-3.3396 9.0228-3.5876 11.9585 0 0-.1246 1.1647-.1737 1.6596-.2469.2636-.6567.671-.6567.671l-2.5343 2.7644-.2792.3714c-3.6067 4.497-4.213 8.3159-4.213 17.4849l-.048.8651c-.2516.3116-.5727.719-.5727.719-3.0292 3.9158-3.1394 8.613-3.2233 12.058 0 0-.1342 2.7883-.1414 2.8374-8.7712 1.2785-182.2081 26.274-186.1 26.8324-11.1198 1.4858-16.265 10.311-15.4455 17.806 1.414 12.9746 10.5638 16.8413 18.6628 16.1356 5.1237-.4218 131.1363-19.2343 175.891-25.9253-.3536 1.7854-.6208 3.6546-.6208 5.651 0 2.454.4218 5.0685 1.3325 7.7574-.7022 1.6248-1.2774 3.421-1.5254 5.4784a27.6266 27.6266 0 0 0-.2109 3.3958c0 7.211 3.0615 11.2036 5.8355 13.333 4.4012 3.3946 10.299 3.6546 17.3866 1.1526 7.3692 1.3756 15.4742.6063 22.7859-2.1808 6.8588 1.3013 13.8601-2.7512 17.317-4.8445 0 0 .0864-.0635.1055-.0635h.3236l4.8073-.1246.7933-.1606c3.1538-.6075 9.0467-1.7135 11.7105-7.6724.7812-1.735 1.0592-3.469 1.0592-5.0806 0-4.116-1.9268-7.5729-2.726-8.9868v.0048z" fill="#FFF"/><path d="M458.064 299.387l-.3044-.5332s-.1294-.1857-.29-.308c.006-.0742.006-.1977.006-.1977.042-.5092.1042-1.1647.1042-1.9088 0-.9298-.0814-2.0322-.3594-3.3215-.7753-3.5948-2.7955-6.3328-4.4312-8.5627l-1.6799-2.466-.9047-2.1449c-.508-1.402-1.1455-3.161-2.521-5.1189 5.1224-2.8997 6.8707-6.4945 7.459-8.7592.9227-3.5708-.0994-7.2638-2.7512-9.8771-3.2664-3.2473-8.4908-4.4491-14.4449-3.4582-.266-.3834-.5272-.7453-.7872-1.1024 0 0-1.0724-1.5877-1.318-1.9723.0239-.26.0419-.5692.0419-.8304 0-7.0253-3.2353-10.6932-5.21-12.9231 0 0-.5632-.671-.7621-.9298-.0204-.5464-.1079-2.405-.1079-2.405-.024-4.3616-.0838-11.6253-5.8235-17.3865-2.1125-2.1329-2.5342-3.1754-3.216-4.908l-.9347-2.2312c-.23-.4709-.7753-1.6596-3.173-3.5947l-4.4982-3.6427-3.155 4.908c-2.3893 3.6822-2.6876 7.35-2.9045 10.027l-.3403 2.6517c-.1798.7549-.5632 1.1899-1.7543 2.3306l-2.1568 2.3665-.3211.4074c-2.5403 3.1874-3.2772 5.5168-3.2772 14.8224 0 2.0202-.2037 2.5403-.2037 2.5762-.0264.0144-.5536.695-.5536.695l-.743.9286c-2.1928 2.8003-2.2682 6.3939-2.3485 9.5429l-.1917 3.3946c-.2181 1.5242-.5153 2.478-.8184 3.1107-3.9722.5811-187.0623 26.9774-188.7782 27.2122-9.58 1.3025-12.3983 8.7736-11.9154 13.2095 1.3205 12.2066 10.4296 12.7374 14.2832 12.4175 5.2423-.4578 146.6656-21.5625 181.8259-26.8288-1.0341 3.0867-2.1809 6.691-2.1809 10.7063 0 2.5787.4721 5.2807 1.7615 8.0918-.955 1.7974-1.7111 3.5828-1.9652 5.6761-.1102 1.0305-.1797 1.958-.1797 2.8375 0 5.5155 2.1952 8.4764 4.2083 10.0137 4.8588 3.7553 11.4253 1.6728 14.9062.236 7.1092 1.4979 14.996.5812 22.1029-2.2934 5.7695 2.121 12.493-1.9447 16.0002-4.0896l.7932-.4577c.3787-.236.683-.248 2.0203-.1486l3.7121-.0863.8316-.1725c2.943-.5332 6.9702-1.2893 8.7425-5.2675.5032-1.1264.713-2.2408.713-3.3336-.0025-2.6145-1.1744-5.0805-2.2085-6.9019h.0012z" fill="#CE1141"/><path d="M385.8599 208.3153c-1.3625-3.3958-5.2604-13.2095.762-21.5745 2.3103-2.8003 1.2342-5.8234.8484-6.667-.3834-.8424-1.9771-3.6307-5.9433-3.5552h-.2217l-.2336.012c-12.2497 1.2138-19.0474 15.5413-26.2153 30.7087-.743 1.5481-1.6297 3.2233-2.4852 4.8445-.3283-.0623-.6638-.1857-.9922-.2229-1.1886-.1222-2.3042.0144-3.427.1259-.0419-.1978-.0287-.3715-.091-.5824-.2492-.719-.8316-1.2905-1.3337-1.8729.9862-.248 2.212-.5703 2.212-.5703 3.3767-.8903 4.5977-4.3497 4.9751-5.8355.242-.9921.3715-1.9831.3715-2.9633 0-2.2407-.6447-4.4359-1.8896-6.3195-1.9831-3.0112-5.2544-5.0183-9.0109-5.5144-7.1739-.9526-14.9685 5.0686-18.1654 13.2982-2.5835 2.9477-5.5216 5.0326-8.395 6.4442-.7309-5.8619-4.3616-10.0869-9.7214-11.0419-5.8139-1.028-11.7668 2.1688-14.1776 7.597-.0995.2108-.1366.4337-.2301.683-1.1647-2.0084-2.7512-3.6811-4.853-4.5115-15.4214-6.1854-27.1618 12.4666-37.517 28.8982-4.1316 6.5664-8.0427 12.7757-11.7789 16.9911-.3031.3715-.4649.4194-.7117.6675.0862-1.0785.3523-2.393 1.1095-4.0417.0803-.1858 14.1454-33.5582 14.1454-33.5582l-19.4308 1.946s-.236.5584-.3715.9538c-1.7734-.8795-3.6942-1.6356-5.9433-1.9196-17.3423-2.2072-28.0175 13.1975-32.2449 28.365-.2588.8052-1.759 3.8176-3.1586 6.3075-5.6317 10.0246-10.4523 12.8009-12.348 12.9866-.1437-.5452-.2839-1.0784-.2839-1.9327 0-5.3179 2.6146-16.1237 5.512-23.3.448-1.239.6266-2.3414.6266-3.2952 0-2.5283-1.2701-4.0644-1.9615-4.709-1.5002-1.39-4.134-2.3055-7.0888-.8053-3.3096 1.9711-6.594 3.1466-9.6783 3.8536.0431-.4722.1725-1.0186.1725-1.4883 0-1.3372-.1725-2.5642-.5571-3.6187-1.8537-4.968-5.5527-8.2403-10.1564-8.9833-4.6228-.7309-9.362 1.2522-12.3863 5.1561-1.9819 2.5882-2.998 5.651-2.998 8.873 0 2.0335.4074 4.1268 1.2018 6.2094.7621 1.9579 2.1125 3.8044 3.699 5.5263-1.765 3.6546-3.7912 7.585-5.8115 11.1161-5.9133 10.432-11.3534 17.8923-18.7945 25.7492-.3092.3235-.5272.6447-.7621.967.1917-.5584.4026-1.1024.5955-1.6488 1.5697-4.7091 2.3126-9.4542 2.3126-14.1393 0-9.7777-3.47-19.1205-9.7896-26.7809 9.7321-7.7047 15.649-18.858 15.649-30.5434 0-2.3293-.2731-4.6228-.7189-6.9654 1.42-.4337 2.8399-.9166 4.3736-1.3875 5.4161-1.39 4.9704-6.2597 4.908-6.7941-.0802-.556-.8423-5.3526-6.6119-5.2783-2.8518.048-5.6126.2349-8.3338.4949-5.7252-7.7431-15.6144-13.7919-30.6524-13.7535-16.1105.3714-25.7204 8.9221-30.9627 16.0601-7.1812 9.7418-9.4063 20.9933-7.8989 27.0768l.7944 3.197 3.2772 1.1778c1.9951.647 4.1268.1498 5.7061-1.312 4.7714-3.8536 7.6568-4.9069 8.3518-4.9824l.707-.0479c-8.1601 11.0155-13.1053 24.7462-17.8815 38.0804-4.9895 13.9655-9.7034 27.151-17.2835 34.1884l-2.3534 2.2192.5704 3.2232c.6314 3.6307 1.1024 11.4002.7692 19.22-.0479 2.726 1.1767 4.9307 3.2401 6.0463 2.0634 1.1156 4.4982.8915 6.4825-.5943 12.7937-9.5668 21.4367-35.739 29.0576-58.8268 3.167-9.5537 6.1973-18.676 8.9916-24.9596-.3523 1.6752-.3714 3.4102.0192 5.1573 1.7902 6.8156 7.477 10.372 14.1945 9.0348 0 0 .6314-.2876 1.3696-.6327 2.061 3.1598 3.1753 7.7203 3.1753 12.7398 0 3.9039-.671 8.0798-2.0454 11.9945-1.7902 5.0805-7.422 16.8797-21.1407 16.5718-2.968-.0887-6.0548-1.39-6.655-1.7135-3.5014-2.0562-6.6863-.556-8.1182 1.7374-1.4799 2.3654-1.3492 5.972 1.7494 8.3398-.3175-.2852.1798.1726.1798.1726 2.9836 2.678 9.9994 9.0108 23.9098 8.4644 11.623-.496 22.5103-8.7113 28.4405-21.0053-.0144.1498-.0576.3235-.0576.4829 0 1.8094.8628 3.1478 1.2822 3.669 1.5313 2.019 4.7474 3.4678 8.7616.9778 2.2407-1.3995 5.253-3.3946 8.5135-6.3687 5.5144-5.0806 10.9472-12.0424 17.0942-21.9579.2912-.471 3.427-5.5515 6.4802-11.9346.6626.0144 1.3624-.024 2.0574-.0599-1.5338 4.497-3.1394 9.9371-3.1394 15.1052 0 5.7635 2.013 11.0802 8.3877 13.9548 7.1571 3.2472 18.8065.5452 29.8364-11.302 2.5954 3.433 6.177 5.6762 10.6692 6.1112 4.4491.1473 9.1954-2.0347 12.795-4.587 2.6516 1.9089 6.2907 3.7422 11.134 3.2233 7.1009-.7549 14.1633-6.2476 21.5925-16.8413l4.3688-6.679c4.3736-6.878 10.9184-17.0895 16.0302-22.4433-.3715.9922-.7993 2.109-1.6416 3.5073-4.2946 7.2494-8.359 14.7349-8.359 21.1922 0 1.5218.2229 2.9717.725 4.3473 1.1347 3.173 3.6186 5.5395 6.9653 6.655 13.7044 4.5486 28.2044-7.211 39.2834-31.4025 1.3996-.3834 2.768-.8663 4.122-1.4379-1.5745 3.421-2.5978 6.6431-2.5978 9.4662 0 4.7594 1.9532 8.6154 4.6276 11.1916 6.8349 6.6192 18.8365 6.2477 27.7587-.2216 3.8296 2.1808 8.3158 3.5192 13.0932 3.5684 10.317.1737 19.414-4.5462 24.9476-12.9244 5.4592-8.2703 6.443-18.9395 2.6266-28.5183l-.0024-.0012zM76.376 205.9224c-.0695-1.3133-.2516-8.2032 3.8404-12.5037 2.6398-2.7512 6.7533-4.0141 12.2258-3.7805 1.3.0743 3.3395.483 5.5119 1.402-8.2631 3.7265-15.4634 8.9832-21.5421 15.5892l-.036-.707zm10.1228 18.9983c.0743-.0995.1486-.235.2037-.3356l1.1288-1.5733c3.5995-4.993 7.8198-10.8321 20.0587-17.1265-.0456 3.0986-.8268 9.84-6.117 16.3956l-.0684.0743c-.1917.2468-.4385.4553-.6746.6554-4.739-2.3413-9.7346-2.0813-13.4827.9179-.3715.3091-.719.6447-1.0485.991v.0012zm284.3301-8.5508c-.453 9.6292-6.1158 12.8513-11.333 13.8913 3.5444-5.416 6.5748-11.0778 9.2624-16.1092.5453-.991 1.0976-2.0334 1.65-3.0244.211 1.1503.4817 2.2527.4817 3.6187 0 .52-.0323 1.0545-.0623 1.6224l.0012.0012zm-35.6407 18.1176c-1.2821.447-2.4971.6446-3.1226.0994-.4038-.3595-.5872-.9166-.5872-1.6596 0-.9801.3715-2.267 1.1084-3.669.52-1.04 1.3013-2.031 2.212-2.986-.1438.9047-.5584 1.7854-.5584 2.6505 0 1.8968.3595 3.7433.9466 5.5647h.0012zm7.918-27.2242s.3475.3714.5392.5691c-1.2222-.3235-2.4971-.5584-4.1147 0l.1006-.012c-.048 0-.1366-.0395-.23-.0635 0-.0743-.03-.1366-.03-.2109 0-1.288.7118-2.6145 1.5733-3.3191.3032-.26.5009-.3715.743-.5093.1725 1.7339.949 3.0112 1.4186 3.5445v.0012zm-51.5343 15.7485c.447-.9538.5956-1.6847.9107-2.5762.1438.3211.2037.6674.3595.9658.6878 1.2641 1.7734 2.1209 2.756 3.0483-4.2922 7.7958-8.4117 12.838-10.952 14.4629.8747-3.2113 3.3383-8.3782 4.8685-11.5631l2.0573-4.3377zm-77.5434 27.9827c-.2157.1247-.4278.211-1.0233-.0479-.3032-.1366-1.1695-2.3306-.2397-7.0277 1.7974-8.9354 7.5945-16.1848 10.4212-16.1848.3595 0 .4146.0863.4517.1354.2037.2996.3907.9682.3907 2.0586 0 1.5122-.3835 3.8296-1.6225 7.0769-4.4335 11.563-7.5298 13.6445-8.3781 13.9907v-.0012z" fill="#FFF"/><path d="M380.5732 210.5453c-1.3804-3.469-6.6167-16.0734 1.4499-27.3117.472-.5584.435-.8556-.4134-.8184-8.9174.8423-14.6858 12.7134-21.644 27.4243-1.4559 3.0615-3.1538 6.2956-4.9631 9.5177-2.472-2.0934-10.577-3.729-13.9596 4.3856-1.9652 4.6995-1.1096 9.1845 1.5181 12.7422-.695.683-1.3935 1.3636-2.0813 1.9088-8.2356 6.6562-19.0282-.272-12.9255-11.9586 2.9872-5.712 10.3528-10.197 13.1855-11.3114 1.3696-.5728 2.8434-2.4684.6063-1.6991-2.696.9538-6.5424-.5584-7.3357-3.3587-1.1443-4.0525.671-8.1913 3.348-10.4224 6.7724-5.663 10.7195-.1857 10.0053 3.0495-.3786 1.2007.477.308.8184-1.0664.9778-3.8548-1.977-6.9654-5.7132-7.4615-4.9764-.6315-11.0922 4.6468-12.8333 11.0778-5.7683 6.7426-13.7439 10.4607-20.0706 11.103 1.0113-3.0352 1.6296-5.7133 1.5074-7.138-.7262-8.5747-10.583-7.942-13.1568-2.1305-2.514 5.6246-1.7207 14.0878 5.3861 15.1303-5.3346 11.0658-14.3694 24.9571-21.1922 23.409-8.1158-1.8453-.5009-14.7468 4.3197-25.156 3.8176-8.256 2.224-12.965-.8484-14.1777-15.9547-6.3939-29.7046 29.3331-43.0207 44.376-8.4992 9.592-13.66.2228-8.9701-9.876l10.1923-24.2023-6.3148.6315-2.0442 5.2651c-.8232-2.1209-4.0764-5.2795-8.9713-5.8978-13.811-1.7734-22.5355 11.4625-26.0739 24.152-.4769 1.735-2.962 6.2955-3.699 7.6208-7.2374 12.8872-15.0931 17.9186-20.3846 15.3424-6.866-3.3096.5153-26.5077 3.0603-32.8153.4578-1.251.2037-1.6727-.6147-1.251-5.9744 3.5828-13.5701 5.6762-19.5734 5.3778 1.5242-4.2262 2.3366-7.918 1.6225-9.8136-3.9183-10.571-17.9198-3.9399-13.6888 6.9642.9047 2.3797 2.8003 4.6228 5.476 6.2093-2.3606 5.1309-5.3766 11.0419-7.9732 15.6132-6.8156 12.0208-12.7086 19.5554-19.6357 26.8923-1.7087 1.8213-.2157 1.2402.5824.7429 2.4-1.4858 4.9332-3.2329 7.6544-5.724 5.21-4.8086 10.4463-11.635 16.0805-20.7441 2.1724-3.4833 5.3142-9.3464 7.8126-15.02 2.279.4948 4.8696.6434 7.7766.1233 1.6212-.284 4.6828-1.6487 5.9158-2.231.3283-.1355.4277.2995.4277.2995-.6147 5.8834-12.5408 26.4933-1.0353 31.6972 6.4263 2.9118 18.5513-1.3995 29.1534-16.9648.755 6.171 3.7865 10.7304 9.586 11.2875 4.3053.1366 10.384-3.7792 12.2246-6.3063 3.463 3.1597 12.0963 13.358 28.1372-9.4662 3.8608-5.4904 13.762-22.5678 21.3888-30.324 8.0127-8.1302 14.0974-.918 6.866 11.2275-5.2484 8.8479-11.7668 20.8555-3.7865 23.5073 13.1616 4.3736 25.9061-13.1233 33.5593-30.8454 8.6418-1.3384 19.0462-9.3068 21.8777-12.2065.2109 2.019 1.3264 4.793 3.191 5.712-3.6607 2.738-7.5335 5.7-9.7023 8.5375-13.2347 18.7886 7.839 27.4495 20.6638 16.4316.5716-.4709 1.1024-1.0149 1.6416-1.5241 3.3587 2.8758 8.1301 4.721 13.4024 4.7846 17.7844.2935 28.6777-17.0307 22.1892-33.327l-.0012.006zm-230.3754 20.3342c-4.1135-6.7653 6.7486-10.94 6.5245-3.355-.03.9777-.9047 3.4317-2.261 6.6023-1.8454-.6794-3.3468-1.7207-4.2635-3.2473zm77.5196 8.292c-4.8386 12.6175-10.2211 20.1748-16.9648 17.1768-10.3973-4.6468.8124-34.5012 12.4354-34.5012 5.0806 0 9.133 5.2915 4.5294 17.3267v-.0024zm77.843-32.4798c2.6326 1.0161 2.6326 3.8536.3163 9.7022-1.004-.1102-1.9531-.3091-2.7511-.6315-4.4671-1.8453-1.7914-10.6824 2.4348-9.0707zm37.933 18.0935c2.9357-6.0355 7.2853-2.938 8.5866-.5583-2.0945 3.2975-4.2705 6.3842-6.5065 9.0467-2.5882-2.2167-3.6618-5.253-2.0813-8.4872l.0012-.0012zm33.0237-7.9803c-.6866 15.0692-11.8267 18.8964-17.7197 19.6669-3.7673.4829-7.3117-.0623-10.1132-1.2893 11.3594-13.309 18.374-33.0873 23.9686-37.8587-.3667 3.7385 4.6228 9.3799 3.8655 19.48l-.0012.0011zm-255.3768-22.9512c3.0196-1.0545 6.2153-2.1689 9.785-3.2713.8171-.1989 1.4438-.5212 0-.5212-3.3037.0623-7.1081.2996-11.1797.8436-4.5702-8.2164-13.8039-14.1394-27.8617-14.0914-26.5317.5703-35.3747 27.6472-33.3593 35.7653.036.1486.2397.3595.4554.1486 4.9523-4.0261 9.103-6.2333 11.6997-6.4442-.4027-7.1631 2.0765-23.4342 22.0154-22.5151 4.4874.1965 12.1323 2.6745 16.8665 9.2553-11.0538 3.0986-22.889 9.2696-32.3623 21.4642-17.057 21.934-20.1785 58.888-36.6928 74.2675.767 4.4335 1.1959 12.7733.8556 20.508-.0192.8424.4338.6075.683.4218 18.6172-13.9548 29.429-74.0818 40.1174-88.668 4.7954-6.5425 9.6339-14.796 29.822-23.5337.695 1.747 1.2402 3.669 1.5182 5.838.4913 3.99-.2157 13.8912-7.3489 22.7271-1.6296 2.0945-4.443 3.8548-5.2723 3.6942-1.04-.8555-.9107-.5692-2.0694-1.3756-6.183-3.3072-10.8609 1.5613-9.8136 6.123.8052 3.0352 3.3072 5.4401 7.573 4.6085 1.306-.2588 3.5048-2.2287 3.9326-1.8692 14.796 12.2425 7.3357 54.8354-21.6116 54.2028-4.3916-.1235-8.5867-1.9951-9.2985-2.442-.707-.4219-.719-.1978-.2552.1245 2.3414 2.0586 7.9372 8.057 20.5092 7.549 23.4378-1.0065 40.2193-40.1773 14.7409-62.3964 16.2734-8.8263 21.9915-26.8564 16.5514-40.4133z" fill="#CE1141"/><g fill="#13274F"><path d="M454.1972 301.6925c-1.3456-1.438-1.2821-2.2563-1.1647-3.7182.0815-.9922.1797-2.2311-.1726-3.8668-.5512-2.6157-2.1209-4.733-3.6247-6.7665l-1.989-2.9872-1.2223-2.8003c-.6422-1.7854-1.294-3.6307-3.4186-5.8115-.1797-.1977-.3415-.3715-.508-.5704l-1.8034-2.2563c5.8115-1.6967 9.646-4.5977 10.5386-8.0283.5033-1.959-.0563-3.9302-1.5302-5.392-2.1125-2.0934-6.758-3.5313-13.5126-1.5866-.0144-.012-.0384-.0479-.0384-.0994-.5392-1.1144-1.3324-2.2671-2.1568-3.4198-.0995-.1246-.1857-.236-.278-.3835-.459-.671-1.0844-1.6368-1.5302-2.3929-.2516-.544-.4481-1.0149-.423-1.3995.4386-6.183-2.1256-9.1091-3.9901-11.2156-.8388-.9538-1.5553-1.747-1.7614-2.6026-.2397-.9047-.26-2.2671-.272-3.8045-.024-4.0884-.0683-9.6902-4.4551-14.1273-2.7943-2.7608-3.475-4.485-4.2442-6.443l-.8304-1.958c-.2852-.7452-1.4499-1.6607-1.9412-2.0214l-.6806-.508-.4673.7309c-1.7458 2.7128-1.9747 5.44-2.1808 7.8437l-.4314 3.4067c-.5272 2.1065-1.7374 3.2951-3.0244 4.5593l-1.747 1.8717-.3655.4577c-1.6116 2.0322-2.261 3.197-2.261 11.9082 0 4.0644-.6591 4.8445-1.8154 6.2572l-.6686.8316c-1.2318 1.5865-1.2941 4.1016-1.3505 6.7414l-.248 4.0021c-.0743.5093-.1618.9922-.242 1.414l-.465 1.8836c-.012 0-.012.024-.012.024h-.012c-.5152 1.6607-1.1706 2.5906-1.934 3.2592-.0862.0503-.1557.1126-.2396.1498-.5032.0875-5.603.8184-13.8553 2.007l-1.3804.1738c-.024 0-.024.024-.0431.024-5.18.7453-11.5008 1.6607-18.5765 2.69-.0144 0-.0204-.012-.0204-.012l-3.711.532c-39.8297 5.7637-101.1645 14.6115-132.6916 19.1457-.072 0-.1246-.0383-.1917-.0383l-4.0705.659-15.9846 2.2922c-6.4226.8664-8.3518 5.44-8.0618 8.1158.2396 2.2311.985 9.0707 9.4661 8.3518.894-.0863 5.9673-.7933 13.8674-1.9196.043 0 .0683.012.1114.012l4.2262-.6567c27.38-3.9782 79.9807-11.798 119.6967-17.722l.3655-.024 2.1376-.3236c16.2962-2.4648 30.2247-4.5341 39.0366-5.8474.0563 0 .1354.012.1977 0l6.141-.9419c.0192 0 .0192-.012.036-.012.9741-.1497 1.7806-.2755 2.3809-.3594-.2037 1.9939-.8304 4.1387-1.5793 6.4298-1.034 3.0495-2.1209 6.3076-2.1209 9.7777 0 2.5786.683 5.2423 2.357 8.0043-.0671.175-.2217.5464-.2217.5464-1.5122 2.466-2.1569 4.0381-2.3797 5.8618a18.469 18.469 0 0 0-.1438 2.2803c0 2.9477.8028 5.0542 2.4228 6.2812 2.3534 1.8214 6.3004 1.5242 11.6973-.8423 7.2566 1.9172 15.7953.9526 23.0124-2.5044 3.8464 2.6266 9.9874-1.028 13.352-3.0603l.8365-.496c1.6368-.979 3.137-.8544 4.5857-.731l2.5283-.024.8555-.1737c2.43-.447 4.6972-.8795 5.5096-2.6889.6279-1.4103.206-3.2952-1.3121-5.996l-.0024.0072zm-234.1702 1.5481c-7.7455 1.1383-12.6966 1.8333-13.5522 1.8956-6.1326.5332-7.3477-3.3706-7.7251-6.854-.0204-.0982-.024-.2097-.024-.3475 0-1.6475 1.1444-5.1788 6.6779-5.9097l13.1364-1.8956c1.0832.8052 2.001 2.8134 2.4156 5.3286.495 3.1226.1235 6.183-.9298 7.7826h.0012zm117.752-17.3866c-36.899 5.5024-82.6145 12.2797-109.2636 16.1596.967-2.3666.973-5.5515.5823-7.906-.3594-2.1689-1.0472-3.9543-1.9579-5.2053l109.2144-15.763c.81 3.4594 1.529 7.325 1.426 12.7159l-.0013-.0012zm7.5896-6.6539c-.266-2.7032-.7369-5.0206-1.2581-7.1775l7.1535-1.028-5.8954 8.2043v.0012zm6.2333 4.5833l4.7954-6.7533c.199 1.783.3044 3.778.2612 5.996-1.6488.248-3.3287.4961-5.0566.755v.0023zm12.826-1.922c.024-2.2047-.0742-4.1627-.2731-5.972l5.4963 5.2052c-1.6919.248-3.439.508-5.2243.7668h.0012zm9.658-7.743c-.8113-.743-4.1628-3.8296-6.0272-5.5407l10.8561-1.5733c-1.4942 2.2203-4.2023 6.1985-4.829 7.1152v-.0012zm11.2467 4.6468c-1.8764.26-3.9662.5823-6.2452.9286l5.8498-7.8306c.284 1.958.4386 4.2023.3954 6.902zm62.8542-18.0433c.7752.755 1.1982 1.722 1.1982 2.738 0 .3236-.0383.6447-.1198 1.0042-.749 2.8758-4.4539 5.44-9.888 6.9534-.4709-.6315-.9046-1.5122-1.2701-2.4288-.1737-.3715-.3163-.7693-.4218-1.1288-.006-.036-.0431-.0623-.0623-.0863-.3331-.9418-.5871-1.7854-.7357-2.3294-.2277-.9801-.3655-1.8848-.4577-2.702-.0564-.719-.0564-1.414-.0564-1.9711 0 0-.0431-.248-.0922-.5704v-.3355c0-.024-.006-.048-.006-.072v-.0754c0-.0635-.024-.1258-.0312-.199 6.0751-1.7458 10.1528-.581 11.943 1.2031zm-13.2646 3.2233c.067.5189.1593 1.0389.3091 1.5973 0 0 .0048.0144.018.0383v.048l.006.0503c.1174.52.2732 1.0664.4337 1.6248-1.0305-.012-2.013-.2229-2.8877-.5955.701-.9035 1.4199-1.8214 2.1209-2.7632zm-2.0335-7.6328c-1.6919 2.4025-3.669 4.9296-6.0032 7.434-1.8285-.991-4.8337-3.3192-6.8228-5.2292.683-.0995 1.3696-.211 2.0334-.2996l10.7926-1.9052zm-2.9309 16.7898c-.9658 0-1.8645-.024-2.6577-.1114.2349-.236.471-.4577.7118-.707a13.94 13.94 0 0 0 1.946.8184zm-24.5545-6.4202c-.1438-1.5361-.496-2.9357-1.0353-3.9901-.1198-.2852-.2912-.483-.4338-.719 2.3127-.7549 4.7475-1.3876 7.2614-1.9088 3.1874 3.2472 7.7467 6.8396 10.4368 8.637a52.1509 52.1509 0 0 1-2.4444 1.8453l-2.0754-.6926c-3.3455-1.1767-7.8485-2.702-11.7093-3.173v.0012zm5.0686 8.564c-2.442.9525-5.0327 1.7098-7.845 2.2047.8628-1.438 1.5003-2.8375 1.9532-4.1999 1.4379.2229 2.8315.7693 4.1939 1.3265a31.507 31.507 0 0 0 1.6979.6674v.0012zm-9.9694-23.0508c.055-2.3797.0982-4.6085 1.0029-5.7636l.6195-.7669c1.4559-1.7614 2.2048-2.8758 2.2048-7.3488 0-8.4645.6326-9.2577 1.9028-10.8202l.3834-.4937 1.5985-1.723c1.318-1.3014 2.8434-2.7752 3.469-5.3658l.4768-3.6307c.1798-2.0586.4949-4.14 1.5542-6.2094.3043.2972.5511.5333.6075.683.0191.036.7992 1.8933.7992 1.8933.8232 2.0466 1.5865 3.9925 4.6097 7.0397 3.9302 3.9159 3.9662 8.9102 3.9901 12.9135.0204 1.6596.0204 3.0975.3116 4.2262.3211 1.239 1.2018 2.2288 2.1365 3.2952 1.6176 1.8334 3.6127 4.1016 3.6127 8.7113 0 .3954 0 .8172-.0384 1.239-.006.0623-.006.1366-.006.2109l-7.5453 1.2893c1.8896-4.5845.5631-10.2846-1.3696-14.089-.2037-.3954-.683-.5716-1.0964-.3355-.3955.1977-.5392.719-.3355 1.1263 1.8836 3.7314 3.1849 9.4662.8124 13.6325l-1.3517.2349c-6.3686.943-12.9051 1.9351-18.5884 3.8188l.2397-3.7673zm-6.08 25.1932c-.3594.0623-.8028.1354-1.3264.1977.0839-5.0566-.6051-8.7113-1.4799-12.4043l3.5564-.5188c.0564.012.0923.0599.1678.0599.961 0 1.5937.3978 1.982 1.2414 1.1358 2.5043-.2637 7.9563-2.8999 11.4253v-.0012zm59.613 29.5931c-.4698 1.0161-2.3283 1.39-4.3138 1.747l-.8723.1738h-2.1005c-1.5494-.1366-3.445-.2852-5.5275.9418l-.8556.4961c-2.9177 1.7854-9.0144 5.476-11.9393 2.9717l-.4027-.3595-.4709.2492c-2.6397 1.3025-12.0831 5.3682-22.5786 2.4684l-.2732-.0635-.254.1115c-4.9008 2.2047-8.4764 2.5882-10.3529 1.1527-1.5074-1.1647-2.0466-3.5073-1.626-7.0266.1797-1.5361.762-2.9237 2.1257-5.1428l.671-1.8334-.2612-.1485c-3.8464-5.9601-2.037-11.4134-.26-16.6917 11.4133-.5092 19.3936-3.0243 25.9984-7.549 6.8036 1.7375 15.6467 1.4643 21.5085-.6302 1.2199 1.5362 1.753 2.8878 2.2528 4.2754l1.3276 3.0866 2.121 3.1359c1.3935 1.8956 2.823 3.8775 3.3263 6.135.1605.731.2037 1.3744.2037 1.9567 0 .508-.036.9658-.0671 1.414-.03.3954-.0671.7668-.0671 1.1767 0 1.1527.266 2.3174 1.5864 3.6666.7933 1.4882 1.2318 2.7032 1.2318 3.5708 0 .2816-.036.5032-.1282.7153h-.0024z"/><path d="M411.0207 238.8012c.1797.4313.0144.9286-.4074 1.1143-1.6608.8184-3.0484 2.7764-3.463 4.896-.4098 2.0575.1163 4.0262 1.4679 5.6139.3032.3475.284.8795-.0431 1.1886-.3355.2996-.8436.2852-1.16-.0599-1.717-1.9843-2.3797-4.4754-1.8656-7.078.5152-2.6398 2.2407-5.0327 4.3808-6.0716.4038-.1989.8939-.012 1.0904.3955v.0012zm25.9325 41.7853c.4457.024.7932.3954.7669.8675-.06 1.0401 1.2533 2.1066 2.7655 3.3192 2.6721 2.1688 6.3208 5.144 4.7954 10.5841-.1354.4577-.5823.719-1.009.5824-.4337-.1259-.683-.6087-.5583-1.0305 1.227-4.3617-1.5493-6.642-4.2262-8.7976-1.7974-1.4738-3.487-2.8374-3.391-4.757.0275-.447.4038-.8184.8567-.7693v.0012zm8.4932 18.2661c-.2469 1.1024-.6111 1.3516-.8903 1.438l-1.692-.036-1.8273-.0875c-1.1539.1246-2.3006.6195-3.1658 1.3384l-2.8566 2.2803-.6506.272c-1.1947.2852-2.3785.1737-3.6115-.284-.4218-.1605-.8796.048-1.0401.483-.1606.4457.0563.9166.4829 1.0783 1.5313.5812 3.0196.6926 4.5174.3475l1.294-.5835 2.8639-2.2671c.6387-.544 1.5182-.9035 2.3366-.991l1.4187.0743 2.3965-.024c1.5122-.4589 1.8848-2.1089 1.9963-2.6517.1054-.4589-.1678-.8915-.5955-1.004-.4314-.1007-.8784.1856-.973.6194l-.0036-.0024zm-23.0975-15.044c1.7663 2.8758 1.9017 6.5664.3655 10.1372-.3235.7549.0048 1.5253 1.1887 2.8159 0 0 .4217.369.3594.7429-.0814.3714-.0922.683-.4709.719-.2672.0239-.7021.0359-1.0365-.2996-.7872-.8304-2.4156-2.5906-1.5301-4.6468 1.3145-3.0736 1.2342-6.171-.254-8.5627-.235-.3835-.1295-.9155.254-1.1503.3786-.2493.8807-.1259 1.1215.2456l.0024-.0012zm-16.9156 2.6158c1.5733 1.5984 1.0472 3.9542-.2972 5.488l-2.0155 1.7134c-1.7854 1.336-2.8686 2.2528-2.3917 3.9519.1318.4337-.1246.8915-.5572 1.0041-.4217.1354-.8747-.0995-1.004-.5572-.8065-2.9021 1.306-4.4754 2.9907-5.7396l1.7902-1.5098c.453-.5212 1.4056-2.097.3415-3.1753-.3163-.308-.3283-.8412 0-1.1623.3116-.3356.8268-.3356 1.1408-.0144l.0024.0012zm-3.9027 19.3062c.7249 1.959 2.72 3.0854 4.5353 2.5786l2.3174-1.0665 2.4277-1.0784c.961-.3355 1.8333-.036 2.5966.236.6207.1858 1.1587.3955 1.5985.2218l.6686-.211-.036.024c.036-.024 1.1144-.423 1.4044-.1498.7812.743-.3655 1.2522-.024 1.0425l-1.2821.8292-.1797.036c-.9802.3714-1.8657.0635-2.6518-.2097-.6207-.211-1.1587-.3835-1.6296-.2349l-2.1257.991-2.6649 1.1886c-2.6206.731-5.4592-.8663-6.4705-3.5947-.1582-.4194.0455-.9275.4673-1.0904.4218-.1462.8867.0647 1.0473.4865l.0012.0012zm14.8103-85.3082c.4134.187.5872.683.4134 1.1024-.774 1.8094-.713 4.2382.1606 6.3939.6674 1.6248 1.7135 2.8254 2.8554 3.2712.4278.1618.6315.6446.4913 1.0664-.1618.4338-.6279.659-1.0425.4961-1.5973-.6195-2.9429-2.0933-3.8044-4.189-1.0341-2.5523-1.0904-5.512-.1558-7.7072.187-.4338.671-.6195 1.0784-.4338h.0036z"/></g><g fill="#EAAA00"><path d="M420.887 253.4989c.006-.0144.018-.0144.036-.0144 2.9118-.508 8.3854-1.4379 9.1906-1.5733.018.048.0803.1114.0982.1726.3955.8927.9862 1.7973 1.668 2.738l-10.0198 1.735c-1.9195.2972-3.8415.5824-5.7563.9167-2.7752.423-4.2874.707-4.8446.8807-2.907.6063-5.7444 1.3013-8.4033 2.2311-.8987-.8807-1.9531-1.4379-3.1034-1.6248.0802-.3715.1725-.7549.254-1.154 5.712-1.995 12.4893-3.0243 19.088-4.014 0 0 .7118-.1247 1.7903-.2972l.0024.0036zm20.1187 22.9369c-5.174 1.6488-12.33 1.9327-18.3836.707.1798-.1115.3523-.2733.52-.4338.2481-.1738.4578-.3355.695-.52.7118-.5824 1.438-1.19 2.006-1.7471 3.216.6926 9.653.1977 12.826-.943.6446.955 1.39 1.886 2.2371 2.8398.0443.036.0839.0839.1007.0983l-.0012-.0012zm-58.8748-9.9c.5632-.0635 1.2066-.1366 1.6716-.212.1198.5092.4038 1.6727.6015 2.5043.0431.272.0922.5428.1486.8148-.556.7453-7.3968 9.8784-7.7683 10.3732-.5392.0755-4.455.6447-5.0877.755-.5129-.4818-7.3717-6.9763-7.9049-7.4963-.242-1.3636-.5272-2.6517-.8124-3.9303.973-.1234 2.5211-.3834 3.0052-.4553l7.7071 7.1116c.1678.1474.3955.2217.6315.2097.2157-.024.4398-.1857.5716-.3595 0 0 5.8954-8.6873 6.2309-9.1714l1.0065-.1438h-.0012zm-20.8196 3.01l.7873 3.681c.4146 2.3175.7117 4.8086.7117 7.8198 0 .3355 0 .695-.012 1.0401-.8866.1354-3.3395.508-4.5113.707 0-.2852.0191-.5716.0191-.8424 0-2.6649-.2348-4.9452-.5691-7.0649h.0071c-.043-.3355-.1354-.8927-.26-1.5505-.0934-.4314-.1677-.8663-.2612-1.3013-.1486-.683-.2852-1.3265-.4074-1.8453.3882-.0635.9706-.1366 1.5721-.224l2.9237-.4195zm-23.3419 3.4079c1.1096-.1606 3.5445-.52 4.5115-.659.7369 3.0746 1.3995 6.4465 1.4678 10.8201v1.8213c-.8987.0995-3.3827.447-4.5485.6076.012-.2852.012-.5956.012-.8556 0-4.8829-.6759-8.4896-1.444-11.7356l.0012.0012zm7.615 11.7356c.0143-.7549.0143-1.5002-.012-2.1928v-.7944c.303-.4074 7.5465-10.4847 7.9371-11.0287.3595-.048 1.0161-.1246 1.6728-.2109.187.9179.731 3.5684.8675 4.1999-.447.6314-6.3076 8.9233-6.6862 9.4302-.2972.0635-1.3373.224-2.3534.3858-.4709.048-.9418.1354-1.4259.211zm41.367-6.183c.006-.2516.024-.5212.024-.7704 0-3.173-.3091-5.7001-.731-7.906.024-.0504.03-.1259 0-.199-.3522-1.7734-.6014-2.8398-.7931-3.5204 1.1407-.1486 3.5707-.52 4.5365-.6447.8316 3.421 1.5122 6.8156 1.5122 11.3762 0 .3091-.0192.6686-.024.991-1.2461.1988-2.7655.4097-4.5233.671l-.0012.0023zm42.8339-8.142c.0922-.1115.1857-.2361.2971-.3476.6135-.695 1.3756-1.5864 1.722-1.9819 1.3515.6471 2.8565.9922 4.4622.9299.1917.4709.4074.967.623 1.4738.1918.3859.386.7705.5968 1.1168.018.0623.0563.1246.0923.1737.0191.0624.036.0995.048.1354-2.441.4338-5.5684.3475-8.3579-.9166.0743-.0863.26-.3211.5153-.5812l.0012-.0024zm-16.8786 3.8403c-1.1407-.1977-2.3054-.659-3.5384-1.1647-1.3624-.5703-2.7883-1.0784-4.3293-1.3504.278-1.1383.3955-2.2551.4146-3.3072 3.6427.483 7.9324 1.9328 11.1401 3.0592l.8304.2732c-1.3935.8927-2.8758 1.7135-4.4359 2.4564-.0168 0-.0551.036-.079.036l-.0025-.0025zm10.0485-6.6299c-2.273-1.4618-6.5184-4.781-9.7777-7.906.8508-.1618 1.7231-.3116 2.5595-.4482.713-.1234 1.481-.2348 2.3665-.3714 1.7303 1.8848 5.1573 4.6492 7.573 6.0847-.8424.8316-2.2408 2.2167-2.2408 2.2167l-.3714.3236c-.0264.0383-.0695.0623-.1079.0994l-.0012.0012zm-23.7253-6.939c1.148.1234 2.176.6566 2.9633 1.6487l.0443.048c.254.3235.4817.683.6878 1.0904.5824 1.203.9035 2.7032.9167 4.4371.0048.048.0048.0995.0048.1354a13.5875 13.5875 0 0 1-.1798 2.0694c-.0048.0994-.024.1869-.0431.2852-.4074 2.3174-1.4055 4.8577-3.1466 7.374-.3535.036-.701.1102-1.0724.1234-.0564 0-.1055.012-.1738.012-.8603.0875-1.771.1258-2.6697.1498l-.006-.9419h-.0263c1.6116-2.617 2.8135-5.9996 2.8135-8.8502 0-1.1024-.1726-2.1305-.5512-2.962-.3284-.707-.7993-1.239-1.3696-1.6237.7429-.7789 1.336-1.7459 1.807-2.9956h.0011z"/><path d="M395.8173 282.5564c.2732-.9406.4841-1.8692.6063-2.823.006-.012.012-.024.012-.0384 1.142 0 3.3215-.0863 4.6923-.3595.0552-.012.072-.0479.1163-.0743 4.4311-.5703 8.4093-1.771 11.9465-3.3946 1.1288-.3235 4.6672-2.2563 6.582-3.705 0 0 .006-.012.012-.0383 1.2893-.8915 2.4971-1.8334 3.651-2.8003.048-.036.1235-.06.1606-.072l.9167-.8687.0719-.0599c3.7565-3.4078 6.7797-7.114 9.2385-10.5086.2672.3714.5212.8412.6758 1.3013.0815.2348.1498.4817.1605.707v1.681c-.036.0504-.0719.1127-.0719.1127-10.2258 14.1633-19.2654 21.5745-39.2426 22.6541.1558-.5224.3295-1.1048.4721-1.7135zm-170.7289 6.5568c1.0784.8304 2.001 2.7884 2.4037 5.2915.1558.9287.23 1.8837.23 2.7764 0 2.1568-.4517 4.0021-1.2222 5.1165-.5512.0874-3.0675.472-4.6887.719.6015-1.45.9778-3.1227.9778-4.8326 0-1.0545-.084-2.0946-.2397-3.0004-.3714-2.3414-1.2018-4.0261-2.212-5.3035 1.5937-.2588 4.1891-.6686 4.7523-.7669h-.0012z"/></g><path d="M399.3809 179.2194h-2.2168v6.243h-1.5014v-6.243h-2.224v-1.354h5.9434v1.354h-.0012zm10.0677 6.243h-1.505v-6.0572h-.0384l-2.1257 6.0595h-1.4558l-2.049-6.0583h-.036v6.0595h-1.5074v-7.6005h2.6026l1.704 4.9584h.043l1.7903-4.9572h2.5762v7.597h.0024l-.0012-.0013z" fill="#FFF"/></g></svg>