<svg width="500" height="500" viewBox="0 0 500 500" xmlns="http://www.w3.org/2000/svg"><title>baltimore-orioles</title><g fill-rule="nonzero" fill="none"><path d="M217.0535 451.5745c-47.906 0-92.7543-17.3278-122.993-47.9061-27.1807-27.1808-41.4506-63.8748-41.7904-106.005l-13.5903 2.3783-.6796-2.3783c-.3397-1.6988-9.853-43.1495 35.6748-79.8435-12.2314-28.5398-23.7832-80.8628 23.7832-121.2941 5.0963-5.0964 8.494-7.135 10.8723-9.1735 1.359-1.0193 2.3783-1.6988 3.3976-2.3784 2.718-7.4747 8.1542-14.2699 10.8723-16.988 14.9494-15.6289 33.976-18.0072 34.6554-18.347 2.7181-.3397 5.4362-.6795 8.1543-.6795 14.6096 0 23.1036 6.1157 26.841 8.8338.3397.3397.3397.3397.6795.3397 1.6988.3398 3.7373.6795 6.4554.6795s6.4555.3398 11.212.6796c26.841 3.3976 49.605 15.9687 67.952 36.694 6.1157-.6795 30.5784-4.0771 42.8097-6.7952 6.1157-1.359 12.5711-2.718 18.6868-4.0771 29.8988-6.4554 58.0989-12.5711 78.4844-12.5711 3.0579 0 5.776 0 8.1543.3398h.3397c14.6097 2.718 25.8217 10.5325 30.5784 22.0843 10.1928 24.4627 3.7373 43.4892-22.0844 64.2146-30.9181 24.8024-75.0869 37.7133-100.229 43.4892.3397 2.0386 1.0192 5.776 2.718 11.8916 6.1157-.6795 12.5711-.6795 18.6868-.6795 50.2844 0 82.5616 18.347 84.6001 36.3542.3398 6.1157-4.0771 13.2507-14.6096 16.3085-45.188 11.8916-54.3616 33.976-66.2532 85.6194-7.135 30.5784-25.1422 56.0603-53.0024 73.7278-24.8025 16.6482-57.0796 25.482-90.376 25.482" fill="#DF4601"/><path d="M165.41 51.6775c14.9495 0 23.4435 7.135 26.5013 9.1735 4.0771 1.359 8.494.3398 18.347 1.6988 16.988 2.3783 43.829 9.5133 67.2724 37.0338 0 0 30.2386-4.0771 44.5085-6.7952 36.0145-7.4747 72.3688-16.3085 96.4917-16.3085 2.7181 0 5.4362 0 7.8145.3398 15.2892 2.718 24.8024 11.212 28.5398 20.7253 10.5325 25.1422 2.0386 42.47-21.065 61.1568-28.8797 23.1036-71.0098 36.694-101.2484 43.829 0 0 .3397 4.7566 3.7373 16.6482 7.135-.6796 13.9302-1.0193 20.3856-1.0193 48.9254 0 80.1832 17.6675 81.882 33.976.3398 4.7566-3.3976 10.8722-12.9108 13.5903-46.547 12.2314-56.4001 35.6748-68.2917 87.658-14.6097 63.8748-76.4459 96.4917-140.6604 96.4917-79.8435 0-162.7449-50.2844-162.4051-154.2508l-14.27 2.3783S29.846 255.873 76.3932 219.5187c-8.494-19.0265-29.5591-76.1061 22.0843-119.9351 8.1543-7.8145 11.2121-8.8338 14.9495-11.8916 2.3783-7.135 7.4747-13.9301 10.5325-16.6482 14.6097-14.9494 32.9567-17.3277 32.9567-17.3277 3.3976-1.6988 6.1156-2.0386 8.494-2.0386m0-5.0964c-2.7181 0-5.776.3398-8.494.6795-1.6988.3398-20.7254 3.0579-36.0145 19.0266-2.7181 2.718-8.1543 9.5132-11.2121 17.3277-.6795.6795-1.6988 1.359-2.718 2.0386-2.7182 1.6988-5.776 4.077-11.2121 9.1735-23.4435 19.706-35.335 44.1687-35.335 73.0483 0 15.6289 3.3976 32.2771 10.1928 49.2651-23.1037 19.0265-31.5977 39.0723-34.6555 53.3422-3.3976 15.9687-.6795 27.5206-.6795 27.8603l1.0192 4.7567 4.7567-.6796 8.494-1.359c1.0192 41.4507 15.6289 77.4652 42.8097 104.646 30.918 30.918 76.4459 48.5856 124.6917 48.5856 33.6362 0 66.2531-8.8338 91.735-25.1422 28.2001-18.0073 46.887-44.1688 54.0219-75.4267 11.8915-51.6434 20.3855-72.3687 64.2145-83.5808 12.2314-3.3976 17.3278-11.8916 16.6482-19.0265-1.0192-10.1928-10.8723-20.0459-26.5012-27.1808-11.212-5.0964-31.2579-11.212-60.817-11.212-5.4361 0-10.8723.3397-16.6482.6794-.6795-3.0578-1.359-5.0964-1.6988-7.135 25.8217-6.1156 68.2917-19.3662 98.5303-43.4891 26.841-21.4049 33.6362-41.4507 22.7639-67.2724-5.0964-12.2314-16.988-21.0651-32.617-23.7832h-.6795c-2.718-.3397-5.4361-.3397-8.494-.3397-20.7253 0-48.9253 6.1156-78.8242 12.571-6.1156 1.359-12.571 2.7181-18.6867 4.0772-11.5519 2.3783-33.6362 5.4361-41.111 6.4554-17.6674-21.4048-40.771-33.6362-67.9519-37.3735-4.7566-.6796-8.494-.6796-11.5518-.6796-2.3783 0-4.077 0-5.4361-.3397 0 0-.3398 0-.3398-.3398-3.7373-2.718-12.9109-9.1735-28.2-9.1735" fill="#FFF"/><path d="M378.4393 251.4561c-50.2844 27.8603-46.8868 63.8748-103.2869 78.8242-63.8748 16.6482-115.5182-26.1615-78.1447-34.6554 8.8338-1.6988 9.853-7.135.3398-5.4362-22.4242 1.359-51.3037 12.9109-24.123 57.7591 0 0 3.7374 1.6988 5.4362 0 0 0-10.1928-22.7639-2.3783-29.2193 36.0145 34.3157 116.1977 40.4314 166.4821-26.5012 16.988-22.4242 36.694-35.335 55.7206-43.1495-30.5783-7.4747-65.2338-8.1542-84.2604-2.3783-2.3783-30.2386-4.077-38.7326-9.853-51.6435-2.718-5.7759-3.0578-9.1735 10.1928-12.9108 8.1542-2.3784 42.1302-10.1928 71.3495-23.4434 20.7253-9.5133 34.9952-20.0459 38.7326-23.7832 3.0578-2.718 13.9301-14.9494 9.853-24.8025-4.077-9.853-13.9301-10.5325-25.8217-9.5132-10.1928 1.0193-14.9494 1.359-78.4845 15.2892-33.2964 6.7951-52.323 7.1349-64.2145 10.8723 0 0-15.629-38.0531-67.6122-39.752-6.7951 0-17.6675-1.359-23.1036-6.7951-5.776-4.4169-15.9687-3.7374-24.4627 1.0193-6.4554 3.3976-11.8916 8.8337-12.9109 13.9301-2.3783 8.8338-5.4361 8.1542-17.6675 18.347-15.2891 12.5711-50.2844 40.4314-11.5518 111.4412-35.335 20.3855-40.4314 44.1687-40.4314 44.1687l16.3085-1.0193c-2.3783 4.4169-4.4169 19.0266-4.4169 25.482-.3397 37.0338 10.8723 67.6121 33.6362 90.7158 24.8025 25.1422 62.5158 39.7519 102.6074 39.7519 28.2 0 55.3808-7.4747 76.4459-20.7254 9.5133-6.1156 18.0073-13.5904 24.4627-22.0843-80.8628 50.2844-154.9304 7.4747-169.8798-35.335-14.6097-41.7905 11.5518-74.0676 44.8483-66.2531 46.547 11.212 71.0097 4.7566 78.1447-17.6675 5.7759 2.0385 19.0265 1.6988 27.1807-2.3784 12.2314-5.4361 40.4314-15.6289 80.8628-8.1542" fill="#000"/><path d="M147.063 101.962l25.482-9.5134s-19.0265-14.6096-25.482 9.5133m59.7977 68.2917s39.0724-30.2386 82.9014-35.335c40.7711-5.0964 105.6652-19.3663 105.6652-19.3663s-31.5977 19.0265-63.1953 41.1109c-34.3157 20.3856-59.458 28.8796-99.2098 27.8603-25.8217-3.3976-42.8097-3.3976-26.1615-14.27m148.8147-14.6096s63.8748-44.5085 65.9134-41.1109c5.7759 7.8145-26.1615 27.8603-65.9134 41.111" fill="#DF4601"/><path d="M103.5738 215.4416s26.5013-3.0578 54.0218-15.9687l-49.2651 25.8217-4.7567-9.853zm148.475 19.0265c5.7759 18.0073 1.6987 35.6748-9.1736 39.0724-10.8723 3.7373-24.8024-8.1542-30.5783-26.1615-5.776-18.0073-1.6988-35.6748 9.1735-39.0724 11.212-3.7373 24.8024 8.1543 30.5784 26.1615z" fill="#FFF"/><path d="M232.6825 242.6224c4.7566 8.1542 3.7373 17.6675-1.6988 20.7253-5.4362 3.0578-13.5904-1.359-18.347-9.5133-4.7567-8.1542-3.7374-17.6675 1.6987-20.7253 5.4362-3.0578 13.5904 1.0193 18.347 9.5133" fill="#000"/><path d="M297.9163 217.1404c4.7566 18.347-.3398 35.6748-11.5518 38.7326-11.2121 3.0578-24.123-9.5133-29.2194-27.8603-4.4168-18.347.6796-35.6747 11.8916-38.7326 11.212-3.0578 24.123 9.5133 28.8796 27.8603" fill="#FFF"/><path d="M276.5114 226.314c3.7374 7.8144 2.7181 16.3084-2.718 19.0264-5.0964 2.3784-12.5711-1.6988-16.3085-9.853-3.7374-7.8145-2.718-16.3084 2.718-19.0265 5.0965-2.3783 12.5712 2.0385 16.3085 9.853" fill="#000"/><path d="M205.8415 121.3282c5.0963 3.0578 9.853 3.0578 15.6289 0 1.0193 3.7374 2.0385 8.8338 2.0385 12.9109 0 3.3976-.3397 7.8144-2.0385 10.5325-1.0193 1.6988-2.0386 2.3783-3.7374 2.718-5.4361 1.0194-10.1928-7.1349-11.8915-13.2505-1.0193-4.0771-1.0193-8.8338 0-12.9109zm14.9494-2.3783c-3.0579 1.359-5.4362 1.359-7.8145.3397-2.718-1.0192-5.0964-3.3975-6.4554-6.1156-1.0193-2.3783-1.0193-5.0964.3397-7.135.6795-1.0193 2.3783-1.6988 4.0771-1.6988 4.0772 0 7.8145 7.8145 9.853 14.6097zm7.8144-6.7952c-.6795 1.359-1.359 2.718-2.3783 3.7374-4.077-11.2121-9.853-16.988-15.629-16.6483-3.3975.3398-6.4553 1.6988-8.1541 4.417-2.0386 2.718-2.7181 6.7951-1.359 10.1927-3.058 7.4747-2.7182 16.3085-.6796 23.1036 2.3783 7.135 5.776 12.2314 10.5325 14.6097 2.7181 1.6988 6.1157 1.6988 8.494 1.0193 3.3976-1.0193 5.776-3.3976 7.4747-7.135 3.7374-7.8144 3.0579-19.3663.3398-27.1807 1.359-1.0193 3.0578-3.3976 3.7374-5.4362l-2.3784-.6795zm6.4555 5.776c0-.6796 0-1.0194.3397-2.0386h-.3397c-.3398 0-.6795.6795-1.0193 1.359-.6795 1.359-1.0193 3.3976-.3398 4.4169 0 .3397.6796.3397 1.6988 0 .3398 0 .6796-.3398.6796-.6796.6795-.6795.6795-2.0385.3397-2.718-.3397-.3398-.6795-.3398-1.359-.3398zm10.5325 6.1156l-2.3783-2.0386-.6795-.6795c-.6795-.3398-1.0193-1.0193-1.0193-1.6988v-.3398h-.3398l-2.718 2.0386c-.3398 1.0193-.6796 3.0578-.6796 4.7566l-.3397 5.4362c-.3398 3.3976-1.0193 6.1157-2.718 7.135l-.6796 3.0578h.3398c2.0385-1.0193 3.3975-3.0579 4.4168-6.4555l.3398-3.0578.3397-2.718v-.6796l.3398-2.718c0-.6796.3398-1.3591.3398-2.0386v-.3398l.3397.3398c.6795 1.0193 2.7181 2.718 3.7374 3.3976l.3397.3397h-.3397c-3.3976 1.359-4.0771 3.7374-3.3976 4.7567.3397.6795 1.0193 1.359 1.359 1.6988.6795.3397 1.6988.3397 2.7181-.3398 2.0386-1.0193 3.3976-3.3976 2.718-5.7759v-.3398l-.3397-1.0192c-.3397-1.0193-.6795-1.6988-1.6988-2.7181zm-.3397 6.7952c-.3398.6795-.6796 1.0193-1.359 1.359-.6796.3398-1.3591 0-1.6989-.3397-.6795-.3398-.6795-1.0193-.3397-1.6988.3397-.6796 1.359-1.359 3.0578-2.0386h.3398s0 .3398.3397.3398c0 1.0192 0 2.0385-.3397 2.3783z" fill="#DF4601"/><path d="M336.6489 430.5094h-4.7567v12.9109h-3.0578v-12.911h-4.7566v-2.718h12.571v2.718zm21.7446 12.9109h-3.0578v-12.5711l-4.7567 12.571h-3.0578l-4.4169-12.571v12.571h-3.0578v-15.9686h5.4361l3.7374 10.1927 3.7373-10.1927h5.4362v15.9687z" fill="#FFF"/></g></svg>