<svg width="500" height="500" viewBox="0 0 500 500" xmlns="http://www.w3.org/2000/svg"><title>boston-red-sox</title><g fill-rule="nonzero" fill="none"><path d="M422.2973 288.1282c-15.2436-10.8486-33.6563-13.2526-51.4664-15.5805-33.9746-4.4423-60.7862-7.962-64.6987-63.583-5.6833-80.8902-7.6251-99.4706-28.0407-114.3383-.684-5.6715-4.7606-37.9835-4.7606-37.9835-1.373-10.962-11.3734-18.7125-22.3151-17.348l-62.105 7.7945c-5.3092.6535-10.0106 3.3267-13.2899 7.576-2.194 2.8104-3.5485 6.0982-4.0022 9.579-8.6934-.5588-17.0194 4.6725-20.0685 13.2305 0 0-10.7114 30.101-12.7413 35.8335-12.4061 5.5021-22.3574 23.0413-33.3583 58.3686l-6.281 20.3868c-12.1928 40.1404-21.819 71.8718-40.0117 91.4307-15.7904 17.0025-24.1655 35.2155-24.1655 51.8507 0 5.0552.7618 9.9208 2.3075 14.5934 4.6557 13.945 18.6363 32.1377 58.9781 39.4463 22.1272 3.8261 47.7825 19.7333 72.5947 35.158 17.0567 10.598 35.3493 21.8089 51.7627 28.6739 10.5404 4.483 28.7331 12.2148 79.3835-.4808 2.6156-.5756 8.1161-2.8273 9.9885-11.5969.4148-1.8657.6095-3.9412.6095-6.2894 0-17.0195-11.927-46.7159-44.1324-74.3334 23.0244 2.3279 48.7542 7.7877 67.7477 14.4834 31.5502 11.0958 90.7095 18.5973 124.6367-6.0202 2.7392-1.7708 5.8746-5.8661 6.1235-13.2898 0-15.6346-12.9817-46.445-42.6934-67.5632" fill="#FFF"/><path d="M417.855 294.321c-40.7923-28.9447-112.769 8.2702-119.2988-84.8348-5.9525-84.6605-8.0755-97.6609-27.587-110.5681l-5.1636-41.3475c-.8668-6.7719-7.0597-11.58-13.8384-10.7131l-62.1135 7.7487c-5.9508.7703-10.405 5.6545-10.7707 11.4445 2.1941.7686 6.1168 2.172 10.8774 3.8634l-.491-3.9413c-.1252-1.0395.6264-2.001 1.693-2.1331 1.075-.1355 2.057.5925 2.184 1.671l.7195 5.8661c2.702.9413 5.558 1.9808 8.453 3l-1.1445-9.2708c-.1727-1.4051.8296-2.6546 2.184-2.8103 1.3831-.1896 2.614.8092 2.7967 2.1958l1.4425 11.7492c2.4886.8854 4.9231 1.732 7.2967 2.5784l-1.8284-14.6374c-.2032-1.693.9819-3.2302 2.6749-3.4232 1.6642-.2303 3.1997.9819 3.4248 2.6749l2.1924 17.6746c2.4125.8804 4.6727 1.6727 6.6653 2.404l-2.5784-20.849c-.2404-1.7098.9616-3.2115 2.6343-3.4231 1.681-.2303 3.1997.965 3.4231 2.6546l2.9526 23.9047c.8939.3082 1.3848.4622 1.3848.4622 2.289.8093 4.3171 2.0231 6.0677 3.4842l-3.623-29.2715c-.1558-1.3477.8296-2.6174 2.2009-2.7884 1.3543-.1354 2.6275.8093 2.7714 2.2127l4.825 38.8284c.6771 2.0773 1.0784 4.2324 1.0784 6.3876 0 2.2296-.403 4.4796-1.1851 6.711 0 0-10.835 30.5412-12.787 36.0213 2.4124 4.7302 3.4875 9.7312 3.4875 14.8474 0 15.3079-9.0185 31.7906-17.2802 46.8869-3.5214 6.4045-6.8464 12.4637-9.3368 18.1554-12.7413 31.1-18.924 50.3524-18.924 63.4865 0 7.0005 1.7319 12.1945 5.1246 16.5776.1185-8.2498 1.6642-14.634 2.5683-17.7305 8.2024 2.5953 32.4458 10.212 44.6098 12.8666 0 0-1.0293 24.9443 2.0197 42.8661 1.4221 1.1377 2.6072 2.1196 3.5096 2.9068 1.5964 1.114 3.115 2.1924 4.6353 3.3081 27.4431 1.5745 59.977 8.4429 80.958 15.809 32.6168 11.4614 87.8433 16.8281 117.8851-5.1348 8.4903-5.2076-2.2686-43.865-36.7917-68.3656M258.9254 103.5348c-1.0835.1135-2.0553-.6162-2.184-1.693l-5.4006-43.5026c-.1286-1.0784.6603-2.0417 1.71-2.1755 1.0868-.1354 2.0586.635 2.1636 1.693l5.3836 43.4823c.1355 1.075-.596 2.057-1.6726 2.1924M446.5779 354.938c-10.4541 7.0004-24.4838 10.4456-39.4175 11.502-3.2099.0949-5.3735-1.0598-6.0947-3.5975l-10.7622-29.368c-1.0497-2.4616-1.2105-4.7319 2.0993-6.3656 0 0 22.2016-9.6754 24.6632-10.9823 2.4548-1.3832 5.5614-3.7483 8.541-.728 14.7797 15.616 21.0014 32.732 21.0014 39.3667 0 .0559-.017.1151-.0271.1727" fill="#BD3039"/><path d="M247.4825 355.5187c-2.9914-2.3651-20.5696-17.5392-45.436-34.3505-24.8494-16.7892-19.1086-41.9637 3.1998-96.4486 10.9162-24.6768 35.8876-55.3907 21.8224-76.2008l13.9331-39.2719c2.3262-6.4434-1.0784-13.5014-7.5201-15.7903l-58.9494-20.9624c-6.4502-2.2906-13.5387 1.0953-15.8157 7.537l-13.9417 39.2567c-10.8858 2.3431-20.705 18.2334-32.0615 54.6374-15.528 49.7903-25.425 90.5063-47.9552 114.7412-32.0987 34.5198-35.6472 80.7752 32.8877 93.2372 39.3786 6.8091 85.9303 47.5844 125.3478 64.0672 9.4519 3.9615 24.9155 12.02 75.2865-.6366 10.8266-2.0383 6.6737-49.9089-50.7943-89.8122M93.6844 369.9834c-21.4246-4.9062-34.8008-13.7537-38.8199-25.889-4.097-12.3281 1.3256-28.618 14.5477-44.2915 14.9896 5.807 27.6547 12.7887 37.0304 19.0595-6.711 14.077-11.2786 31.6552-12.76 51.1193M230.282 102.2431c1.009.386 1.5474 1.4627 1.1716 2.4819l-14.7221 41.2916c-.3555.982-1.4898 1.5406-2.5107 1.1546-1.0158-.347-1.5288-1.4813-1.1715-2.4819l14.722-41.2747c.3928-.9988 1.4899-1.5372 2.509-1.1732m-11.7407-4.2104c1.2866.4808 1.9808 1.8843 1.5067 3.193l-14.3649 40.2351c-.4503 1.307-1.874 1.9977-3.22 1.4983-1.2697-.4605-1.9638-1.8843-1.5101-3.193l14.3767-40.2148c.4571-1.2867 1.903-1.9808 3.2116-1.5186m-11.7713-4.1935c1.6151.5553 2.4244 2.3058 1.8657 3.921l-14.0009 39.1753c-.5671 1.5779-2.3194 2.404-3.904 1.8454-1.588-.5757-2.4243-2.3245-1.8572-3.921l13.9924-39.1584c.5672-1.5914 2.316-2.438 3.904-1.8623m-51.2632 32.3662c-1.0226-.3843-1.549-1.4982-1.1952-2.4988l14.7424-41.2527c.3724-.9988 1.4898-1.5406 2.5191-1.1935.982.3657 1.5101 1.4813 1.1648 2.4819l-14.7509 41.2747c-.3674 1.0158-1.4729 1.5355-2.4836 1.1884m11.7696 4.1918c-1.307-.4401-1.9977-1.8842-1.5288-3.2115l14.3564-40.1963c.491-1.307 1.9046-2.018 3.1828-1.5186 1.3273.4402 1.9808 1.8843 1.5305 3.2116l-14.348 40.2013c-.469 1.3087-1.913 1.9977-3.1912 1.5186m11.7323 4.1935c-1.5948-.5756-2.421-2.3058-1.8555-3.9023l13.9907-39.1585c.5756-1.615 2.3261-2.4412 3.9226-1.8842 1.5965.5586 2.4244 2.3447 1.8369 3.9226l-13.9806 39.1754c-.5587 1.5965-2.2973 2.4243-3.9141 1.8453m113.0872 301.0107c-18.5973 4.4407-31.6586 5.8069-41.0986 5.5953-3.386.4232-6.1354-1.1546-6.6822-5.0959l-3.4706-30.6767c.0847-3.1557 1.0564-5.79 4.9435-5.8847 9.1048.0558 20.0668-.8296 23.4528-1.9639 5.0484-1.654 6.3554-1.1174 6.9411-.1727 12.3113 16.5404 16.0697 30.7326 16.0697 37.33 0 .3658-.1185.5385-.1557.8635m111.4721-46.98h1.8742v5.1737h1.185v-5.1737h1.8742v-.982h-4.9317m9.5941 4.3476l-1.6625-4.329h-1.732v6.1371h1.1073v-4.7708l1.8623 4.7708h.8295l1.8454-4.7708v4.7708h1.097v-6.137h-1.7014" fill="#BD3039"/></g></svg>