<svg width="500" height="500" viewBox="0 0 500 500" xmlns="http://www.w3.org/2000/svg"><title>chicago-white-sox</title><g fill-rule="nonzero" fill="none"><path d="M142.8362 69.1683c-10.3908 11.1074-20.7836 33.6846-22.2168 48.375-.3583 5.0162-.7166 9.6762-.7166 13.9758 0 15.0528 2.8664 26.5185 9.6762 37.628 8.2369 13.9737 21.8544 25.7977 38.6967 33.322 17.9192 8.239 42.2878 19.3525 44.794 20.4254 5.0162 2.1498 12.5426 6.0932 14.332 8.239-2.506 1.7935-22.2147 16.1276-23.648 17.2025-12.9009-4.2996-33.3241-1.7915-39.4173-.3583-17.2006 3.9434-32.966 11.826-44.0753 21.5022-11.1054 9.6762-20.065 21.4982-22.571 30.1015-2.5102 7.8807-2.152 12.899.7145 15.405 2.8664 2.1519 7.5244 1.4373 14.3321-2.8644 7.166-4.6559 22.2188-13.9758 40.8506-16.8422 13.9779-2.1498 27.9517-.3583 38.3445 2.1498 0 0 7.8827 2.506 14.3321 6.8057v24.0083c-1.0729 1.073-6.8057 6.0932-6.8057 6.0932-1.073 1.073-1.4332 2.1458-1.4332 3.2227 0 .7166 0 1.4332.3583 1.7915.3583 1.4312 1.7915 2.1458 1.7915 2.1458l70.5917 43.0024s16.8423-12.9009 19.7067-15.0507c1.0729 1.7915 2.5101 4.2996 3.2247 5.7328-1.4332 1.7916-19.7087 24.0084-21.8585 26.5185-2.5101-2.1518-15.7694-13.9779-15.7694-13.9779-3.9393-3.583-6.8057-3.2247-8.5972-2.5101-2.5102 1.077-4.2996 4.3017-4.2996 8.6033v40.132l23.648 22.575c3.583 3.5831 6.8077 4.2997 8.9575 4.2997s4.2997-1.4332 6.0932-3.2247c0 0 27.231-34.7574 34.397-44.0753 2.5062 4.2996 26.1542 40.134 26.1542 40.134l.7186 1.4332c1.0729 2.5101 2.8664 6.4494 6.4495 7.166 2.1518.7166 4.66 0 7.5263-2.1498 7.5244-5.7328 25.4416-19.3524 27.5914-21.8585l.7166-.7166c1.7915-1.7915 3.2247-3.2247 3.2247-5.0162v-41.209c0-1.7914-1.0729-4.2996-3.2247-5.3745-1.4332-.7166-3.583-.7166-6.8078 2.1498 0 0-14.3361 10.7491-18.994 14.3322-1.7916-2.8644-13.9759-22.2148-15.4091-24.3646 1.4332-2.1499 30.4578-38.3405 32.6076-40.8506 2.1498 1.7915 8.239 6.4494 8.239 6.4494 3.2267 2.1498 5.7348 2.5102 7.8846 1.4332 3.583-2.1498 3.583-8.2389 3.583-8.9575v-31.891l-20.067-20.7816c-1.4332-1.7915-3.583-2.8664-5.7328-2.5101-2.1498.3603-4.2996 1.4372-5.7328 3.583-1.073 1.7935-16.482 21.144-27.231 34.4011-2.8665-2.1498-6.8078-3.9413-8.9576-4.6559V260.158l5.3745-5.3746c.7166-.7166 3.9413-4.2996 3.9413-7.8826 0-.7186 0-1.4373-.3583-2.1519-1.0728-3.2247-4.6559-4.6559-10.749-4.6559 0 0-1.7916 0-3.583.3563 4.2996-9.6762 5.7328-20.4253 5.7328-27.9497v-1.4332c0-13.6175-3.2248-25.0812-8.9576-33.6845-7.166-10.749-12.5426-13.9738-21.142-19.3484l-2.506-1.7915c-10.0325-6.4454-63.4257-34.397-65.5755-35.474l-20.4253-10.0304c-16.1257-8.239-18.6338-15.0508-18.6338-21.142v-.7145c0-5.0163 7.166-14.3321 19.3524-14.3321 8.239 0 14.6904.3562 26.1541 4.2976 14.6965 5.0162 22.2188 12.1863 22.2188 22.2168l-.3603 3.583 24.725 16.8423 41.9234-53.7495-29.7371-19.7087-1.077 1.0729c-6.4494 6.4515-6.8077 6.4515-13.6175 5.0203-1.7915-.3604-5.7328-1.7936-10.3908-3.9434-13.9738-6.4575-37.2655-15.7694-58.049-15.7694-35.1158 0-53.3913 16.484-70.2315 34.7574zm62.707 182.3904l26.5185-19.3483v-1.073c-.3603-4.6599-12.903-10.3927-17.5609-12.1863-2.5101-1.0729-27.233-12.1863-44.7919-20.067-16.1257-7.5264-29.0246-18.6358-37.2676-31.893-5.7328-9.6762-10.749-22.575-8.2389-49.0895 1.4312-13.6196 11.4637-35.8344 21.1399-45.8709 16.486-17.5548 33.6845-33.3201 67.7273-33.3201 19.7087 0 42.6421 9.3118 56.2556 14.6904 5.3766 2.1498 8.9596 3.583 11.1094 3.9413 7.5244 1.4312 9.6762 1.0729 15.7694-5.0203 2.1458 1.4373 20.7816 13.9779 23.648 15.7694-2.5101 2.8664-35.1157 44.792-36.9092 47.6584-2.5102-1.7916-18.2755-12.5427-19.7087-13.6176v-1.4332c0-11.822-8.239-20.4253-24.725-25.7998-11.822-3.9414-18.992-4.2997-27.5913-4.2997-14.6925 0-22.9354 11.822-23.2917 17.9152-.3583 10.0325 6.0932 17.9151 20.7836 25.4415l20.4253 10.0325c.3583.3583 55.541 29.0246 65.2172 35.474l2.1498 1.4332c8.5993 5.3746 13.2592 8.239 20.067 18.2755 5.7328 8.5993 8.5993 19.3524 8.239 32.9659 0 7.8806-1.4313 19.3484-6.4475 29.3808l-1.7915 3.2248 10.3908-1.073c3.583 0 6.0931.7147 6.8077 2.1459.7166 1.7935-1.4332 5.0202-2.5101 5.7348l-6.8057 6.8078v58.4094l1.4372.3563c3.2227 1.0729 8.5973 3.2247 10.0305 5.3746l1.4332 2.1498 1.4332-2.1498c2.8684-3.583 27.235-34.0408 29.0286-36.551.7146-1.0729 1.7895-1.4332 2.8644-1.7915 1.0729 0 1.7915.3583 2.5102 1.0729 0 0 16.1236 16.8422 18.988 19.7107v30.8242c0 1.7915-.3563 4.2996-1.4312 5.0162-.7166.3583-1.7915 0-3.583-1.0729l-11.1074-8.9596-36.549 46.2231 18.9921 30.4578 22.5751-17.2006c1.4312-1.4332 2.1458-1.4332 2.5061-1.4332.3583.3583.7166 1.073.7166 1.7915v41.209c0 .3582-.7166 1.4331-1.7915 2.51l-.7166.7147c-2.1498 2.1498-19.3524 15.7693-27.233 21.4981-1.7915 1.077-3.2248 1.7936-4.2997 1.4373-1.7915-.3603-2.8664-3.2268-3.9413-5.0203l-1.077-2.1458-29.0245-44.794-37.6259 48.375c-.7166.7146-1.7915 1.7895-3.2247 1.7895-1.7915 0-3.9413-1.0729-6.0932-3.2247 0 0-21.1398-20.4253-22.2147-21.4982v-38.3404c0-3.2268 1.0728-4.66 1.7915-5.0203 1.077-.3563 2.5101.3603 4.3016 1.7935l18.6338 16.8423 26.1582-31.891-7.1661-11.826s-18.992 14.6924-21.1419 16.1256c-2.1498-1.4332-68.0836-41.5671-68.442-41.5671v-1.4333l7.8827-7.166v-27.5893l-1.0729-.7167c-5.3765-3.583-9.6762-6.0931-17.2026-7.8826-12.9009-3.2247-28.308-3.9413-39.059-2.1498-19.3524 3.2247-35.1178 12.5426-42.2879 17.2005-7.166 4.3017-9.3118 3.583-10.0304 3.2268-1.073-.7166-1.4332-4.2997.7166-11.1074 2.506-7.8827 10.749-18.992 21.4982-28.308 10.749-9.3158 25.7998-16.8422 42.2838-20.7836 6.4494-1.4332 26.8747-3.583 38.3404.7166l1.077.3583 2.51-.3562-.002-.004z" fill="#C4CED4"/><path d="M390.0855 456.5283h-2.8665v7.8826h-2.1498v-7.8826h-2.8664v-1.7916h7.8806v1.7895l.002.002zm13.2592 7.8826h-2.1518v-7.8826l-2.8665 7.8826h-1.7915l-2.8684-7.8826v7.8826h-2.1498v-9.6762h3.583l2.1518 6.4515 2.5102-6.4495h3.583v9.6742zM389.7272 336.4866v-29.3808l-18.2755-16.486-50.883 63.0674-7.1661-11.4637c6.0931-4.6559 14.332-10.749 15.0507-11.1074 1.4332-.7166 5.0163-2.8664 6.8078-2.8664s-2.5102-7.5243-14.6925-7.5243v-64.5006l6.8078-7.8827s-8.5993 1.4332-12.5427 0c-.7186-.3583-2.1518-1.0729-3.9433-1.7915 2.1498-3.583 4.2996-7.8827 5.7328-12.5427 8.239-26.1601 2.8665-50.5267-16.8422-65.5775-13.9759-10.3908-70.9521-39.4174-70.9521-39.4174s-34.397-16.8422-38.3404-20.7836c-2.5102-2.5101-8.239-6.8077-8.239-19.7086 0-7.8827 8.5973-16.484 12.5406-18.2755 6.0891-2.8664 7.8807-4.2997 20.065-4.2997 6.8077 0 13.2592 1.4333 13.9758 1.7916 7.5244.7166 25.4416 6.8077 34.3991 18.992 3.583 3.583 4.2976 13.9759 4.2976 13.9759l14.3322 9.3118 31.1743-40.8506-16.1236-11.4637c-4.656 5.0163-13.9758 5.3746-17.5589 3.583-3.583-1.7914-35.1157-13.2592-39.7777-14.6924-8.585-2.8704-26.8646-4.66-36.5367-3.2267-10.0305 1.4332-26.1541 4.6559-39.057 17.9151-14.6925 15.7694-15.0508 28.31-15.0508 35.1178 0 10.749 2.8684 24.7249 14.6965 36.551 17.1985 17.1985 43.3566 27.9475 49.0895 31.1743 10.3908 5.7288 43.3607 22.9314 48.0166 25.7978 20.067 11.826 27.9497 24.3666 25.7999 40.134 0 .7166-.3583 1.4332-.3583 2.1498-8.9576-5.3745-21.142-12.901-26.1582-17.9151 0 0-2.8664 3.2227-5.0162 5.0142l-14.6925 11.1053c1.7915-7.166 1.7915-19.3524 1.7915-20.4252-.3583-1.4333-1.4332-13.2593-11.822-20.4253-6.8097-5.0163-22.577-14.3322-35.8363-20.7836-5.7328-2.8644-24.3646-13.9739-33.3242-21.4982 0 0-15.409-14.3321-17.9151-23.2917-4.66-10.0325-4.66-34.0408-2.5102-36.1947 0 0-5.7328 6.4515-10.0325 19.7107-2.1498 6.4515-3.2247 14.6965-3.2247 20.4253 0 9.6762 1.7935 26.1602 12.1864 40.4943 4.6559 6.0932 11.822 13.2592 19.3524 18.2755 9.3118 6.0932 18.6317 9.6762 19.3483 10.3908 2.5102 1.7915 26.8748 12.1863 29.0246 13.2592 2.1498 1.0729 13.2592 6.0932 15.7694 7.5244 8.239 4.2996 12.5406 7.166 15.405 14.332l-25.0812 18.6359s1.0728 2.1498 1.0728 5.0162v2.5102c-3.583-1.077-7.166-1.7936-10.3887-2.5102-16.484-2.8664-26.5185-2.5101-39.7777.7166-14.3321 3.583-29.7371 9.316-44.0733 23.65-16.1257 16.1257-16.1257 26.8748-16.1257 26.8748l16.1257-9.6762c13.6175-7.5244 31.1744-12.1864 43.717-12.1864 30.1015 0 45.5065 8.6034 49.8082 13.6196v29.0246c0 5.7328-1.7916 6.4494-2.8665 7.5243-.3583.3583-1.0728.3583-2.5101 1.7916 0 0 2.1518.7166 2.8684 1.4332 1.4333 1.0728 58.7658 35.474 58.7658 35.474l22.2168-16.1257 11.1054 17.5589-30.4578 37.6259-20.7836-18.9921v35.474l24.0083 21.8585 42.2838-53.0329 34.7574 55.1827 27.9517-22.2168v-35.1157l-22.2168 16.8423-22.5751-36.1947 41.2109-51.5997 12.1823 11.1135-.0101.006zm-142.6168-79.191l12.901-9.6762c3.583 2.8664 7.8826 5.7329 11.822 7.8827l-.3563.3583s-15.0488 12.901-24.3646 14.3321v-12.899l-.002.0021zm22.9355 83.4907l-22.9355-13.9759v-34.401c9.6762-1.7896 32.966-12.899 45.1503-24.723v41.2089l-13.9759-22.2168-21.4982 15.0487v27.233l11.822-7.8826 8.9576 13.9758-7.5244 5.7288.004.004z" fill="#000"/></g></svg>