<svg width="500" height="500" viewBox="0 0 500 500" xmlns="http://www.w3.org/2000/svg"><title>chicago-cubs</title><g fill-rule="nonzero" fill="none"><path d="M34.6079 249.6079c0-118.7363 96.2526-215 214.9687-215 118.7602 0 215.0129 96.2637 215.0129 215 0 118.7381-96.2527 215-215.011 215-118.7161 0-214.9706-96.2637-214.9706-215z" fill="#FFF"/><path d="M48.4703 248.7629c0-111.0282 90.0118-201.0603 201.051-201.0603 111.0282 0 201.0695 90.032 201.0695 201.0603 0 111.0282-90.0413 201.0805-201.0694 201.0805-111.0393 0-201.0511-90.0523-201.0511-201.0805zm201.051 148.5432c82.0074 0 148.5046-66.5138 148.5046-148.5432 0-82.0092-66.4954-148.5064-148.5064-148.5064-82.0202 0-148.5101 66.4954-148.5101 148.5064.0037 82.0294 66.4899 148.5432 148.5101 148.5432h.0019z" fill="#0E3386"/><path d="M314.9048 290.7588c-13.831 21.473-37.9366 35.709-65.3834 35.709-42.9128 0-77.6738-34.783-77.6738-77.703 0-42.865 34.761-77.6848 77.6738-77.6848 28.2734 0 53.038 15.14 66.6426 37.7506l38.233-37.2978c-23.741-32.167-61.8561-53.0104-104.8756-53.0104-71.9134 0-130.2405 58.3584-130.2405 130.2405 0 71.9207 58.3271 130.2183 130.2405 130.2183 42.5666 0 80.3467-20.3886 104.0988-51.926l-38.7154-36.2982v.0018z" fill="#CC3433"/><path d="M226.5351 261.6809V214.451h23.3986v47.7986c0 17.1651-4.05 21.1766-17.6677 21.1766h-24.3319c-11.2188 0-14.8436-7.257-14.8436-22.4358v-46.5394h23.3856v47.228c0 6.4304 10.059 6.4304 10.059 0v.0018zm31.8726 21.7454V214.451h36.9351c13.9103 0 19.8787 3.2659 19.8787 19.4092 0 8.474-1.6127 12.8775-6.4581 15.3168 6.458 3.6156 6.458 10.4787 6.458 16.5318 0 15.2984-6.7655 17.7174-19.8786 17.7174h-36.9351z" fill="#CC3433"/><path d="M292.9238 233.2473c-.081-2.8112-2.7338-2.6142-9.9504-2.6142v9.6743c4.0317 0 9.9522.4123 9.9522-3.2254v-3.8347h-.0018zm-.1694 28.0985c-1.2279-3.3045-1.9146-2.9087-9.781-2.9087v9.6724c5.035 0 9.7829.4124 9.7829-3.2217 0-.8873.2393-2.8535 0-3.542h-.0019z" fill="#FFF"/><path d="M361.886 283.4263c12.5922 0 19.113-3.4205 19.113-14.551 0-1.3567-.07-14.0575-.07-15.4345.07-8.0819-5.7402-13.3323-13.8625-13.3323h-16.8484c-4.573 0-3.5494-6.6642-3.5494-8.6709 0-3.2217 9.5251-4.2268 9.5251 1.0236v3.2033h24.8051c0-16.101-2.94-21.2134-19.1128-21.2134-3.7372.0607-17.5075.0607-21.797.0607-10.359 0-16.0218 4.0502-16.4158 16.1232-.3755 12.095 0 6.8446 0 11.3071 0 4.4054-.6811 14.295 12.8867 14.295h17.1136c4.8472 0 3.8844 5.6426 3.8844 5.6426v3.5972c0 4.0686-8.1794 4.2471-10.0259.9021-1.2205-2.2-.5707-5.6996-.5707-5.6996h-23.288c0 4.7975-2.618 22.7487 11.4415 22.7487h26.7675l.0037-.0018z" fill="#CC3433"/><path d="M355.9287 295.6374h-3.9801v10.891h-2.7062v-10.8929h-3.971v-2.362h10.6592v2.3602l-.0019.0037zm18.1188 10.891h-2.7118v-10.5173h-.0515l-3.8329 10.5174h-2.6142l-3.6892-10.5174h-.0995v10.5174h-2.673v-13.2513h4.6613l3.0873 8.6894h.0552l3.218-8.6894h4.6484v13.2513h.0019z" fill="#0E3386"/></g></svg>