<svg width="500" height="500" viewBox="0 0 500 500" xmlns="http://www.w3.org/2000/svg"><title>cincinnati-reds</title><g fill-rule="nonzero" fill="none"><path d="M276.1953 397.3178c119.7479 0 188.3133-78.1196 188.3133-149.1338 0-84.9643-94.7607-144.7181-196.1429-144.7181-81.2925 0-137.614 47.9918-168.4816 84.4824-42.1122 50.1997-65.3755 56.5626-65.3755 56.5626 32.575 28.661 47.9919 43.0956 63.1847 59.5128 42.5955 46.0263 77.8603 93.294 178.502 93.294" fill="#C6011F"/><path d="M274.0044 377.2442c-86.9312 0-121.2139-37.2315-161.3763-80.0849C96.211 279.536 85.6917 263.86 58.9963 244.029l5.3809 12.7258c25.7119 21.0568 36.248 36.2496 52.9062 53.8728 40.4047 42.6125 73.9462 76.1542 160.8774 76.1542 76.1527 0 135.1653-37.6981 162.843-83.9824l-4.1564-9.795c-27.6776 46.5265-86.689 84.24-162.843 84.24" fill="#000"/><path d="M276.1953 159.5465c-84.9657 0-118.265 56.3216-118.265 83.499 0 15.676 4.6553 29.3852 12.2438 41.1458-5.1397-9.5528-6.3641-24.0044-6.3641-33.3163 0-27.1787 32.0762-81.5334 115.3342-81.5334 49.9575 0 87.6554 23.021 100.3988 43.0943h62.9267c-1.2244-2.2078-3.9147-9.795-3.9147-9.795h-60.2364c-12.4855-20.0734-52.166-43.0944-102.1233-43.0944" fill="#000"/><path d="M112.6281 297.1593c40.1624 42.8534 74.4451 80.085 161.3763 80.085 76.154 0 135.1654-37.7135 162.843-83.999h-59.5116c-27.9198 21.0554-61.9603 38.1967-105.297 38.1967-39.9213 0-81.7926-16.6411-101.8647-47.2507-7.8465-11.7606-12.2438-25.4698-12.2438-41.1458 0-27.1774 33.2993-83.499 118.5229-83.499 49.9418 0 89.6216 23.021 102.107 43.0944h59.9948c-27.9192-55.0973-99.9162-88.1556-171.8969-88.1556-70.772 0-124.6448 40.8879-155.7545 77.6194-41.1289 48.492-51.9073 51.9242-51.9073 51.9242C85.6917 263.86 96.211 279.536 112.628 297.1593" fill="#FFF"/><path fill="#000" d="M311.7024 237.4068h-13.4682v-6.3642h-19.8324v12.9863h6.622v-6.3641h12.968l6.8645 6.3641h13.4682v-17.6415l-6.6221-6.6052zM256.122 279.2938l6.3628 6.6051h55.8397v-17.3823l-6.6221-6.6221v17.3993z"/><path fill="#000" d="M278.4018 255.2893v12.985h6.622v-6.3798h16.4003v-11.2617l-6.6052-6.6039v11.2604zM256.122 231.0426l6.3628 6.6222h2.4487v-6.6222zM179.727 231.0426l6.605 6.6222h2.2079v-6.6222zM179.727 279.2938l6.605 6.6051h31.0929v-11.0194l-6.6052-6.6052v11.0195zM227.4779 252.3574l7.0883 15.917h3.6732l-4.1564-9.312 10.036-8.3296v-12.968l-6.6038-6.6222v12.9863zM202.0081 255.2893v12.985h6.6038v-6.622h8.813l-2.932-6.363zM241.9125 279.2938h-16.8834l6.3642 6.6051h17.1414v-11.0194l-6.6222-6.6052zM224.047 237.6648v-3.6732l-3.4322-2.949h-18.6067V244.27h6.6038v-6.6051z"/><path fill="#FFF" d="M278.4018 231.0426h19.8324v6.3642h13.4682v-17.6246h-55.5805v11.2604h8.8116v37.2317h-8.8116v11.0195h55.5805v-17.3993h-13.4682v6.3798h-19.8324v-12.985h16.4171V244.029h-16.4171zM241.9125 268.2743h-7.3463l-6.846-16.1749 9.795-8.0705v-12.9863l-13.4682-11.2604h-44.32v11.2604h8.8129v37.2317h-8.813v11.0195h31.0928v-11.0195h-9.0539v-12.985h12.727l2.932 6.6052 7.6043 17.6415h16.8834v-11.2617zM208.612 244.27h-6.6038v-12.985h18.6067l3.4322 2.949v7.5872l-3.1912 2.6898h-12.2439v-.241z"/><path fill="#000" d="M325.9117 231.0426l6.363 6.6222h2.4487v-6.6222zM368.024 237.6648v-3.6732l-3.4152-2.949h-16.6582v37.2317h6.6052v-30.6095z"/><path fill="#000" d="M381.2506 268.2743l-13.2266 11.0195h-42.1123l6.363 6.6051h37.9564l17.641-14.4516v-33.7825l-6.6215-6.6222zM425.3284 255.2893h-16.8998l-13.2103-11.2604 21.0562 17.8656h12.4854v-3.6732zM448.5916 261.8945l-6.6051-6.6052v12.727l-13.2266 11.5197h-16.8997l-3.4316-3.1912v3.1912h-13.2103l6.3636 6.6039H415.05v-3.173l3.4315 2.932h12.9687l17.1413-14.2094zM428.7599 237.4068v-3.4152l-3.4315-2.949h-13.2266l-3.4152 2.949v7.3463l3.4152 2.691h3.1899v-3.4322l3.4315-2.932h9.795l6.8468 6.3642h13.2266v-17.6415l-6.6051-6.6052v17.6246zM411.6185 268.2743h3.6732l-6.863-6.3798v3.6731z"/><path d="M381.2506 268.2743v-37.2317l-13.4682-11.2604h-41.8707v11.2604h8.8117v37.2317h-8.8117v11.0195h42.1123l13.2266-11.0195zm-26.6948 0h-6.6052v-37.2317h16.6582l3.4152 2.949v31.576l-3.1736 2.7067h-10.2946zM408.4286 276.3448l3.4316 3.1912h16.8997l13.2266-11.5196v-12.727l-13.4682-11.2605h-16.4165l-3.4152-2.691v-7.3463l3.4152-2.949h13.2266l3.4315 2.949v3.4152h13.2266v-17.6246h-13.2266v2.932l-3.4315-2.932h-16.6418l-13.4683 11.2604v12.9863l13.2103 11.2604h16.8998l3.4315 2.932v7.3463l-3.19 2.7067h-13.9514l-3.1899-2.7067v-3.6731h-13.2103v17.6415h13.2103z" fill="#FFF"/></g></svg>