<svg width="500" height="500" viewBox="0 0 500 500" xmlns="http://www.w3.org/2000/svg"><title>cleveland-indians</title><path d="M382.921 186.3803V34.3748h-71.6857v16.5199l-16.504-16.5199H151.6476l-71.6834 71.6834v286.6332l71.6834 71.6834H311.233l71.688-71.6811v-80.3518h-71.6857v50.7005l-29.6513 29.6513H181.3468l-29.6993-29.6513V135.803l29.7015-29.7449h100.2372l29.649 29.7472v50.5749h71.6858zm6.4254 246.114h-6.284v17.2134h-4.2098V432.492h-6.2976v-3.6462h16.7936v3.644l-.0022.0045zm28.426 17.2134h-4.1939v-16.5883h-.0913L407.5 449.7077h-4.1756l-5.8116-16.5883h-.0821v16.5883h-4.2555V428.848h7.3632l4.8214 13.5718h.0912l5.029-13.5718h7.288v20.8597h.0045z" fill="#E31937" fill-rule="nonzero"/></svg>