<svg width="500" height="500" viewBox="0 0 500 500" xmlns="http://www.w3.org/2000/svg"><title>colorado-rockies</title><g fill-rule="nonzero" fill="none"><path d="M135.5414 61.2193S64.4461 89.0869 64.378 179.68c-.0917 92.8137 68.5411 110.345 68.5411 110.345S97.5888 245.66 97.69 174.4472c.1339-76.6735 37.8515-113.228 37.8515-113.228" fill="#33006F"/><path d="M377.2847 433.6795c-14.7092-14.4484-41.536-90.403-63.7078-95.3937 8.1253-4.0885 59.2668-16.0062 59.5018-71.3044-.235-59.779-55.599-79.1454-110.9653-79.1454-11.7767 0-33.2273.8717-55.0303 2.1617-27.6749 1.734-41.8695 3.024-62.9535 4.7582v20.3367c29.7427 0 35.9741 6.9106 35.9741 39.3578v38.681c-40.9837-8.6517-67.8785-54.2502-67.8785-118.3363 0-67.855 31.8786-115.5707 78.4405-115.5707 17.5218 0 32.9265 7.0115 45.1897 19.7 12.2702 12.6908 21.0158 31.0843 24.8764 53.4043h16.4504L274.05 40.8285h-12.9728c-1.398 4.3798-3.1415 6.1398-6.316 6.1398-8.7433 0-29.3996-13.142-66.8823-13.142-40.6148 0-75.2989 14.8925-99.4563 41.16-24.517 26.695-38.5377 63.038-38.5377 106.8109 0 30.2032 8.7527 64.354 28.73 91.4908 19.9514 27.1463 52.1895 46.8463 99.1039 46.8463.8036 0 1.5743-.0658 2.3873-.0823v85.3604c0 31.5684-6.92 38.0607-35.9741 38.0607v20.3368H275.267V443.473c-27.0052 0-37.0314-3.8958-37.0314-35.899v-57.9627h18.3348s67.5942 114.215 69.4364 114.215c4.784-.0165 80.7197-.0494 80.7197-.0494v-20.2287c0-.0024-15.252 2.5024-29.442-9.8688zM64.3757 179.6778c.068-90.5956 71.161-118.4609 71.161-118.4609S97.8214 97.7691 97.6946 174.4496c-.1105 71.2034 35.2198 115.5801 35.2198 115.5801s-68.6234-17.5382-68.5388-110.352zm159.771 263.7248h-29.8765V211.5822l29.8766-2.0701v233.8905zm131.2927-175.2487c.1504 45.5398-55.5567 57.0064-55.5567 57.0064s20.5788-12.397 20.5882-56.4965c.0235-44.5271-19.6835-57.1169-19.6835-57.1169s54.504 4.918 54.652 56.607zm-117.2037 60.256v-14.2815c1.3064-.0494 2.648-.1269 3.9287-.1269 4.22 0 8.0571 0 11.2058.8788 3.501.4347 7.0186 1.3064 10.1601 2.6223l1.0644-3.0664c10.1438-29.7591 18.5534-62.157 21.3495-87.118h-16.4574c-8.3673 22.4304-18.8212 39.2261-31.2511 50.4413v-69.1591h16.9531c33.554 0 51.2191 22.4891 51.2191 56.654 0 44.56-17.9824 64.0179-68.1722 63.1556zm89.3878 115.1196s-38.4977-68.8325-56.1864-93.4928c0 0 12.9892-2.0513 19.324-3.877 5.778-1.6425 9.984-3.3084 9.984-3.3084 15.0946 7.5966 36.6532 41.2939 48.1785 68.842 12.4136 24.8599 21.3002 31.9372 21.3002 31.9372l-42.6003-.101z" fill="#C4CED4"/><path d="M194.2725 443.4073h29.8743v-233.9l-29.8743 2.0702v231.8298zm126.2031-174.7482c-.0164 44.0994-20.5882 56.5035-20.5882 56.5035s55.7-11.476 55.5567-57.0158c-.1598-51.689-54.6614-56.6046-54.6614-56.6046s19.7164 12.5992 19.693 57.1169zm28.448 143.0341c-11.5253-27.5574-33.0863-61.2453-48.1785-68.842 0 0-4.2036 1.659-9.984 3.3085-6.3324 1.8257-19.324 3.877-19.324 3.877 17.691 24.658 56.1864 93.4928 56.1864 93.4928l42.6003.101s-8.8866-7.0773-21.3002-31.9373z" fill="#33006F"/><path d="M443.8004 448.2947l-3.7525 10.1437h-.0846l-3.6092-10.1437h-5.496v15.5293h3.184v-12.3548h.0657l4.347 12.3548h3.0593l4.4974-12.3548h.0751v12.3548h3.1651v-15.5293h-5.4513zm-28.3094 2.7633h4.6807v12.766h3.165v-12.766h4.676v-2.7633H415.491v2.7633z" fill="#C4CED4"/></g></svg>