<svg width="500" height="500" viewBox="0 0 500 500" xmlns="http://www.w3.org/2000/svg"><title>detroit-tigers</title><g fill="none" fill-rule="evenodd"><path d="M377.9843 323.6006V152.3018c1.0665-14.6261 4.7158-19.3274 15.3499-29.2541-23.7058-8.8747-50.856-36.549-65.4822-65.8014-73.109 37.6065-154.5886 37.6065-216.1857-16.7084-6.1196-5.3995-13.0463-8.1383-8.3487 2.0804 17.3867 37.7933 53.5041 61.3087 94.1142 71.747-23.3703 20.2669-37.1476 32.2032-40.2147 57.8534-19.9967 1.4891-41.3845 16.1153-48.159 29.6913-7.7157 15.4623 3.7165 15.7688 11.4739 10.4436 9.9267-6.7907 23.9997-9.4007 36.0267-8.8802l-.0254 19.4054c-19.9822 1.4891-39.6597 16.1153-46.4322 29.6913-7.7176 15.4587 3.7145 15.7616 11.4647 10.4473 9.9358-6.7944 22.964-10.4473 34.993-9.9268v58.4938c0 22.9822-11.483 34.4633-18.2882 40.7352-6.769 6.2684-3.0363 12.8106 6.807 8.8748 20.646-8.2635 42.0974-27.8467 46.9837-57.6703 7.8989 1.0175 17.374 1.101 24.0413.0417l-.009 8.0186c0 22.9822-11.4902 34.4633-18.2773 40.7352-.107.0998-.1741.2032-.2775.3011-21.97 1.9154-41.6258 9.33-57.2785 21.504-35.6259 27.8049-41.1035 80.0394-35.6259 91.5876.3355.749 20.0674-64.5554 78.6646-71.4984 33.95-4.0012 75.6301 6.1522 111.1345 36.9698 21.9302-36.569 59.0288-57.4472 102.3704-64.8292-14.6334-16.6376-18.2827-23.947-18.8196-42.754zm-46.9927-192.1987v51.3185c-23.4356 7.0664-57.244 6.8107-78.3344-.7527v-6.6874c0-18.1756 1.5217-41.1977 16.4689-55.7187 14.2743-1.5235 28.1441-4.5144 40.971-9.0416l20.8945 20.8819zm-78.3344 68.3297c21.0904 7.5562 54.8988 7.8155 78.3344.7473v49.8712c-23.4356-7.0665-57.244-6.8107-78.3344.7527v-51.3712zm-1.393-79.0509c-11.0095 9.6075-20.4193 18.5403-26.742 28.9186-8.3706-2.7768-16.0537-4.4183-23.5191-4.8318 4.8246-9.6982 11.735-18.7561 20.0547-25.7645a206.6686 206.6686 0 0 0 30.2064 1.6777zm-58.1637 168.034V175.2803c0-4.9896.7908-10.2785 2.2219-15.6273 8.2544-.9395 16.5252-.0907 23.5843 2.4286-1.6632 5.3125-2.7224 10.9968-2.6898 17.452l-.0997 108.5282c-5.8911 1.2714-14.9454 1.4201-23.0167.653zm89.8446 81.8804c-22.6774-11.2127-45.023-17.0294-65.8884-18.2229 18.7307-12.591 35.6005-34.7897 35.6005-64.2869v-19.215c21.0904-7.5706 54.8988-7.8281 78.3344-.7563v74.2916c-14.6261 4.1753-32.3756 14.6153-48.0465 28.1895z" stroke="#FFF" stroke-width="19.73376"/><path d="M377.9843 323.6006V152.3018c1.0665-14.6261 4.7158-19.3274 15.3499-29.2541-23.7058-8.8747-50.856-36.549-65.4822-65.8014-73.109 37.6065-154.5886 37.6065-216.1857-16.7084-6.1196-5.3995-13.0463-8.1383-8.3487 2.0804 17.3867 37.7933 53.5041 61.3087 94.1142 71.747-23.3703 20.2669-37.1476 32.2032-40.2147 57.8534-19.9967 1.4891-41.3845 16.1153-48.159 29.6913-7.7157 15.4623 3.7165 15.7688 11.4739 10.4436 9.9267-6.7907 23.9997-9.4007 36.0267-8.8802l-.0254 19.4054c-19.9822 1.4891-39.6597 16.1153-46.4322 29.6913-7.7176 15.4587 3.7145 15.7616 11.4647 10.4473 9.9358-6.7944 22.964-10.4473 34.993-9.9268v58.4938c0 22.9822-11.483 34.4633-18.2882 40.7352-6.769 6.2684-3.0363 12.8106 6.807 8.8748 20.646-8.2635 42.0974-27.8467 46.9837-57.6703 7.8989 1.0175 17.374 1.101 24.0413.0417l-.009 8.0186c0 22.9822-11.4902 34.4633-18.2773 40.7352-.107.0998-.1741.2032-.2775.3011-21.97 1.9154-41.6258 9.33-57.2785 21.504-35.6259 27.8049-41.1035 80.0394-35.6259 91.5876.3355.749 20.0674-64.5554 78.6646-71.4984 33.95-4.0012 75.6301 6.1522 111.1345 36.9698 21.9302-36.569 59.0288-57.4472 102.3704-64.8292-14.6334-16.6376-18.2827-23.947-18.8196-42.754zm-46.9927-192.1987v51.3185c-23.4356 7.0664-57.244 6.8107-78.3344-.7527v-6.6874c0-18.1756 1.5217-41.1977 16.4689-55.7187 14.2743-1.5235 28.1441-4.5144 40.971-9.0416l20.8945 20.8819zm-78.3344 68.3297c21.0904 7.5562 54.8988 7.8155 78.3344.7473v49.8712c-23.4356-7.0665-57.244-6.8107-78.3344.7527v-51.3712zm-1.393-79.0509c-11.0095 9.6075-20.4193 18.5403-26.742 28.9186-8.3706-2.7768-16.0537-4.4183-23.5191-4.8318 4.8246-9.6982 11.735-18.7561 20.0547-25.7645a206.6686 206.6686 0 0 0 30.2064 1.6777zm-58.1637 168.034V175.2803c0-4.9896.7908-10.2785 2.2219-15.6273 8.2544-.9395 16.5252-.0907 23.5843 2.4286-1.6632 5.3125-2.7224 10.9968-2.6898 17.452l-.0997 108.5282c-5.8911 1.2714-14.9454 1.4201-23.0167.653zm89.8446 81.8804c-22.6774-11.2127-45.023-17.0294-65.8884-18.2229 18.7307-12.591 35.6005-34.7897 35.6005-64.2869v-19.215c21.0904-7.5706 54.8988-7.8281 78.3344-.7563v74.2916c-14.6261 4.1753-32.3756 14.6153-48.0465 28.1895z" fill="#182D55" fill-rule="nonzero"/></g></svg>