<svg width="500" height="500" viewBox="0 0 500 500" xmlns="http://www.w3.org/2000/svg"><title>san-francisco-giants</title><g fill="#FD5A1E" fill-rule="nonzero"><path d="M225.5962 226.2331v43.2895s55.0188 3.5446 71.8646-6.6563c-3.0152 9.561-2.0646 40.8313 0 46.04-21.2903-10.9214-71.8646-6.569-71.8646-6.569v43.5612h81.5132l17.3613-20.1924v-74.6427l-20.1187-23.3526c-11.9594-1.3235-54.715-1.4777-78.7512-1.4777h-.0046zM99.4816 71.3915c16.924-8.0627 34.939-25.1249 41.3285-36.5964 16.3141 7.706 166.3039 6.569 183.6445 0 10.4588 15.2876 21.6977 23.836 37.54 29.0124-1.4822 14.6708-1.0265 19.8633 3.7563 31.6248h-41.2963L307.114 76.0707H160.038L140.7733 93.027v77.9963l19.205 18.5928 24.317 1.0127c0-28.9595.2992-34.4972-21.0095-40.157 7.0937-14.2058 8.5207-15.8722 10.3873-33.588 18.2407 6.1223 206.7118 2.785 214.9057-1.9105-1.312 18.4593 9.1145 53.525 16.123 66.61h-41.3031c-2.0992-14.3578-11.163-25.4517-25.583-28.1493H225.5962v37.1948s87.318 2.3753 98.8561-1.579c5.738 14.9079 26.3862 36.769 41.2963 42.8224-5.006 30.4232-4.0739 82.4499 0 114.0079-16.245 8.065-32.833 24.6277-41.2917 41.3285-20.5376-5.6574-98.8607-2.8724-98.8607-2.8724v23.3733c4.0417 15.9436 12.6085 19.7804 27.6383 21.0878 0 0-12.0722 22.7035-12.5625 35.9979H170.108c-.3108-12.9676-12.5809-35.998-12.5809-35.998 13.5683-.6352 24.7037-8.6496 26.7683-21.0831v-23.3756s-24.7658-.9276-43.4875 2.8724c-5.6644-12.7097-26.3195-35.4777-41.3262-41.3285 3.4662-9.1307 1.8574-66.1611-3.1994-78.1827h44.5279l-.0345 58.011L158.13 345.903h26.1698V226.247s-22.9061-1.1347-43.4852.4327c-5.9153-11.5083-23.5828-30.0458-41.3308-38.799 5.547-21.067 6.0303-96.6005 0-116.4868l-.0023-.0023z"/><path d="M270.9434 447.4752h-5.013v13.6373h-3.388v-13.6373h-4.9877v-2.9922h13.391v2.9922h-.0023zm22.7266 13.6373h-3.3904V447.901h-.1035l-4.7806 13.2115h-3.2867l-4.6494-13.2115h-.1059v13.2115h-3.3604V444.483h5.8738l3.8438 10.8523h.0852l4.0279-10.8523h5.8416v16.6295h.0046z"/></g></svg>