<svg width="500" height="500" viewBox="0 0 500 500" xmlns="http://www.w3.org/2000/svg" xmlns:xlink="http://www.w3.org/1999/xlink"><title>houston-astros</title><defs><path id="a" d="M0 0h348.6658v349.3643H0z"/><path id="c" d="M0 0h348.6658v349.3643H0z"/><path id="e" d="M0 0h348.6658v349.3643H0z"/><path id="g" d="M0 0h348.6658v349.3643H0z"/><path id="i" d="M0 0h348.6658v349.3643H0z"/><path id="k" d="M0 0h348.6658v349.3643H0z"/><path id="m" d="M0 0h348.6658v349.3643H0z"/><path id="o" d="M0 0h348.6658v349.3643H0z"/><path id="q" d="M0 0h348.6658v349.3643H0z"/><path id="s" d="M0 0h348.6658v349.3643H0z"/><path id="u" d="M0 0h348.6658v349.3643H0z"/><path id="w" d="M0 0h348.6658v349.3643H0z"/><path id="y" d="M0 0h348.6658v349.3643H0z"/></defs><g fill="none" fill-rule="evenodd"><g transform="matrix(1.2308 0 0 1.2308 34.6088 34.6088)"><mask id="b" fill="#fff"><use xlink:href="#a"/></mask><path d="M334.3517 174.683c0-9.6774-.857-19.1454-2.5188-28.3381 1.6603 9.1927 2.5188 18.6771 2.5188 28.3545v-.018.0015z" fill="#FFF" fill-rule="nonzero" mask="url(#b)"/></g><g transform="matrix(1.2308 0 0 1.2308 34.6088 34.6088)"><mask id="d" fill="#fff"><use xlink:href="#c"/></mask><path d="M174.327 14.6506C85.9533 14.6506 14.314 86.299 14.314 174.701c0 88.3675 71.6393 160.0277 160.0128 160.0277 88.3705 0 160.0278-71.6602 160.0278-160.0277 0-9.6774-.8585-19.1633-2.5203-28.356-13.3688-74.8581-78.7979-131.6943-157.506-131.6943" fill="#002D62" fill-rule="nonzero" mask="url(#d)"/></g><g transform="matrix(1.2308 0 0 1.2308 34.6088 34.6088)"><mask id="f" fill="#fff"><use xlink:href="#e"/></mask><path d="M174.327 0C78.0514 0 0 78.2115 0 174.7009c0 96.437 78.05 174.6634 174.327 174.6634 96.2888 0 174.3388-78.2265 174.3388-174.665C348.6658 78.2116 270.6158 0 174.327 0m0 341.2949c-92.0096 0-166.6329-74.5844-166.6329-166.594 0-92.047 74.6248-166.6464 166.633-166.6464 92.02 0 166.6388 74.5993 166.6388 166.6434 0 92.0096-74.6188 166.594-166.6389 166.594" fill="#002D62" fill-rule="nonzero" mask="url(#f)"/></g><g transform="matrix(1.2308 0 0 1.2308 34.6088 34.6088)"><mask id="h" fill="#fff"><use xlink:href="#g"/></mask><path d="M174.327 8.056C82.3023 8.056 7.703 82.6553 7.703 174.683c0 92.0275 74.5994 166.6089 166.624 166.6089 92.02 0 166.6209-74.5814 166.6209-166.609S266.347 8.056 174.3269 8.056m160.0278 166.627v.015c0 88.3675-71.6558 160.0322-160.0248 160.0322-88.3765 0-160.0233-71.6602-160.0233-160.0457 0-88.3855 71.6453-160.0338 160.0203-160.0338 78.7111 0 144.1402 56.8376 157.5075 131.6943 1.6603 9.1942 2.5173 18.6622 2.5173 28.338" fill="#EB6E1F" fill-rule="nonzero" mask="url(#h)"/></g><g transform="matrix(1.2308 0 0 1.2308 34.6088 34.6088)"><mask id="j" fill="#fff"><use xlink:href="#i"/></mask><path d="M231.8077 275.9197l-10.1665 5.1183-1.756 5.407 11.568 22.9445 5.3906 1.75 10.1665-5.1183 1.765-5.3742-11.577-22.9474-5.3921-1.78h.0015zm10.7513 26.3008l-6.1534 3.0962-1.1159-.368-9.5726-18.9359.3694-1.1367 6.1624-3.1141 1.1218.368 9.5727 18.9657-.3844 1.1248zm-98.7344-5.1662l3.9711.6401 1.8458-3.7064 3.2726.546-3.5374 22.738-2.3932.703-.664 4.173 9.8523 1.5407.6402-4.188-2.0761-1.3612 3.53-22.7889 3.2756.4981.6326 4.0594 4.0086.6432 1.415-9.2287-22.3432-3.464-1.43 9.1957zm-32.019-19.1603l-5.1857 10.3325 1.7799 5.3936 7.9872 3.9637.3664 1.1547-3.1605 6.306-1.1322.3679-6.8355-3.4327.3051-3.3205-3.6346-1.8472-3.8335 7.655 13.5572 6.8206 5.3906-1.7979 5.1827-10.3504-1.7889-5.3592-7.9722-4.0115-.374-1.1218 3.171-6.3389 1.1218-.353 6.8445 3.4178-.3201 3.3384 3.6256 1.8308 3.835-7.6387-13.5811-6.7906-5.3487 1.7814zm158.0893-14.2647l-6.3628 6.2895h-1.1966l-4.9658-5.0556.015-1.2025 5.4653-5.3442 3.0393 1.3805 2.9062-2.8718-5.9979-6.0652-10.7991 10.6242-.0374 5.6957 8.1024 8.2175 5.6807.0494 6.3539-6.2432h1.1711l4.9778 5.0062v1.1876l-5.449 5.3757-3.0557-1.3641-2.9137 2.8419 5.986 6.095 10.814-10.6525.0404-5.6957-8.1113-8.1817-5.6628-.0867zm-64.1876 51.9585l-3.9876-8.3132 2.8-3.883-1.7874-11.4273-4.5725-3.3205-17.2412 2.7282.6581 4.188 2.4081.688 3.6107 22.8518-2.079 1.397.6656 4.188 9.8209-1.5705-.6492-4.173-2.3991-.6731-1.3865-8.762 4.861-.7538 3.8202 7.9572-1.735 1.204.673 4.1702 9.83-1.5556-.6582-4.173-2.6504-.7704-.0015.003zm-7.5505-12.597l-7.4457 1.1398-1.364-8.6154 7.4307-1.1727.9543.706 1.1068 6.9806-.682.9632v-.0015zM88.8656 253.6632l-23.284 16.9915-2.3333-.8331-2.9705 3.0169 7.1241 6.997 2.9526-3.0334-.8735-2.3273 2.9675-2.1494 6.1699 6.0637-2.1015 3.0004-2.3274-.8181-2.951 3.0168 7.1077 6.9642 2.9675-3.017-.8735-2.3123 16.5577-23.6026-8.1323-7.9602v.003zm-11.9868 15.436l11.4633-8.391 1.5885 1.5704-8.1667 11.6517-4.8865-4.8312h.0014zM71.8801 110.048l3.346 2.5995 6.113-7.863-3.343-2.5831-2.224 1.1367-7.0046-5.44 5.1349-6.611 6.997 5.4564-.5774 2.441 3.361 2.5996 6.1144-7.8645L86.462 91.32l-2.2481 1.1577-18.2688-14.202.5684-2.438-3.346-2.6025-6.1025 7.848 3.3354 2.5996 2.2242-1.1367 7.012 5.4205-5.1349 6.629-7.012-5.4594.5774-2.42-3.3385-2.6176-6.137 7.8645 3.361 2.5996 2.2226-1.1248 18.2778 14.1855-.5729 2.4246zm173.3173-27.7622l5.594-1.0276 14.6253-21.1166-1.0022-5.5701-9.3632-6.499-5.576 1.0291-14.6432 21.1197 1.029 5.5985 9.3363 6.4675v-.0015zm7.4697-28.2573l1.1472-.2094 5.6883 3.9158.1944 1.1712-12.0855 17.4581-1.1621.2094-5.6733-3.9337-.2005-1.1518 12.09-17.4596h.0015zm-149.3363 28.371l9.3557-6.5154.9842-5.5342-14.6506-21.1496-5.5836-1.014-9.3333 6.4674-1.032 5.5836 14.673 21.1346 5.585 1.0276h.0016zM89.0256 57.8472l5.6569-3.9307 1.186.2094 12.0856 17.4252-.202 1.1876-5.6643 3.9188-1.1637-.1795-12.1153-17.4252.2168-1.204v-.0016zm32.8073-18.357l7.2932 23.3183 5.0136 2.5981 10.865-3.3728 2.6175-5.0376-7.2961-23.3184 1.8457-1.6663-1.2759-4.0594-9.4933 2.9676 1.2758 4.0579 2.4725.3066 6.641 21.1795-.5624 1.062-6.5543 2.0341-1.077-.5115-6.626-21.1795 1.8622-1.6543-1.2923-4.0758-9.483 2.9825 1.267 4.028 2.5068.341zm83.5857 18.6786l-1.2504 4.028 9.4918 2.9526 1.261-4.0594-1.8473-1.6693 6.8594-21.9677 3.156.9946.0389 4.1088 3.85 1.2026 2.785-8.922-21.5983-6.7203-2.767 8.9055 3.844 1.1876 2.3632-3.3698 3.1635.9976-6.8505 21.9992-2.4993.332zm-21.504-3.8036V42.8286l-4.0011-4.0265h-8.9295l-.8287-.8226v-7.0748l.8287-.8331h7.6476l1.2026 3.114h4.0833v-8.521H168.748l-4.019 3.9935v11.571l4.0205 3.9786h8.922l.842.8526v7.0927l-.842.8331h-7.6477l-1.186-3.129h-4.1074v8.5211h15.1891l3.9951-4.013zm110.1213 29.8636l-3.3205 2.6325.5594 2.4231-12.452 9.6923 11.6263-19.3696-5.3023-6.7727-3.3444 2.5996.5773 2.423-18.2628 14.2334-2.2137-1.1398-3.3609 2.6176 6.1385 7.8615 3.3534-2.6175-.5983-2.453 12.455-9.6923-11.6024 19.3696 3.8918 4.9883 22.418-17.4925 2.2137 1.1711 3.3609-2.6325-6.137-7.842z" fill="#FFF" fill-rule="nonzero" mask="url(#j)"/></g><g transform="matrix(1.2308 0 0 1.2308 34.6088 34.6088)"><mask id="l" fill="#fff"><use xlink:href="#k"/></mask><path d="M230.683 141.8203h37.7251c-13.3987-38.3684-49.5908-65.999-92.3387-66.7363l16.103 49.5983h38.512v17.1365l-.0015.0015zm-112.7 90.2925v-17.1216l13.5183-4.8461-3.1366 1.0919 3.138-1.092v-27.439L79.272 144.7385c-2.9765 9.4829-4.5889 19.4968-4.5889 29.9594 0 32.526 15.5975 61.3771 39.7235 79.5726l7.1795-22.1577h-3.6047.0015zm0-107.429h38.5029l16.127-49.5983c-42.757.718-78.949 28.3664-92.3642 66.7348h37.7342v-17.1365zm63.7179 94.5269l-7.374-5.3742-7.3799 5.3742v12.9021h-17.7333l-32.6517 23.7163c16.2705 11.6517 36.216 18.5021 57.765 18.5021 21.5533 0 41.4884-6.8654 57.7828-18.5021l-32.6607-23.7163H181.701v-12.9021zm87.6944-74.4244l-52.1979 37.9526v27.4077l13.487 4.8461v17.1216h-3.6122l7.2064 22.1592c24.1111-18.197 39.7146-47.063 39.7146-79.5726 0-10.4492-1.6214-20.4765-4.5964-29.9146h-.0015z" fill="#002D62" fill-rule="nonzero" mask="url(#l)"/></g><g transform="matrix(1.2308 0 0 1.2308 34.6088 34.6088)"><mask id="n" fill="#fff"><use xlink:href="#m"/></mask><path d="M174.327 281.5526c-59.032 0-106.9071-47.8184-106.9071-106.8547 0-59.0513 47.8752-106.9176 106.9085-106.9176 59.0453 0 106.904 47.8663 106.904 106.919 0 59.0319-47.8587 106.8518-106.9025 106.8518" fill="#002D62" fill-rule="nonzero" mask="url(#n)"/></g><g transform="matrix(1.2308 0 0 1.2308 34.6088 34.6088)"><mask id="p" fill="#fff"><use xlink:href="#o"/></mask><path d="M174.321 67.7803c-59.0439 0-106.9026 47.8663-106.9026 106.919 0 59.0319 47.8587 106.8697 106.9025 106.8697 59.0588 0 106.8996-47.8378 106.8996-106.8696 0-59.0513-47.8408-106.9206-106.8996-106.9206m59.9577 186.4947l-7.2049-22.1592h-27.623l32.6696 23.7178c-16.3034 11.6487-36.2415 18.502-57.7994 18.502-21.5354 0-41.4884-6.8533-57.768-18.502l32.6712-23.7178h-17.1784l-18.9912 26.2844 1.3402-4.1252c-24.1171-18.197-39.7116-47.0466-39.7116-79.5726 0-10.4492 1.6004-20.4915 4.5874-29.9445l52.2308 37.981v-6.6111l-39.8836-29.0111-16.432-5.2949h5.063c13.4167-38.3699 49.6073-66.0169 92.3641-66.7393l1.7096-5.3098v97.656h20.8998V146.65l-13.5184-4.8312v-17.135h10.4791l-16.127-49.5983c42.7629.7359 78.949 28.368 92.3403 66.7348h5.0944l-16.4156 5.3098h-39.876v35.5774l52.2008-37.9197c2.9765 9.438 4.5874 19.4669 4.5874 29.9145 0 32.5082-15.6004 61.3757-39.7086 79.5727" fill="#EB6E1F" fill-rule="nonzero" mask="url(#p)"/></g><g transform="matrix(1.2308 0 0 1.2308 34.6088 34.6088)"><mask id="r" fill="#fff"><use xlink:href="#q"/></mask><path fill="#EB6E1F" fill-rule="nonzero" mask="url(#r)" d="M195.2222 210.145v-20.78H162.919l-9.4754 13.1265v7.6536l13.4944 4.8461v4.218l7.389-5.3727 7.3739 5.3742v-4.218"/></g><g transform="matrix(1.2308 0 0 1.2308 34.6088 34.6088)"><mask id="t" fill="#fff"><use xlink:href="#s"/></mask><path d="M217.1944 146.6485v.4816h39.8791l16.4141-5.3098h-42.7942m-63.7464-17.1365v17.1365l-13.5034 4.8282v20.7652h20.8848v-97.644l-1.714 5.3128-16.1285 49.5983m-3.0423 77.8107l9.468-13.11h-9.468m-25.0804 21.872l3.138-1.107-3.138 1.092m-13.9596 43.035l-1.3551 4.1237 19.0077-26.2844h-10.4551m-3.6182-90.2925H75.1752l16.423 5.2949 39.9 29.0126V146.647" fill="#F4911E" fill-rule="nonzero" mask="url(#t)"/></g><g transform="matrix(1.2308 0 0 1.2308 34.6088 34.6088)"><mask id="v" fill="#fff"><use xlink:href="#u"/></mask><path fill="#FFF" fill-rule="nonzero" mask="url(#v)" d="M117.983 214.9912v17.1216l4.3375-4.3825h40.265v-9.7072l4.3645-3.0319-13.5034-4.8461-4.3645 3.0483v-28.1945h50.5076l-4.3675 4.3676v20.7786l-13.5064 4.8461v17.1216l4.3615-4.3825h40.253v-9.7072l4.3556-3.0319-13.4944-4.8461-4.372 3.0483v-69.626l13.5108-4.8462v-9.6774l4.3556-4.3615h-48.973v17.1365l4.3615-3.0962 13.5124 4.8432-4.3676 3.0812v20.7652h-41.7756l-4.3645 4.3645v-28.2094l13.5034-4.8461v-9.6774l4.3645-4.363h-48.964v17.1365l4.3375-3.0961 13.5274 4.8431-4.3466 3.0812v63.4966"/></g><g transform="matrix(1.2308 0 0 1.2308 34.6088 34.6088)"><mask id="x" fill="#fff"><use xlink:href="#w"/></mask><path d="M230.683 141.8203v-17.1365l-4.3556 4.378v9.6623l-13.511 4.8432v69.626l4.3795-3.0482v-63.4966m13.487 68.3427l-4.3555 3.0334v9.7072h-40.253l-4.372 4.3825h48.982m-77.2408-42.7329h41.7756l4.3676-4.3825H149.079v28.2094l4.3645-3.0632v-7.6536m13.5034 16.7192v-4.218l-4.3555 3.0319v9.7072h-40.271l-4.3466 4.3825h48.9731m-31.0991-88.547l-13.5259-4.8461-4.3316 3.0991 13.5124 4.8282m54.5716-7.9259l-4.372 3.0962 13.5123 4.8312 4.3735-3.0812m-32.6412-1.7485v-17.1365l-4.3555 4.378v9.6623l-13.5124 4.8432v28.2094l4.3645-4.3466v-20.783" fill="#E7E9EA" fill-rule="nonzero" mask="url(#x)"/></g><g transform="matrix(1.2308 0 0 1.2308 34.6088 34.6088)"><mask id="z" fill="#fff"><use xlink:href="#y"/></mask><path d="M288.1816 323.4957h-3.6137v9.7581h-2.414v-9.7566h-3.5704v-2.1329h9.5966v2.1344l.0015-.003zm16.2526 9.7596h-2.423v-9.453h-.0794l-3.4341 9.453h-2.3274l-3.3355-9.453h-.0643v9.453h-2.4156v-11.891h4.197l2.782 7.7838h.0494l2.8718-7.7853h4.182v11.891l-.003.0015z" fill="#002D62" fill-rule="nonzero" mask="url(#z)"/></g></g></svg>