<svg width="500" height="500" viewBox="0 0 500 500" xmlns="http://www.w3.org/2000/svg"><title>kansas-city-royals</title><g fill="none" fill-rule="evenodd"><path d="M80.364 90.6005c0-30.2905-18.4135-40.0257-34.9144-39.7992l-5.385-.2265V34.8791h107.555l.019 15.9883c-15.419 1.2896-31.1714 11.679-31.1714 39.7331v94.3537l7.4547-4.6238c15.4976-24.2073 56.1712-88.4057 64.6325-106.9449 10.4176-22.7163-5.5046-22.7163-20.7757-22.7163v-15.853h95.3382v15.853h-6.7092c-10.3736 0-23.2039 0-40.337 23.3958-21.9049 29.9917-65.4094 102.667-65.4094 102.667 66.6266 5.536 91.6894 106.8505 108.8006 120.596-9.7823-72.3765 38.541-162.6285 109.4298-159.1276 7.9327.3554 17.7025-.7486 40.3244 6.1462 22.6315 6.8885 24.7012-5.473 27.727-19.2878h16.9225v119.2435h-14.6388c-1.211-20.6498-10.4492-88.953-70.1496-91.029-60.688-2.035-72.1091 75.8176-72.9332 128.9472-3.0385 196.3444 120.423 190.1636 143.0387 126.7454 3.3027-9.1596 1.8621-11.7797-1.8464-13.7833-26.906-14.4376 4.2873-53.0636 21.5683-19.2879 7.9265 15.5008-6.2594 88.9215-80.259 88.9215-114.887 0-148.5086-177.843-191.2865-235.7253-33.326-45.074-60.5088-24.786-70.7346-13.755l-.4498 30.97.2737 55.171c0 30.322 18.3945 40.057 34.93 39.862l5.3882.1888v15.6328H40.0646v-15.6328l5.3881-.1887c16.501.1887 34.9144-9.5496 34.9144-39.8684v-210.87h-.0032z" stroke="#FFF" stroke-width="20.9936"/><path d="M80.364 90.6005c0-30.2905-18.4135-40.0257-34.9144-39.7992l-5.385-.2265V34.8791h107.555l.019 15.9883c-15.419 1.2896-31.1714 11.679-31.1714 39.7331v94.3537l7.4547-4.6238c15.4976-24.2073 56.1712-88.4057 64.6325-106.9449 10.4176-22.7163-5.5046-22.7163-20.7757-22.7163v-15.853h95.3382v15.853h-6.7092c-10.3736 0-23.2039 0-40.337 23.3958-21.9049 29.9917-65.4094 102.667-65.4094 102.667 66.6266 5.536 91.6894 106.8505 108.8006 120.596-9.7823-72.3765 38.541-162.6285 109.4298-159.1276 7.9327.3554 17.7025-.7486 40.3244 6.1462 22.6315 6.8885 24.7012-5.473 27.727-19.2878h16.9225v119.2435h-14.6388c-1.211-20.6498-10.4492-88.953-70.1496-91.029-60.688-2.035-72.1091 75.8176-72.9332 128.9472-3.0385 196.3444 120.423 190.1636 143.0387 126.7454 3.3027-9.1596 1.8621-11.7797-1.8464-13.7833-26.906-14.4376 4.2873-53.0636 21.5683-19.2879 7.9265 15.5008-6.2594 88.9215-80.259 88.9215-114.887 0-148.5086-177.843-191.2865-235.7253-33.326-45.074-60.5088-24.786-70.7346-13.755l-.4498 30.97.2737 55.171c0 30.322 18.3945 40.057 34.93 39.862l5.3882.1888v15.6328H40.0646v-15.6328l5.3881-.1887c16.501.1887 34.9144-9.5496 34.9144-39.8684v-210.87h-.0032z" fill="#174885" fill-rule="nonzero"/></g></svg>