<svg width="500" height="500" viewBox="0 0 500 500" xmlns="http://www.w3.org/2000/svg"><title>los-angeles-angels</title><g fill-rule="nonzero" fill="none"><path d="M264.6282 464.1297h122.5487c-11.336-7.7125-21.3248-21.1914-25.7869-36.56L327.138 309.987c-3.7184-12.6494 2.3169-25.2942 11.9666-33.8611-13.6755-4.1818-25.7869-13.7072-29.6409-26.7815l-19.1616-65.81c27.2743-9.0959 45.0615-25.2714 45.0615-44.0397 0-24.5143-30.371-44.5981-72.5866-50.3396l-16.0196-55.0255H228.796l-16.0264 55.0255c-42.236 5.7415-72.6364 25.8253-72.6364 50.3396 0 18.7683 17.8121 34.9416 45.1135 44.0398l-19.1865 65.8099c-3.7658 13.0743-15.936 22.5974-29.6047 26.7815 9.6135 8.567 15.6737 21.2117 11.9938 33.861l-34.277 117.5827c-4.5209 15.3708-14.4668 28.8475-25.7643 36.56l122.5374-.0022c-10.0272-7.7126-15.4952-21.1915-11.0082-36.56l3.0063-10.2805H272.63l2.9883 10.2804c4.4983 15.3709-.9855 28.8475-10.9856 36.5578l-.0045.0045zm-37.3965-130.0872l10.5698-36.3566 10.5561 36.3566h-21.1259z" fill="#FFF"/><path d="M366.5438 455.7888c-5.8206-7.6629-10.4929-16.5554-13.2144-25.8773l-34.0126-116.7508c-5.416-18.5445 4.575-31.6979 5.8839-33.8114-11.8288-6.4015-20.484-16.1507-23.757-27.6675l-20.7281-71.0722c29.2182-7.7872 49.119-23.2552 49.119-41.117 0-22.5998-32.0235-41.472-74.386-45.6538l-14.9527-51.3681h-5.4182L220.125 93.841c-42.4146 4.1818-74.4357 23.0563-74.4357 45.6538 0 17.8618 19.9414 33.3299 49.1416 41.117l-20.7123 71.0745c-3.3409 11.5146-11.944 21.2638-23.8022 27.6675 1.3382 2.1135 11.3405 15.267 5.9223 33.8069l-34.0239 116.7508c-2.7215 9.3242-7.3803 18.219-13.2393 25.8773h84.8472c-6.8649-15.1449-3.2505-26.1531-.1808-36.533l3.0131-10.33h82.2342l3.0515 10.33c3.0064 10.3822 6.6005 21.3904-.2418 36.533h84.8449zm-150.56-113.3534l21.8132-74.7024 21.7452 74.7024H215.984z" fill="#003263"/><path d="M260.322 157.7612l-10.8952-37.514 2.1406 7.482c-4.4598-.226-9.071-.4023-13.766-.4023v24.3357l65.3398 224.0304 15.0409 51.402 25.814 15.468c-1.8151-3.933-3.4133-7.9386-4.6384-12.0706l-32.5388-111.362c-5.1311-17.3826-2.3192-24.9166 1.4015-35.3981-9.765-7.482-16.2931-17.2583-19.4532-28.2666l-24.6815-84.8065-.0362.0226-3.7297-12.9206h.0023zm-14.8622-51.1962l-7.6628-26.2277v26.0762c2.5859 0 5.104.0497 7.6628.1515zm-88.473 321.8885l20.8728 14.105c-1.085-7.0254-.061-16.2479 1.9666-22.8235l6.8943-23.983-14.3379-20.059-15.3935 52.7582-.0022.0023z" fill="#BA0021"/><path fill="#BA0021" d="M198.3933 355.6137l39.406-134.9472V151.665l-65.4167 224.0304h130.7609l-26.0514-20.0794"/><path fill="#862633" d="M237.797 220.6688l39.2929 134.9471 26.0513 20.0771-65.342-224.0304"/><path d="M343.996 442.5608l-25.814-15.4703-15.0363-51.3975H172.3804l65.4166-224.0304v-24.3402c4.7016 0 9.3129.174 13.7704.4001l-2.1406-7.482c-.581 0-1.1844-.0226-1.7631-.0769-3.2279-.1491-6.5032-.2757-9.8645-.2757-3.9648 0-7.8708.1537-11.6638.3549l-10.9336 37.514h.0384l-3.7659 12.9227h-.0384l-24.72 84.7862c-3.151 11.0083-9.5841 20.7846-19.3763 28.2688 3.68 10.4793 6.4874 18.0156 1.3857 35.3982l-32.5343 111.362c-1.2251 4.1297-2.787 8.1375-4.7017 12.066h46.3726l-20.875-14.105 15.3935-52.7627 14.3378 20.0567h102.0513l7.0412 23.983c1.8874 6.5734 2.9385 15.8004 1.8874 22.8258l46.298.0023zM237.797 80.3373l-7.6403 26.2277c2.5181-.1018 5.077-.1515 7.647-.1515V80.3373h-.0067z" fill="#862633"/><path d="M215.238 157.7612h-.0385c-23.6711-2.7961-40.4773-9.9526-40.4773-18.2642 0-9.5774 22.1363-17.5408 51.411-19.252 3.793-.2034 7.699-.3526 11.6638-.3526 3.3635 0 6.641.1288 9.8644.278.581.052 1.1845.0769 1.7632.0769 29.2408 1.6863 51.4359 9.652 51.4359 19.2497 0 8.3116-16.8696 15.4704-40.5158 18.2642h-.0226l3.7296 12.9251.034-.0226c30.4772-4.5344 52.383-16.7497 52.383-31.1644 0-17.1566-31.2052-31.291-71.0134-32.9298a191.2328 191.2328 0 0 0-7.6583-.1515c-2.5701 0-5.1312.052-7.647.1515-39.9191 1.6388-71.0496 15.771-71.0496 32.9298 0 14.4124 21.8537 26.6278 52.3287 31.1893h.0385l3.7703-12.9206v-.0068z" fill="#C4CED4"/><g fill="#003263"><path d="M404.7879 447.0703c0-3.2482-1.9146-3.7794-4.6859-3.7794h-5.8816v12.1475h2.5452v-4.8373h2.0886l2.7736 4.8373h2.821l-2.934-4.8373c2.1428-.1808 3.2776-1.3608 3.2776-3.5263l-.0045-.0045zm-4.634 1.3857h-3.3905v-2.9454h2.7848c1.1845 0 2.7441 0 2.7441 1.311 0 1.2817-.7775 1.6344-2.1406 1.6344h.0023z"/><path d="M399.06 437.7235c-6.4649 0-11.5666 5.217-11.5666 11.7157 0 6.4287 5.104 11.5915 11.5665 11.5915 6.51 0 11.614-5.1628 11.614-11.5892 0-6.4987-5.104-11.7135-11.614-11.7135v-.0045zm0 20.8117c-4.9888 0-8.983-3.906-8.983-9.096 0-5.2125 3.9942-9.1185 8.983-9.1185 4.9729 0 9.0688 3.906 9.0688 9.1208 0 5.1922-4.096 9.0982-9.0689 9.0982v-.0045z"/></g></g></svg>