<svg width="500" height="500" viewBox="0 0 500 500" xmlns="http://www.w3.org/2000/svg"><title>los-angeles-dodgers</title><g fill-rule="nonzero" fill="none"><path d="M42.8632 271.9008c-1.4873 13.5624 1.0715 22.604 11.5605 27.0026 7.7 3.2308 16.6358-3.642 19.2017-7.4908 4.22-6.2972 4.7698-13.0173 4.7698-13.0173s-14.6855 14.117-23.1327 1.2218c-4.8873-7.4602-2.2792-29.613 26.481-45.2432 28.7602-15.602 43.0322-2.8713 43.0322-2.8713 17.2937 9.7864 18.055 38.7651 12.9562 61.2517-3.8206 16.7814-11.7578 34.4652-29.8034 37.743-6.7742 1.2383-9.3753.5122-15.5409.242 1.351-3.078 6.4147-14.3613 7.8762-32.4069 4.2811-52.9314 10.0331-58.0208 15.2494-65.9017-39.1035 19.8596-27.8132 87.5141-35.4567 98.64-28.6756 4.2247-35.2148 27.6628-29.5286 31.3213 4.3117 2.7608 23.793-2.5236 37.0593-23.9246 9.6173-.1809 40.2972 8.231 59.0148-25.8395 12.6765-23.1045 16.671-63.3664-3.642-83.273-29.296-28.7366-95.4773.625-100.0968 42.5459zm17.517 79.1492c-1.3347-3.414 7.9231-11.5252 16.2128-11.8894-3.1486 5.5735-14.8665 15.2965-16.2128 11.8894zm379.921-153.8576c-4.2458-12.0962-20.3248-9.6924-24.3991-5.8577 0-15.931-8.043-20.191-16.3632-29.9774-1.8563-6.8751 3.5245-9.1238 4.281-15.0004 1.511-11.8988-17.1526-8.4119-11.8705 15.9027-2.2275 11.342-14.2556 46.0774-20.5128 46.9656-3.6044.5122-3.7995-5.3174-1.9503-12.2325 1.8492-6.9316 11.8472-19.4672 5.6792-25.7643-3.5597-3.696-10.2564 1.814-16.2222-1.492 0 0 .188-5.0143-1.3628-6.8847-1.5579-1.875-4.2765-1.1654-5.9165.087-4.5067 3.4728-4.7464 13.0173-2.2863 17.8811-1.8421 11.866-3.3295 16.6593-9.1215 32.6325-5.9353 16.4478-20.0546 24.284-23.2337 14.272 28.1563-27.1084 21.946-37.5245 17.4417-41.2276-7.2487-5.9495-29.733 4.8168-30.8514 39.0048-.0305 1.4098.188 3.219.477 4.925-2.218 2.6128-6.128 7.4296-11.053 14.225 2.3028-15.1462 5.5454-37.0899 6.584-45.2316 0 0-5.6111 3.628-11.819 4.394l-.8459 5.6345c-6.0152-9.0604-34.0282-.5404-33.0366 43.7348-1.4028 13.6047-8.7103 15.132-8.8983 11.8518-.9587-16.1424 9.0863-63.747 12.4675-81.0173 0 0-6.6144 3.7125-11.725 3.7877 0 0-8.6468 43.8217-8.8442 43.8852-4.5067-3.5645-7.5425-3.097-11.0295-2.2957-10.55 2.432-18.7552 17.2608-19.2486 26.6995-1.8562 1.8398-4.011 3.548-6.1797 4.6336-1.3346-5.6463-3.9075-10.8274-9.6807-12.5638-19.1265-5.8272-34.7237 22.4865-29.6953 49.1555 0 0 1.8515 7.4156 9.0392 12.1244 13.4308 6.7083 30.9877-11.4594 31.1757-39.7896 2.5987-1.6918 4.9531-4.845 4.9531-5.207-1.1513 8.607 1.445 24.6906 11.1704 26.0816 10.3621 1.492 16.173-10.9495 17.7872-16.147 1.2617 3.1861 4.4503 5.9212 8.3367 5.7567 8.8583-.3642 11.645-11.7062 13.3133-16.5536 7.8902 12.5333 20.6068.9963 23.384-6.4146l-.9398 6.128c-7.1783 8.6539-20.595 30.1582-20.595 30.1582-24.8597 9.0181-73.2727 26.8804-93.245 56.7967 16.2363-3.2191 30.17.921 30.17.921 3.2378-8.7878 22.9964-26.3987 51.9915-36.077-7.1195 14.4223-5.7238 35.6377 6.4476 35.398 21.0461-.4065 27.9941-36.5753 30.9219-50.3186 18.68-8.036 52.0855-20.9005 86.9854-35.8962 32.4375-13.9336 78.8438-37.2026 68.329-67.0883h-.0095zm-248.4936 66.8722s-2.3309.6344-4.589.376c-3.649-.423-6.283-2.1618-6.6025-3.6703-1.7341-8.1534 10.792-7.0068 11.1915 3.2896v.0047zM177.061 296.455c-7.2512-1.4051-6.9786-20.7195-1.9808-29.176 3.2426 5.9047 11.772 6.5391 16.9812 5.7567.3994 8.393-6.1162 25.1557-15.0028 23.4193h.0024zm57.7647-51.376c-.1175 1.6449-1.9573 15.978-2.3497 17.5335-1.8257 7.3545-5.5123 12.5355-10.644 12.3358-8.8302-.3148-4.8404-37.6749 7.7375-36.4084 2.5047.242 5.5922 1.9338 5.2562 6.5392zm24.8715 87.0443c-6.3677 1.1513-3.0875-15.024 1.8492-22.7262 6.471-2.4625 11.9293-5.0753 11.9293-5.0753-3.36 15.9191-6.1561 26.4575-13.7785 27.8015zm16.2034-44.912s-3.346 1.4216-4.892 1.9503c2.1734-3.1862 6.1021-10.6606 6.955-12.0657-.3407 2.5095-2.063 10.1178-2.063 10.1178v-.0024zm51.5921-92.0866c7.1666 3.6538-5.3197 18.727-11.027 24.9161.8388-13.9524 7.815-26.575 11.0247-24.916h.0023zm-56.2891 58.9866c-9.7324 1.8092-6.5603-36.0325 7.808-37.7078 2.7397-.3454 5.611 3.0358 5.0518 8.534-.3336 3.111-1.1325 9.756-2.8548 15.179-1.8328 5.7803-4.9109 13.0267-10.005 13.9948zm157.2458-36.6552c-12.035 18.1866-45.0036 30.9313-140.9578 65.8148.8624-6.0551 2.3497-17.0352 3.581-24.3592 2.1476-3.79 4.6688-7.9138 7.425-11.9294l.7613-1.0738c2.1664-3.078 4.4761-6.0246 6.8329-8.6374 2.2416 3.6702 5.6698 8.6985 12.7588 8.5011 23.7483-.6038 34.1691-45.1845 37.8699-62.5816 1.7951.3948 4.1425.712 5.8343.6345-1.7294 5.6392-14.9957 35.7622 2.6128 40.8845 17.5404 5.1153 28.3772-43.3447 31.5093-53.9018 10.6441 12.3546 7.9725 25.3437 2.5447 28.0623-2.7843 1.3722-5.9494-2.8384-9.0369.0893-4.6218 4.3822-1.5554 11.692 4.817 12.7776 9.0603 1.539 15.0708-4.7111 21.1236-11.0247 1.875-1.9338 8.957-6.2502 13.3462-3.1862 6.5792 4.549 1.8375 15.5902-1.022 19.9371v-.007z" stroke="#FFF" stroke-width="9.88208"/><path d="M42.8632 271.9008c-1.4873 13.5624 1.0715 22.604 11.5605 27.0026 7.7 3.2308 16.6358-3.642 19.2017-7.4908 4.22-6.2972 4.7698-13.0173 4.7698-13.0173s-14.6855 14.117-23.1327 1.2218c-4.8873-7.4602-2.2792-29.613 26.481-45.2432 28.7602-15.602 43.0322-2.8713 43.0322-2.8713 17.2937 9.7864 18.055 38.7651 12.9562 61.2517-3.8206 16.7814-11.7578 34.4652-29.8034 37.743-6.7742 1.2383-9.3753.5122-15.5409.242 1.351-3.078 6.4147-14.3613 7.8762-32.4069 4.2811-52.9314 10.0331-58.0208 15.2494-65.9017-39.1035 19.8596-27.8132 87.5141-35.4567 98.64-28.6756 4.2247-35.2148 27.6628-29.5286 31.3213 4.3117 2.7608 23.793-2.5236 37.0593-23.9246 9.6173-.1809 40.2972 8.231 59.0148-25.8395 12.6765-23.1045 16.671-63.3664-3.642-83.273-29.296-28.7366-95.4773.625-100.0968 42.5459zm17.517 79.1492c-1.3347-3.414 7.9231-11.5252 16.2128-11.8894-3.1486 5.5735-14.8665 15.2965-16.2128 11.8894zm379.921-153.8576c-4.2458-12.0962-20.3248-9.6924-24.3991-5.8577 0-15.931-8.043-20.191-16.3632-29.9774-1.8563-6.8751 3.5245-9.1238 4.281-15.0004 1.511-11.8988-17.1526-8.4119-11.8705 15.9027-2.2275 11.342-14.2556 46.0774-20.5128 46.9656-3.6044.5122-3.7995-5.3174-1.9503-12.2325 1.8492-6.9316 11.8472-19.4672 5.6792-25.7643-3.5597-3.696-10.2564 1.814-16.2222-1.492 0 0 .188-5.0143-1.3628-6.8847-1.5579-1.875-4.2765-1.1654-5.9165.087-4.5067 3.4728-4.7464 13.0173-2.2863 17.8811-1.8421 11.866-3.3295 16.6593-9.1215 32.6325-5.9353 16.4478-20.0546 24.284-23.2337 14.272 28.1563-27.1084 21.946-37.5245 17.4417-41.2276-7.2487-5.9495-29.733 4.8168-30.8514 39.0048-.0305 1.4098.188 3.219.477 4.925-2.218 2.6128-6.128 7.4296-11.053 14.225 2.3028-15.1462 5.5454-37.0899 6.584-45.2316 0 0-5.6111 3.628-11.819 4.394l-.8459 5.6345c-6.0152-9.0604-34.0282-.5404-33.0366 43.7348-1.4028 13.6047-8.7103 15.132-8.8983 11.8518-.9587-16.1424 9.0863-63.747 12.4675-81.0173 0 0-6.6144 3.7125-11.725 3.7877 0 0-8.6468 43.8217-8.8442 43.8852-4.5067-3.5645-7.5425-3.097-11.0295-2.2957-10.55 2.432-18.7552 17.2608-19.2486 26.6995-1.8562 1.8398-4.011 3.548-6.1797 4.6336-1.3346-5.6463-3.9075-10.8274-9.6807-12.5638-19.1265-5.8272-34.7237 22.4865-29.6953 49.1555 0 0 1.8515 7.4156 9.0392 12.1244 13.4308 6.7083 30.9877-11.4594 31.1757-39.7896 2.5987-1.6918 4.9531-4.845 4.9531-5.207-1.1513 8.607 1.445 24.6906 11.1704 26.0816 10.3621 1.492 16.173-10.9495 17.7872-16.147 1.2617 3.1861 4.4503 5.9212 8.3367 5.7567 8.8583-.3642 11.645-11.7062 13.3133-16.5536 7.8902 12.5333 20.6068.9963 23.384-6.4146l-.9398 6.128c-7.1783 8.6539-20.595 30.1582-20.595 30.1582-24.8597 9.0181-73.2727 26.8804-93.245 56.7967 16.2363-3.2191 30.17.921 30.17.921 3.2378-8.7878 22.9964-26.3987 51.9915-36.077-7.1195 14.4223-5.7238 35.6377 6.4476 35.398 21.0461-.4065 27.9941-36.5753 30.9219-50.3186 18.68-8.036 52.0855-20.9005 86.9854-35.8962 32.4375-13.9336 78.8438-37.2026 68.329-67.0883h-.0095zm-248.4936 66.8722s-2.3309.6344-4.589.376c-3.649-.423-6.283-2.1618-6.6025-3.6703-1.7341-8.1534 10.792-7.0068 11.1915 3.2896v.0047zM177.061 296.455c-7.2512-1.4051-6.9786-20.7195-1.9808-29.176 3.2426 5.9047 11.772 6.5391 16.9812 5.7567.3994 8.393-6.1162 25.1557-15.0028 23.4193h.0024zm57.7647-51.376c-.1175 1.6449-1.9573 15.978-2.3497 17.5335-1.8257 7.3545-5.5123 12.5355-10.644 12.3358-8.8302-.3148-4.8404-37.6749 7.7375-36.4084 2.5047.242 5.5922 1.9338 5.2562 6.5392zm24.8715 87.0443c-6.3677 1.1513-3.0875-15.024 1.8492-22.7262 6.471-2.4625 11.9293-5.0753 11.9293-5.0753-3.36 15.9191-6.1561 26.4575-13.7785 27.8015zm16.2034-44.912s-3.346 1.4216-4.892 1.9503c2.1734-3.1862 6.1021-10.6606 6.955-12.0657-.3407 2.5095-2.063 10.1178-2.063 10.1178v-.0024zm51.5921-92.0866c7.1666 3.6538-5.3197 18.727-11.027 24.9161.8388-13.9524 7.815-26.575 11.0247-24.916h.0023zm-56.2891 58.9866c-9.7324 1.8092-6.5603-36.0325 7.808-37.7078 2.7397-.3454 5.611 3.0358 5.0518 8.534-.3336 3.111-1.1325 9.756-2.8548 15.179-1.8328 5.7803-4.9109 13.0267-10.005 13.9948zm157.2458-36.6552c-12.035 18.1866-45.0036 30.9313-140.9578 65.8148.8624-6.0551 2.3497-17.0352 3.581-24.3592 2.1476-3.79 4.6688-7.9138 7.425-11.9294l.7613-1.0738c2.1664-3.078 4.4761-6.0246 6.8329-8.6374 2.2416 3.6702 5.6698 8.6985 12.7588 8.5011 23.7483-.6038 34.1691-45.1845 37.8699-62.5816 1.7951.3948 4.1425.712 5.8343.6345-1.7294 5.6392-14.9957 35.7622 2.6128 40.8845 17.5404 5.1153 28.3772-43.3447 31.5093-53.9018 10.6441 12.3546 7.9725 25.3437 2.5447 28.0623-2.7843 1.3722-5.9494-2.8384-9.0369.0893-4.6218 4.3822-1.5554 11.692 4.817 12.7776 9.0603 1.539 15.0708-4.7111 21.1236-11.0247 1.875-1.9338 8.957-6.2502 13.3462-3.1862 6.5792 4.549 1.8375 15.5902-1.022 19.9371v-.007zM42.8632 271.9008c-1.4873 13.5624 1.0715 22.604 11.5605 27.0026 7.7 3.2308 16.6358-3.642 19.2017-7.4908 4.22-6.2972 4.7698-13.0173 4.7698-13.0173s-14.6855 14.117-23.1327 1.2218c-4.8873-7.4602-2.2792-29.613 26.481-45.2432 28.7602-15.602 43.0322-2.8713 43.0322-2.8713 17.2937 9.7864 18.055 38.7651 12.9562 61.2517-3.8206 16.7814-11.7578 34.4652-29.8034 37.743-6.7742 1.2383-9.3753.5122-15.5409.242 1.351-3.078 6.4147-14.3613 7.8762-32.4069 4.2811-52.9314 10.0331-58.0208 15.2494-65.9017-39.1035 19.8596-27.8132 87.5141-35.4567 98.64-28.6756 4.2247-35.2148 27.6628-29.5286 31.3213 4.3117 2.7608 23.793-2.5236 37.0593-23.9246 9.6173-.1809 40.2972 8.231 59.0148-25.8395 12.6765-23.1045 16.671-63.3664-3.642-83.273-29.296-28.7366-95.4773.625-100.0968 42.5459zm17.517 79.1492c-1.3347-3.414 7.9231-11.5252 16.2128-11.8894-3.1486 5.5735-14.8665 15.2965-16.2128 11.8894zm379.921-153.8576c-4.2458-12.0962-20.3248-9.6924-24.3991-5.8577 0-15.931-8.043-20.191-16.3632-29.9774-1.8563-6.8751 3.5245-9.1238 4.281-15.0004 1.511-11.8988-17.1526-8.4119-11.8705 15.9027-2.2275 11.342-14.2556 46.0774-20.5128 46.9656-3.6044.5122-3.7995-5.3174-1.9503-12.2325 1.8492-6.9316 11.8472-19.4672 5.6792-25.7643-3.5597-3.696-10.2564 1.814-16.2222-1.492 0 0 .188-5.0143-1.3628-6.8847-1.5579-1.875-4.2765-1.1654-5.9165.087-4.5067 3.4728-4.7464 13.0173-2.2863 17.8811-1.8421 11.866-3.3295 16.6593-9.1215 32.6325-5.9353 16.4478-20.0546 24.284-23.2337 14.272 28.1563-27.1084 21.946-37.5245 17.4417-41.2276-7.2487-5.9495-29.733 4.8168-30.8514 39.0048-.0305 1.4098.188 3.219.477 4.925-2.218 2.6128-6.128 7.4296-11.053 14.225 2.3028-15.1462 5.5454-37.0899 6.584-45.2316 0 0-5.6111 3.628-11.819 4.394l-.8459 5.6345c-6.0152-9.0604-34.0282-.5404-33.0366 43.7348-1.4028 13.6047-8.7103 15.132-8.8983 11.8518-.9587-16.1424 9.0863-63.747 12.4675-81.0173 0 0-6.6144 3.7125-11.725 3.7877 0 0-8.6468 43.8217-8.8442 43.8852-4.5067-3.5645-7.5425-3.097-11.0295-2.2957-10.55 2.432-18.7552 17.2608-19.2486 26.6995-1.8562 1.8398-4.011 3.548-6.1797 4.6336-1.3346-5.6463-3.9075-10.8274-9.6807-12.5638-19.1265-5.8272-34.7237 22.4865-29.6953 49.1555 0 0 1.8515 7.4156 9.0392 12.1244 13.4308 6.7083 30.9877-11.4594 31.1757-39.7896 2.5987-1.6918 4.9531-4.845 4.9531-5.207-1.1513 8.607 1.445 24.6906 11.1704 26.0816 10.3621 1.492 16.173-10.9495 17.7872-16.147 1.2617 3.1861 4.4503 5.9212 8.3367 5.7567 8.8583-.3642 11.645-11.7062 13.3133-16.5536 7.8902 12.5333 20.6068.9963 23.384-6.4146l-.9398 6.128c-7.1783 8.6539-20.595 30.1582-20.595 30.1582-24.8597 9.0181-73.2727 26.8804-93.245 56.7967 16.2363-3.2191 30.17.921 30.17.921 3.2378-8.7878 22.9964-26.3987 51.9915-36.077-7.1195 14.4223-5.7238 35.6377 6.4476 35.398 21.0461-.4065 27.9941-36.5753 30.9219-50.3186 18.68-8.036 52.0855-20.9005 86.9854-35.8962 32.4375-13.9336 78.8438-37.2026 68.329-67.0883h-.0095zm-248.4936 66.8722s-2.3309.6344-4.589.376c-3.649-.423-6.283-2.1618-6.6025-3.6703-1.7341-8.1534 10.792-7.0068 11.1915 3.2896v.0047zM177.061 296.455c-7.2512-1.4051-6.9786-20.7195-1.9808-29.176 3.2426 5.9047 11.772 6.5391 16.9812 5.7567.3994 8.393-6.1162 25.1557-15.0028 23.4193h.0024zm57.7647-51.376c-.1175 1.6449-1.9573 15.978-2.3497 17.5335-1.8257 7.3545-5.5123 12.5355-10.644 12.3358-8.8302-.3148-4.8404-37.6749 7.7375-36.4084 2.5047.242 5.5922 1.9338 5.2562 6.5392zm24.8715 87.0443c-6.3677 1.1513-3.0875-15.024 1.8492-22.7262 6.471-2.4625 11.9293-5.0753 11.9293-5.0753-3.36 15.9191-6.1561 26.4575-13.7785 27.8015zm16.2034-44.912s-3.346 1.4216-4.892 1.9503c2.1734-3.1862 6.1021-10.6606 6.955-12.0657-.3407 2.5095-2.063 10.1178-2.063 10.1178v-.0024zm51.5921-92.0866c7.1666 3.6538-5.3197 18.727-11.027 24.9161.8388-13.9524 7.815-26.575 11.0247-24.916h.0023zm-56.2891 58.9866c-9.7324 1.8092-6.5603-36.0325 7.808-37.7078 2.7397-.3454 5.611 3.0358 5.0518 8.534-.3336 3.111-1.1325 9.756-2.8548 15.179-1.8328 5.7803-4.9109 13.0267-10.005 13.9948zm157.2458-36.6552c-12.035 18.1866-45.0036 30.9313-140.9578 65.8148.8624-6.0551 2.3497-17.0352 3.581-24.3592 2.1476-3.79 4.6688-7.9138 7.425-11.9294l.7613-1.0738c2.1664-3.078 4.4761-6.0246 6.8329-8.6374 2.2416 3.6702 5.6698 8.6985 12.7588 8.5011 23.7483-.6038 34.1691-45.1845 37.8699-62.5816 1.7951.3948 4.1425.712 5.8343.6345-1.7294 5.6392-14.9957 35.7622 2.6128 40.8845 17.5404 5.1153 28.3772-43.3447 31.5093-53.9018 10.6441 12.3546 7.9725 25.3437 2.5447 28.0623-2.7843 1.3722-5.9494-2.8384-9.0369.0893-4.6218 4.3822-1.5554 11.692 4.817 12.7776 9.0603 1.539 15.0708-4.7111 21.1236-11.0247 1.875-1.9338 8.957-6.2502 13.3462-3.1862 6.5792 4.549 1.8375 15.5902-1.022 19.9371v-.007z" fill="#005A9C"/><path d="M328.0026 104.5748c6.9386-4.199 12.3359-10.8133 14.9675-18.9526 2.6481-8.2145 1.9972-16.7157-1.1513-24.1031-14.6691 8.8818-20.588 27.3175-13.8162 43.0533v.0024z" fill="#FFF"/><path d="M299.5361 107.8808c3.4447 1.1349 7.0162 1.6918 10.5971 1.6918 4.5584 0 8.9453-.907 12.9938-2.5518-8.0876-18.4216-1.1279-40.095 16.18-50.3303-4.1684-6.6496-10.5854-11.9176-18.6096-14.4976-3.4446-1.1043-7.0091-1.6777-10.5806-1.6777-4.676 0-9.1638.9211-13.2828 2.6434 3.844 8.896 4.3704 18.7411 1.3675 28.0436-2.9747 9.2883-9.1356 16.9741-17.4253 21.9578 4.159 6.7342 10.637 12.1103 18.76 14.7231v-.0023z" fill="#FFF"/><path d="M293.0228 69.541c2.5424-7.928 2.1382-16.307-1.0339-23.9058-6.8282 4.2106-12.129 10.778-14.7278 18.828-2.6129 8.1112-2.0301 16.5066 1.0268 23.8306 6.9903-4.3046 12.1949-10.8556 14.7325-18.7552l.0024.0023z" fill="#FFF"/><path d="M345.6793 56.7986c-4.8686-9.4857-13.1465-16.523-23.316-19.8009-3.9803-1.2852-8.111-1.9337-12.2489-1.9337-17.4112 0-32.7006 11.1445-38.0414 27.7263-6.7554 20.9592 4.8168 43.5397 25.7948 50.3021 3.9804 1.2688 8.1112 1.9173 12.2654 1.9173 17.4018 0 32.6936-11.1304 38.0227-27.7122 3.2778-10.1741 2.3873-21.0062-2.4766-30.499zm-2.7115 28.8236c-2.627 8.1393-8.0266 14.756-14.9676 18.9526-6.7718-15.7359-.8505-34.1762 13.8162-43.0557 3.1533 7.385 3.8018 15.8839 1.1514 24.1007v.0024zM277.261 64.4656c2.5987-8.05 7.8996-14.615 14.7255-18.8304 3.172 7.5942 3.5762 15.9779 1.0338 23.9034-2.5376 7.895-7.7422 14.4506-14.7325 18.7552-3.0593-7.324-3.642-15.7194-1.0292-23.8305l.0024.0023zm20.9357 6.7366c3.0076-9.3048 2.479-19.15-1.3628-28.0436 4.112-1.7223 8.6069-2.6434 13.2804-2.6434 3.5715 0 7.136.5734 10.5783 1.6754 8.0266 2.5846 14.4459 7.8526 18.6095 14.4975-17.303 10.2376-24.2652 31.9088-16.1799 50.3304-4.0462 1.6447-8.4354 2.554-12.9938 2.554-3.5786 0-7.15-.5592-10.597-1.6917-8.1206-2.6082-14.601-7.989-18.76-14.7232 8.2944-4.9813 14.4506-12.6695 17.4277-21.9554h-.0024zM126.014 345.8384c-1.3158-.7401-2.9606-.2585-3.7008 1.041l-21.664 38.993c-.7402 1.3158-.2632 2.9747 1.0573 3.7125.423.228.8694.3337 1.3158.3337.9634 0 1.8868-.4982 2.392-1.4052l21.6641-38.993c.7331-1.2994.249-2.9606-1.0644-3.6843v.0023zm64.2875-110.44l41.7304-74.706c.7355-1.3276.2679-2.9912-1.0573-3.7125-1.3112-.7425-2.9794-.2585-3.7055 1.069l-41.7398 74.7108c-.7284 1.3158-.2585 2.9747 1.0573 3.6984.43.242.8741.3642 1.3205.3642a2.7346 2.7346 0 0 0 2.3967-1.4192l-.0023-.0047zm77.2577-144.2615c-1.3158-.7401-2.984-.2585-3.7078 1.0715l-28.2902 50.906c-.7284 1.3158-.2585 2.9747 1.0573 3.7125.423.2302.8694.3336 1.3253.3336.9586 0 1.8867-.4981 2.3731-1.405l28.302-50.9108c.7284-1.3111.2514-2.9723-1.062-3.7125l.0023.0047zm-94.582 268.0195c-1.3957-.6038-2.9958.0282-3.5997 1.3864l-14.6715 33.5136c-.6038 1.3745.0235 2.9911 1.3981 3.595.3595.134.7284.2397 1.0926.2397 1.0574 0 2.0536-.6204 2.5071-1.6448l14.6715-33.4972c.6015-1.3746-.033-2.9911-1.398-3.595v.0023zm84.758-193.7505c.3524.1503.733.2255 1.0879.2255 1.0573 0 2.0536-.618 2.4906-1.6448l20.2685-46.2888a2.7177 2.7177 0 0 0-1.4028-3.5903c-1.3746-.618-2.9841.0164-3.5856 1.405l-20.259 46.303c-.6063 1.3676.0305 2.97 1.4027 3.5904h-.0023zm-37.1298 200.412c-1.4333-.47-2.9606.3453-3.407 1.7974l-29.0187 93.917c-.4323 1.4334.3619 2.9724 1.8046 3.4259.2725.061.5357.1057.8153.1057 1.1467 0 2.2275-.7519 2.5988-1.9173l29.0116-93.9311c.437-1.4334-.3642-2.9607-1.8046-3.3953v-.0024zm10.052-32.5456c-1.4333-.4394-2.9653.3454-3.3977 1.781l-5.1646 16.6875c-.4535 1.4498.3525 2.9912 1.8046 3.4306.2584.0705.545.1175.7989.1175 1.1654 0 2.2557-.752 2.601-1.9174l5.1553-16.7016c.4464-1.4333-.3478-2.9747-1.7999-3.3976h.0024zm65.272-211.2699c-1.4428-.423-2.9748.376-3.4212 1.8093l-21.4785 69.5507c-.4464 1.4498.3619 2.9748 1.8046 3.4118.2655.094.5451.1175.7989.1175 1.1654 0 2.2557-.7378 2.5987-1.915l21.4997-69.5437c.4464-1.4474-.3642-2.9841-1.7975-3.4259l-.0047-.0047zm-33.664 237.4712c-1.4733-.3172-2.93.5875-3.2543 2.0537l-8.0595 36.0912c-.3336 1.4803.5921 2.9277 2.0584 3.2778.2044.047.4088.047.6062.047 1.2453 0 2.3779-.8459 2.6434-2.1312l8.0829-36.0912c.3196-1.4803-.6015-2.9136-2.0748-3.2496l-.0023.0023zm39.8742-51.9938c-1.471-.2726-2.8972.6931-3.1838 2.1899l-10.1577 52.5977c-.2726 1.4944.6955 2.9136 2.1852 3.2003.202.0282.4065.0282.5944.0282 1.2383-.0305 2.3497-.9399 2.5753-2.2205l10.1741-52.6142c.2703-1.4803-.7049-2.8995-2.1852-3.1861l-.0023.0047zm12.8058-183.8162c-1.471-.3172-2.9277.604-3.259 2.0678l-12.6555 56.6627c-.329 1.4803.5875 2.9465 2.0678 3.266a2.906 2.906 0 0 0 .592.0588c1.2454 0 2.3686-.8623 2.6552-2.1288l12.6696-56.658c.3148-1.4803-.604-2.9324-2.0678-3.2661l-.0023-.0024zm22.6745-12.928c-1.4803-.2866-2.8972.7097-3.1604 2.1759l-10.4138 56.7543c-.2655 1.4803.7096 2.8996 2.1852 3.1862.1716.0165.3384.0306.51.0306 1.2828 0 2.4318-.9211 2.6739-2.2322L339.805 113.91c.282-1.4803-.705-2.8995-2.1852-3.172v-.0024z" fill="#EF3E42"/><g fill="#005A9C"><path d="M454.1973 222.4563c0-1.7505-1.0268-2.0207-2.5212-2.0207h-3.1533v6.5086h1.3675v-2.6011h1.1279l1.499 2.5987h1.4945l-1.5743-2.5964c1.1443-.0705 1.7622-.7237 1.7622-1.8868l-.0023-.0023zm-2.4907.7425h-1.821v-1.586h1.492c.6486 0 1.464 0 1.464.7236 0 .698-.4113.8647-1.1373.8647l.0023-.0023z"/><path d="M451.1263 217.4585c-3.4729 0-6.1985 2.7961-6.1985 6.2502 0 3.4775 2.7256 6.2384 6.1961 6.2384 3.4775 0 6.222-2.7632 6.222-6.236 0-3.4541-2.7421-6.2503-6.222-6.2503l.0024-.0023zm0 11.1446c-2.667 0-4.8334-2.0842-4.8334-4.892 0-2.7798 2.1665-4.878 4.8334-4.878 2.6786 0 4.8638 2.0982 4.8638 4.878 0 2.8078-2.1852 4.892-4.8638 4.892z"/></g></g></svg>