<svg width="500" height="500" viewBox="0 0 500 500" xmlns="http://www.w3.org/2000/svg"><title>miami-marlins</title><g fill-rule="nonzero" fill="none"><path d="M314.357 130.3611l-76.7118 140.9194-56.4513-104.7122c28.1572-17.9367 56.2962-32.1576 70.964-39.2133l10.2772-4.9434-25.9774-12.1888 134.969-70.55s-11.4226 3.2998-49.255 15.9118c-28.929 9.6588-85.8508 31.262-91.5585 33.0022 0 0-20.5306 7.6102-45.669-3.3181-26.0996-11.3333-53.996-24.8629-53.996-24.8629 4.6826 25.8625-9.9998 48.5638-23.668 66.0116-13.2231 16.8713-59.722 64.6635-59.1364 108.5849.6822 50.946 46.5152 60.6212 46.5152 60.6212l-59.9062 150.011h97.113l40.8805-104.4953 64.8496 118.8785 64.9153-118.8694 40.7747 104.4861h97.1695L314.3571 130.3611zM106.6692 265.6148a44.888 44.888 0 0 1-2.1379-4.3743 42.5806 42.5806 0 0 1-1.2605-6.0324c-2.3093-16.7984 11.5212-35.295 27.8563-50.8092l-24.4579 61.2159z" fill="#FFF"/><path d="M171.4786 159.996c18.741-12.0503 42.0589-25.1876 72.3212-40.3443h.0073l-9.0988-4.2612-4.3086-2.032c-17.7159 8.8616-42.6207 22.4477-64.5741 36.1651l5.653 10.4723M130.421 294.405a42.6502 42.6502 0 0 1-1.0489-.487c-11.886-4.7646-25.7093-14.1954-32.6774-26.0176-6.545-12.2782-6.5213-28.4162 7.6832-48.9377.0328-.0657.0894-.1222.1386-.186a114.3174 114.3174 0 0 1 3.7067-5.0328c.1295-.1715.301-.3503.4232-.5199a127.121 127.121 0 0 1 4.0404-4.8868c.2517-.2846.5454-.5856.7971-.8774a177.3468 177.3468 0 0 1 10.0893-10.4888c5.9102-5.6675 12.415-11.3424 19.8392-17.1796 1.5688-1.2277 3.2123-2.4717 4.8704-3.723l8.236-20.6036a402.407 402.407 0 0 0-8.4804 5.6584c-83.0289 57.1135-76.67 95.5972-53.1806 115.2886 4.106 3.5206 8.8214 6.7639 13.5532 9.066 6.5377 3.1539 12.7398 6.0889 19.3431 8.1465.7643.228 1.5122.4305 2.26.6658l.3813.1131h.0256" fill="#0077C8"/><path d="M313.611 143.079l-75.9895 139.5786-63.5892-117.9354c29.872-19.4251 60.5648-34.9375 75.778-42.2559l-6.0087-2.8128c-30.2623 15.1549-53.5801 28.2868-72.3212 40.3443l-9.635-17.871-13.5625 33.9379c-1.658 1.2513-3.2925 2.488-4.8704 3.723a267.0504 267.0504 0 0 0-19.8392 17.1797 174.0123 174.0123 0 0 0-10.0893 10.496c-.2517.2937-.5454.5856-.7971.8701a132.7392 132.7392 0 0 0-4.0404 4.8869c-.1223.1714-.2937.341-.4232.5125a112.9553 112.9553 0 0 0-3.7067 5.0401c-.0401.0657-.0985.1222-.1386.1879-14.1954 20.5214-14.2282 36.6613-7.6832 48.9377 6.9754 11.8222 20.7823 21.253 32.6774 26.0176-.1386-.073-.3174-.146-.456-.228-.4396-.2044-1.3006-.6513-1.3006-.6513a11.425 11.425 0 0 1-.6658-.3575 51.2838 51.2838 0 0 0-.675-.3575c-6.5212-3.5607-11.472-7.9022-12.2125-8.8142l47.7757-121.9594.0073.0073 75.8838 140.4232 75.8837-140.4232 105.4784 269.4493h-65.696l-48.6294-124.4804-67.0367 124.0499-67.0294-124.0499-.6257 1.6345v-.0238L122.0137 431.005h-65.687l53.8976-137.7162c.8373.1386 1.7147.2444 2.5702.3812a136.4689 136.4689 0 0 1-9.0896-1.773c-.0328 0-.073-.0073-.0967-.0073-59.6982-30.795-44.0545-107.0764 122.72-184.4468 62.2156-29.4889 104.4789-51.3036 104.4789-51.3036l-17.8546 6.8386c1.4465-.56 2.3732-.9102 2.3732-.9102s-34.3119 15.6601-40.2147 18.254c-34.0492 14.9488-79.7437 35.171-98.7292 44.8535-3.7723 1.9263-9.9032 5.2772-16.7163 9.2611-64.7037 40.6453-112.1529 86.1846-88.047 138.5298-27.6192-32.0754-3.3984-79.1434 25.815-111.675 19.489-21.7727 28.7264-30.7657 38.6624-46.9129 7.8219-12.6594 12.831-25.9537 12.3913-39.319.4397.2024.903.414 1.3408.6183l-11.7565-5.9102c1.317 4.3013-1.5195 30.3681-18.327 53.3613-18.391 25.0817-81.8432 80.5571-62.5968 132.7874 10.6675 28.969 38.117 34.7004 44.9538 35.7821l-.0329-.0091-59.3133 148.5242h85.413l43.7754-111.8775 65.654 120.3652 65.7362-120.3652 43.6532 111.8775h85.4604L313.611 143.079zM107.9223 277.0886a4.312 4.312 0 0 1-.3576-.4141c-4.9525-6.2531-7.4077-11.7893-8.1465-13.619-.6257-2.0576-1.1383-4.407-1.5195-7.1068-3.154-22.9365 18.2686-47.8396 46.4751-70.1103l-36.4515 91.2502z" fill="#C4CED4"/><path d="M118.8597 294.405c.7151.0657 1.4137.1222 2.1306.1715-.715-.0493-1.4155-.115-2.1306-.1715m10.6128.0748c.1131-.0073.228-.0237.3247-.0237a50.6799 50.6799 0 0 1-5.569.2353c1.7475.0255 3.5041-.0474 5.2443-.2116" fill="#C4CED4"/><path d="M136.0978 114.38c-9.9434 16.1471-19.1716 25.14-38.6697 46.9147-29.2135 32.5297-53.4342 79.5977-25.806 111.664-24.115-52.3433 23.3343-97.8754 88.047-138.5298 6.8059-3.9747 12.9368-7.3257 16.7164-9.252 18.9855-9.6842 64.6708-29.9047 98.731-44.857 5.9028-2.594 40.2147-18.2614 40.2147-18.2614l-2.3823.9102c-11.9682 4.553-68.3538 25.9938-80.6648 30.7822-.1788.082 0 0-.0657.0164-6.5286 1.6271-15.797 3.2688-22.4003 3.008-5.237-.146-14.1388-1.2514-24.2536-5.4961-3.0317-1.2933-20.8224-8.6263-35.7347-15.6036a65.5361 65.5361 0 0 0-1.3407-.6184c.4396 13.369-4.5695 26.6542-12.3913 39.3227" fill="#F60"/><path fill="#FFD100" d="M164.3718 202.934l70.736 129.7996 2.7563 5.1459 2.7818-5.1459 70.2727-129.5295v.0237l2.6906-41.6777-75.882 140.425-75.8837-140.425 1.9354 31.8894.5856 9.511z"/><path fill="#0077C8" d="M369.0718 417.2491l-61.5661-156.0177-69.7766 129.0571-69.5814-128.6996-61.4111 155.4505h-26.116l-.146.3484-24.1478 13.6116h65.6869l48.686-124.4803 67.0294 124.0571 67.0294-124.0571 48.6295 124.4803h65.7032l-24.1806-13.7503z"/><path d="M164.3681 202.9505l-.5947-9.5128-1.9335-31.895-47.7758 121.9668c.7406.9194 5.684 5.2517 12.2034 8.805.228.1223.456.2445.675.374.2189.1131.4396.2353.6658.3503l36.7598-90.0883zM56.325 431.0012l24.155-13.6098.1387-.3575h-.0255l46.353-122.357a54.5407 54.5407 0 0 0 2.5282-.2044 47.2064 47.2064 0 0 1-5.2444.2207 61.2002 61.2002 0 0 1-3.236-.1222 110.549 110.549 0 0 1-2.1379-.1623 103.2548 103.2548 0 0 1-6.0652-.7406c-.8537-.1295-1.7402-.2353-2.5684-.374L56.325 431.0012zm338.5838-13.752l24.188 13.7502-105.4876-269.442-2.6906 41.6704 83.9902 214.0213z" fill="#F60"/><path d="M126.9461 294.6786l-46.353 122.3571h26.1398l61.4112-155.4413 69.5813 128.6923 69.7857-129.0571 61.5662 156.0177h25.8315L310.9186 203.226v-.0238l-70.2727 129.5369-2.78 5.1386-2.7563-5.1386-70.7378-129.8068-.0073.0164-36.7508 90.0882s.8629.4542 1.2933.6512c.4962.2354.9924.487 1.5122.7151h-.0237c-.0565 0-.2936.0255-.602.0493-.0966.0072-.2024.0237-.3173.0328-.7735.0638-1.7968.1532-2.53.1933" fill="#FFF"/><path d="M464.7528 430.2661v9.9433h-2.0247v-7.9112h-.0657l-2.8858 7.9112h-1.9591l-2.7727-7.9112h-.0656v7.9112h-2.0248v-9.9433h3.5132l2.3258 6.4957h.0401l2.406-6.4957h3.5133zm-21.6524 1.7804h3.008v8.163h2.0321v-8.163h2.9916v-1.7804h-8.0335v1.7804h.0018z" fill="#C4CED4"/></g></svg>