<svg width="500" height="500" viewBox="0 0 500 500" xmlns="http://www.w3.org/2000/svg"><title>milwaukee-brewers</title><g fill-rule="nonzero" fill="none"><path d="M195.8212 66.206v.0316s.0075-.0168.0224-.0317h-.0224zm195.1402 272.0073l-1.5145-1.5071-12.9129-12.9446s-3.2194-.332-6.6513-.705c-3.4637-9.6954-3.1392-22.5057-.8953-30.2034l13.6831-49.2453 2.783-9.9956 3.3293-11.9225 2.7661-9.9732 3.7976-13.659 1.688-6.034 26.9691-96.9834c.2145-.6827.4048-1.4269.5484-2.1413.0074-.0317.0391-.0391.0466-.056h.0317v-.0242c.444-.388 1.6004-1.2198 2.1786-1.6414 4.9633-3.5196 13.1833-9.3782 17.2177-23.9959l4.2266-15.3078-17.3129-17.3054-78.6167 19.2397-32.7792 57.5063-2.9564 5.1927-50.482 88.59-2.0442-21.4275c-2.3315-24.908-11.9317-46.5575-27.8028-62.6189-.0075-.0242-8.6807-8.6881-10.2102-10.2567h-.0391l-.2612-.278a90.2394 90.2394 0 0 0-7.5876-6.6588c-19.8347-15.649-45.7648-22.8637-73.0603-20.286-25.0032 2.3464-48.2064 14.1197-65.4316 33.1373-17.0853 18.8872-26.4953 42.9558-26.4953 67.752 0 24.7494 8.0689 46.44 22.7276 61.1042l9.41 9.4026c9.7904 9.783 21.9759 15.7591 33.93 16.742l-6.8565 24.8932-1.6414 6.0097-7.0001 25.4004-1.2367 4.6929c-1.1172 4.6462-1.7999 6.295-2.0927 6.8808-6.81 4.4783-15.403 12.51-19.0177 25.7007l-6.3977 22.9738 18.7957 18.7957 6.4928-3.861a494.1102 494.1102 0 0 1 16.1882-9.1395l-2.6952 9.5293-1.039.6025a414.0394 414.0394 0 0 0-53.3674 35.9184l-7.5708 6.0153 14.3397 18.4469 7.722-6.1272c15.9979-12.6685 32.9713-24.1079 50.4893-33.9841 0 0 .4925-.2612 1.0222-.5708l21.2932 5.9761 1.2758-.6024a961.5721 961.5721 0 0 1 9.4566-4.4243c2.4267-1.1173 5.0342-2.2681 7.832-3.5047 38.5913-16.8783 112.1813-41.8647 217.2672-26.818 2.0387.2928 4.0512.5558 6.0974.8803 2.1636.332 4.249.5466 6.4368.927l3.432.5708 3.115-11.9933 21.142 1.8223 2.8706-18.542-19.4616-7.9664 3.2977-12.3271-10.0199-2.1637a230.1519 230.1519 0 0 0-6.1682-1.2515 57.3033 57.3033 0 0 0-1.91-.4048l-.3712-5.8511zM141.0027 192.4359c-8.5296-8.2834-17.837-12.5174-27.6984-12.5174-.0802 0-.1492 0-.1977.0167 1.3467-15.3227 12.2004-28.7298 26.9616-33.7472-1.7365 9.078.9662 16.91 7.5784 22.1027l-6.6439 24.1452zm39.9304 164.7633l14.6979-53.8505 3.473 37.0058 9.093 8.9176a440.4206 440.4206 0 0 0-27.2639 7.9271zm84.6097-18.6614l24.369-42.7917c1.798 15.403 7.6492 29.435 16.8466 40.0573-14.1122.1194-27.9372 1.0296-41.2156 2.7344z" fill="#0A2351"/><path d="M424.5482 92.83v.039c.0075-.0148.0075-.0316.0224-.039h-.0224z" fill="#0A2351"/><path d="M209.9036 378.8096c-6.2 1.673-12.3664 3.527-18.4246 5.4949l20.1443 9.9322a395.8984 395.8984 0 0 1 17.4882-4.4466l-19.208-10.9805zm47.9825-9.9752a395.6491 395.6491 0 0 0-18.9468 3.2026l18.7248 12.3197a403.3117 403.3117 0 0 1 17.9005-2.2905l-17.6785-13.2318zm-8.261-18.1765l-11.6221 17.6543c6.3491-1.2292 12.7804-2.3316 19.247-3.2735l12.8103-17.091c-6.864.7368-13.7037 1.6396-20.4352 2.7102zm-86.0627 43.9332a406.7805 406.7805 0 0 0-17.6001 7.7369l21.1813 7.3732a372.081 372.081 0 0 1 16.8224-6.5562l-20.4036-8.5539zm-22.3806 9.9863a413.145 413.145 0 0 0-17.0686 8.8243l21.6029 6.0564a389.7991 389.7991 0 0 1 16.3933-7.5858l-20.9276-7.2949zm45.2947-18.6073a380.2542 380.2542 0 0 0-18.0515 6.6364l20.7076 8.6882a395.174 395.174 0 0 1 17.186-5.5248l-19.842-9.7998zm27.4298-12.2265c6.31-1.6413 12.6275-3.1149 19.0177-4.454l11.6855-17.798a451.0725 451.0725 0 0 0-20.2543 3.9637l-10.4489 18.2883zm19.7955-.6975a406.4047 406.4047 0 0 0-18.71 4.385l19.5102 11.1615a411.4987 411.4987 0 0 1 17.7418-3.3611l-18.542-12.1854zm48.9953-26.3014c-2.5777.1977-5.0827.4514-7.6268.6976l-12.6293 16.8615c6.4368-.8487 12.8904-1.5295 19.4056-2.0778l13.8175-16.274c-4.303.1977-8.6229.4589-12.967.7927zm-19.6164 21.3548l17.9937 13.4612c1.4344-.1193 2.8631-.2853 4.3124-.388 4.5585-.3655 9.1246-.6192 13.6832-.8076l-16.8858-14.3005c-6.42.5204-12.786 1.1937-19.1035 2.035zm-72.911 12.6144a397.8571 397.8571 0 0 1 18.6912-5.605l10.6075-18.5494c-6.7148 1.578-13.3736 3.307-19.9615 5.2095l-9.3373 18.945zm224.5153-5.7896c-29.7445-8.11-60.4626-13.5563-92.395-14.0469l3.3536 1.9417-3.1858 1.8876c31.4325.5223 62.5554 3.5663 92.1563 10.6224l.071-.4048zm-292.5713 35.204a362.4111 362.4111 0 0 1 17.3446-8.966l7.0319-20.1518a416.11 416.11 0 0 0-18.6932 8.8l-5.6833 20.3178zm44.7763-21.0489a419.8327 419.8327 0 0 1 18.3275-6.7465l9.4342-19.1128a410.6949 410.6949 0 0 0-19.6201 6.4294l-8.1416 19.43zm-22.7202 9.854a403.0401 403.0401 0 0 1 17.8669-7.8713l8.2852-19.7152a388.731 388.731 0 0 0-19.2004 7.6268l-6.9517 19.9596zm247.2355-13.5658c-29.5225-6.3976-59.9161-10.1784-91.3002-8.9175l4.415 3.7024c29.5225-.871 58.7504.444 86.7733 5.564l.112-.3489zm-95.6629-33.9207l-10.544 12.4149 12.8587 10.82 20.0716-12.01-22.3863-11.2249zM67.7988 450.7992a398.5862 398.5862 0 0 1 51.7335-34.8496l-2.0051-3.266a399.7986 399.7986 0 0 0-52.06 35.0865l2.3316 3.0291zM427.915 45.3585l-2.7195 9.839c-3.1 11.2658-9.078 15.5148-13.4128 18.6222-3.1857 2.2438-4.9073 3.488-5.9052 6.8565L350.1879 280.789c-3.6633 12.5883-2.8071 32.4155 4.939 43.9257 2.244 3.3294 4.8757 5.549 7.8489 6.8025-6.2783-11.7322-6.8024-29.6401-3.4096-41.3182L415.28 90.0862c.983-3.3854 2.7363-4.6127 5.8754-6.8565 4.3684-3.1224 10.352-7.3732 13.4613-18.6297l2.6952-9.8297-9.397-9.4118zm-60.2445 298.9969c-20.6908 4.8831-39.091.2462-51.8528-13.0714 1.8223 1.8783 8.1248 8.0465 9.41 9.4025 1.9976 2.0853 4.1855 3.8853 6.461 5.549-10.2418-.58-20.5396-.8636-30.9792-.483l-3.3145 3.9393c13.2467-.5857 26.3666-.5633 39.4082-.1754 11.3516 6.2317 25.1934 7.8003 40.2624 4.2415l3.0683-.7442c5.7392.776 11.4878 1.5295 17.1394 2.5759l.0802-.334c-5.0491-1.0855-10.1542-1.9733-15.2518-2.8929l-.6268-9.837-9.4174-9.4175.6342 10.0273-5.0212 1.2199zm-122.7513-15.2966c-11.915 1.4754-27.0885 4.3217-36.45 6.8099l9.576 9.41c8.0782-2.1805 26.4226-5.549 36.2914-6.81l52.599-92.2271c3.7173-13.4127 9.0444-32.63 13.9592-50.411l-75.9756 133.2282zm-106.1305-204c-25.2251 2.3708-44.9963 23.7423-44.9963 48.6504 0 6.8733 2.4024 13.4836 6.6905 18.7006 1.3075-.5782 2.7101-.927 4.083-1.3243-.0877-.0317-.1754-.0317-.2705-.071a29.6288 29.6288 0 0 1-1.1173-7.9121c0-24.8931 19.7712-46.2722 45.0187-48.6429a49.5288 49.5288 0 0 1 23.1249 3.3462l4.3609-1.0706a49.3852 49.3852 0 0 0-36.8939-11.6762zm-25.4862 127.6383c-10.4564 0-21.5637-5.1219-30.5055-14.0394 1.5854 1.5705 7.8245 7.8096 9.4323 9.4025 8.9027 8.9176 20.0175 14.0394 30.4496 14.0394 3.3928 0 6.6737-.5558 9.7345-1.5462l5.398-19.596c-5.784 7.1513-14.6159 11.7397-24.509 11.7397zm188.998 10.2978c.1977-.7927.6566-2.4024 1.2833-4.6537-.6342 2.283-1.0875 3.8778-1.2833 4.6537zm-50.314-13.4593l7.3246-12.8345c-2.3949-24.9883-4.9708-52.1159-4.9708-52.1066-2.1487-22.8152-10.7342-42.2134-25.0031-56.6968-1.7197-1.7271-8.6322-8.6564-10.4247-10.4172-.0074 0-.0149 0-.0223-.0074 14.8955 14.586 23.8373 34.3572 26.0327 57.7114l7.0635 74.351zm-91.1417 100.3707c-27.025 9.1954-57.7357 25.1934-74.9385 35.4912l9.4249 9.3932c19.8812-11.7564 47.755-26.335 74.8509-35.301l30.1473-110.454-3.0514-32.684-36.4332 133.5546z" fill="#B6922E"/><path d="M355.1326 324.7147c-7.7518-11.5102-8.6005-31.3374-4.9466-43.9257l55.6896-200.1203c.9998-3.361 2.727-4.6145 5.9053-6.849 4.3366-3.1074 10.3146-7.3564 13.4127-18.6223l2.7195-9.839-69.19 16.9492L259.313 236.703l-7.3247 12.8345c-2.5833-27.2302-7.0635-74.351-7.0635-74.351-2.1954-23.3543-11.139-43.133-26.0328-57.7115a82.6007 82.6007 0 0 0-6.7782-5.9537c-17.8612-14.0954-41.3349-20.5714-66.1086-18.2492-22.5373 2.1412-43.5135 12.7785-59.0824 29.9739-15.4831 17.0928-24.0034 38.828-24.0034 61.2162 0 22.1177 7.0803 41.3816 19.8831 54.1993 8.9419 8.9176 20.0399 14.0394 30.5037 14.0394 9.893 0 18.7248-4.5903 24.5051-11.749l-5.3904 19.596-19.8272 72.0754c-.9345 3.2828-3.0608 11.7732-6.6905 14.198-4.3366 2.9097-11.9933 9.7196-15.125 21.0713L85.91 385.3882c17.2028-10.2904 47.9135-26.2865 74.9385-35.4838l36.4257-133.5528 3.059 32.684 8.1416 86.8294c9.354-2.4882 24.5275-5.3345 36.4425-6.81l75.9756-133.2282c-4.9148 17.781-10.2419 36.9965-13.9592 50.411-1.371 4.9858-2.5218 9.0855-3.3462 12.1053-.6342 2.2513-1.0856 3.8535-1.2926 4.6537-.0597.194-.115.3892-.166.5857-7.0729 25.0423-1.7123 51.6085 13.6906 67.6996 12.7637 13.3102 31.1546 17.949 51.8529 13.0733l5.01-1.2217-.6342-10.0274-5.1443-.539c-1.3802-.1437-2.6803-.5465-3.9318-1.0539-2.9732-1.2497-5.605-3.4693-7.8395-6.7987zM171.3198 137.8095l-20.3102 4.9857-.9438 3.3928c-3.4246 12.3197 4.939 15.7274 8.0856 16.9977.2537.11.595.2368.8879.3637-.0709.3562-14.5785 53.1137-14.5785 53.1137-.9195-6.698-4.027-12.883-8.8859-17.7493a31.2479 31.2479 0 0 0-22.2687-9.2272c-2.9955 0-5.9053.5633-8.7441 1.3951-1.3728.4048-2.7754.7536-4.083 1.3318a29.4647 29.4647 0 0 1-6.683-18.7006c0-24.908 19.7712-46.2796 44.9889-48.6503a49.3758 49.3758 0 0 1 36.9013 11.6781l-4.3665 1.0688z" fill="#FFF"/><path d="M155.8666 345.2414l44.321-162.139 13.6348 145.4043c4.8682-1.0147 16.5929-3.4954 27.3906-4.9708l98.2835-172.3585-31.5743 114.0278c-10.8685 38.3692 10.0517 84.7365 58.3457 73.3214-22.2445-2.3613-28.0323-38.1156-21.8715-59.3528l55.7139-200.167c3.4804-11.8347 14.6661-8.537 19.3198-25.4079l-56.7845 13.9052-114.8055 201.452-8.8635-93.1952c-4.9297-52.3527-45.748-80.8904-92.4174-76.5072-43.7131 4.1147-77.6487 42.1985-77.6487 85.2047 0 41.5867 25.6373 62.2458 44.3938 62.2458 14.0786 0 25.5254-11.4319 25.5254-25.518 0-14.0954-11.4468-25.518-25.5254-25.518-5.1927 0-9.9882 1.5463-14.017 4.1856a35.3364 35.3364 0 0 1-11.471-26.1446c0-28.0714 21.8248-51.9163 50.411-54.6115 19.5175-1.8391 37.6623 6.6588 48.9599 20.991l-31.3374 7.6903c-3.8368 13.8417 12.0903 6.0638 8.8392 17.9321l-47.6916 172.8976c-5.342 19.4392-14.7687 9.7196-21.4032 34.1762 17.1468-9.5387 38.7087-19.7264 60.2724-27.5435zM405.661 321.93h-4.717v12.827h-3.1952V321.93h-4.7003v-2.7904h12.6125v2.7904zm21.3567 12.8252h-3.1951v-12.4223h-.0802l-4.5101 12.4223h-3.0925l-4.3683-12.4223h-.071v12.4223h-3.1876v-15.6174h5.5173l3.639 10.2027h.0635l3.7975-10.2027h5.4856v15.6174h.0019z" fill="#0A2351"/></g></svg>