<svg width="500" height="500" viewBox="0 0 500 500" xmlns="http://www.w3.org/2000/svg"><title>minnesota-twins</title><g fill-rule="nonzero" fill="none"><path d="M240.2805 340.2605c10.8102 1.5929 22.0579 2.4514 33.6781 2.203 4.1308-.054 8.1752-.3077 12.2034-.6155l.9504-262.1735c37.9952 1.115 77.929 5.4943 113.7023 15.8753 2.735 15.4054 24.9468 45.2363 48.4734 48.4734 0 0-9.0716-56.033-6.5445-85.0836C391.2031 44.4845 224.1623 26.622 83.95 57.0712c0 0-.5022 71.6627-10.0894 86.0044 0 0 46.0597-11.9983 56.4002-52.9067 0 0 49.1565-8.7097 112.4766-10.4944l-.837 90.8641-.0324 3.5423-1.593 166.1769.0055.0027zm-.567 58.571l-.162 19.0016-26.3291 43.7595 105.527-2.0384-32.8573-40.1579.0648-19.5308c-4.228.2808-8.456.5588-12.7542.6425-11.6365.2241-22.76-.3887-33.4865-1.6739l-.0027-.0027zm92.5515 16.2153l-2.2733 6.1935h-.0972l-3.8338-10.8804h-5.8776v16.6041h3.3748v-13.1753h.073l4.6572 13.1753h3.2533l.729-2.0114 4.1038-11.1666h.054v13.1753h3.4018v-16.6041h-5.8317l-1.7333 4.6896zm-20.114 11.9145v-13.591h4.9947v-3.0158h-13.3913v3.013h5.0217v13.5884l3.3749.0054z" fill="#002B5C"/><path d="M287.0044 113.2177l-.2079 58.6034c60.2989 3.4612 108.7858 32.5928 117.9249 70.6285l59.289-1.142c-8.877-69.1005-83.7633-123.0978-177.0087-128.0926l.0027.0027z" fill="#D31145"/><path d="M286.1674 341.8534c-4.0309.3024-8.078.5535-12.2034.6129-11.6283.2483-22.8679-.6156-33.6835-2.2058-57.8366-8.4236-101.1452-40.9651-101.885-80.7612-.783-40.8814 43.549-75.8474 103.4752-85.4184l.027-3.545.486-53.0524c-48.9297 6.728-94.8194 31.4535-125.22 63.096-25.376 30.7028-66.217 70.9984-83.1532 77.47 0 0 63.636 52.1533 76.0823 72.694 27.112 34.1857 71.4277 61.341 129.6207 68.0906 10.732 1.2825 21.8554 1.898 33.4892 1.674 4.2982-.081 8.5235-.3618 12.7542-.6426 87.5405-5.8587 158.4336-54.2188 175.1782-116.5048l-62.7314 1.2015c-17.0902 30.441-60.18 53.2954-112.2336 57.2912h-.0027z" fill="#D31145"/></g></svg>