<svg width="500" height="500" viewBox="0 0 500 500" xmlns="http://www.w3.org/2000/svg"><title>new-york-yankees</title><g fill="none" fill-rule="evenodd"><path d="M428.3776 401.2722c-6.0595 7.2793-41.8745 42.5284-72.8082 63.7278-5.1447-73.9337-40.7008-121.5123-98.9439-162.0793v.0263c-1.821 39.4679-2.0184 74.0917-.6143 98.3252 1.2154 20.9625 11.2502 33.709 27.61 47.0587-21.2368 4.8397-83.4617 3.927-104.6743-2.7204 2.4352-1.8077 28.674-16.3575 30.949-63.7321 1.5972-34.049 1.8056-59.1996.6033-100.7604l-2.4747-10.6513c-28.3558-20.8857-53.0918-42.3748-84.9381-76.7638 29.1434 77.0994-7.8892 172.9653-12.1168 208.1705-1.4392 11.8294-5.1776 35.826-3.9643 60.404-9.0827-5.4693-45.8301-29.4418-63.4031-52.4995 51.284-87.7024 88.2926-173.8582 7.876-252.1643 15.1948-22.7724 37.6382-43.1053 55.527-51.8983 18.8564 54.3072 60.1013 97.4081 89.8613 116.2009-22.7856-84.3766-51.951-111.9624-70.417-121.3873C138.551 72.114 178.6333 42.5645 199.8854 35c-9.7233 31.537-10.5482 52.188-.9302 85.8684 9.7122 33.9985 24.9005 75.272 41.8745 106.232 9.1221-15.7828 41.2975-82.547 49.7681-111.675 8.5298-29.1303 8.5298-55.22 4.866-74.0697 18.5164 9.3963 58.2694 46.745 67.3806 64.9607-19.4224 4.2122-28.5292 14.1856-40.0602 33.9437-11.8535 20.3591-41.8855 97.1492-58.5678 130.2066 17.6125 15.2036 48.2478 34.3078 72.5077 63.4623-26.693-105.0253.6143-184.8496 35.8304-208.7694 16.3817 4.8156 37.3047 18.1653 52.5104 33.9722-57.0803 23.9725-53.399 96.8092-53.717 102.2259-2.602 41.7714 14.2514 115.9903 45.8674 134.0766 6.8668 3.949 7.5622 4.2123 11.1602 5.8358-6.0573 7.2814-41.8723 42.5305-72.806 63.7299" fill="#132448" fill-rule="nonzero"/><path d="M428.3776 401.2722c-6.0595 7.2793-41.8745 42.5284-72.8082 63.7278-5.1447-73.9337-40.7008-121.5123-98.9439-162.0793v.0263c-1.821 39.4679-2.0184 74.0917-.6143 98.3252 1.2154 20.9625 11.2502 33.709 27.61 47.0587-21.2368 4.8397-83.4617 3.927-104.6743-2.7204 2.4352-1.8077 28.674-16.3575 30.949-63.7321 1.5972-34.049 1.8056-59.1996.6033-100.7604l-2.4747-10.6513c-28.3558-20.8857-53.0918-42.3748-84.9381-76.7638 29.1434 77.0994-7.8892 172.9653-12.1168 208.1705-1.4392 11.8294-5.1776 35.826-3.9643 60.404-9.0827-5.4693-45.8301-29.4418-63.4031-52.4995 51.284-87.7024 88.2926-173.8582 7.876-252.1643 15.1948-22.7724 37.6382-43.1053 55.527-51.8983 18.8564 54.3072 60.1013 97.4081 89.8613 116.2009-22.7856-84.3766-51.951-111.9624-70.417-121.3873C138.551 72.114 178.6333 42.5645 199.8854 35c-9.7233 31.537-10.5482 52.188-.9302 85.8684 9.7122 33.9985 24.9005 75.272 41.8745 106.232 9.1221-15.7828 41.2975-82.547 49.7681-111.675 8.5298-29.1303 8.5298-55.22 4.866-74.0697 18.5164 9.3963 58.2694 46.745 67.3806 64.9607-19.4224 4.2122-28.5292 14.1856-40.0602 33.9437-11.8535 20.3591-41.8855 97.1492-58.5678 130.2066 17.6125 15.2036 48.2478 34.3078 72.5077 63.4623-26.693-105.0253.6143-184.8496 35.8304-208.7694 16.3817 4.8156 37.3047 18.1653 52.5104 33.9722-57.0803 23.9725-53.399 96.8092-53.717 102.2259-2.602 41.7714 14.2514 115.9903 45.8674 134.0766 6.8668 3.949 7.5622 4.2123 11.1602 5.8358-6.0573 7.2814-41.8723 42.5305-72.806 63.7299" stroke="#FFF" stroke-width="9.82856"/><path d="M429.2003 361.4402h-5.9783v16.2786h-4.0587v-16.2786h-5.963v-3.5585h16v3.5585zm27.1163 16.2786h-4.0301v-15.7565h-.1053l-5.748 15.7565h-3.9117l-5.5505-15.7565h-.1163v15.7565H432.84v-19.837h6.9985l4.6072 12.9548h.1097l4.787-12.957h6.9765v19.837l-.0022.0022z" fill="#132448" fill-rule="nonzero"/></g></svg>