<svg width="500" height="500" viewBox="0 0 500 500" xmlns="http://www.w3.org/2000/svg"><title>new-york-mets</title><g fill-rule="nonzero" fill="none"><path d="M445.8125 233.2927c-2.9231-8.8313-6.2649-18.7946-5.7873-27.5747.0109-.1023.0109-.2233.028-.3256l.248-4.0629-3.8054-1.4577-15.0217-5.6756-1.5616-.583-3.2657-1.2344-.8653 1.9198-1.2778 2.7758c-4.218 9.2965-14.4464 26.5636-22.6093 39.6314-17.4734 27.9344-24.0934 35.0506-26.4861 36.7828-.5149.3768-.8374.5148-1.0297.566-1.329.2403-2.8114-.1706-3.8581-1.0793-.9863-.8219-1.5166-2.0749-1.4577-3.3806.6094-5.9144 16.926-62.7602 21.1361-77.1321l47.782-7.8358 4.6552-17.2686 2.1617-7.9893-39.802 6.4308-7.9645 1.287 7.8079-29.1718-36.268 5.5205s-6.2695 21.3843-8.7041 29.5983l-21.5952 3.5512-7.7845 25.7572 8.29-1.4235 14.0092-2.351c-.7444 2.6053-1.5089 5.316-2.306 8.0948-6.4385 22.6-14.2664 48.838-16.6437 53.2776-1.8081 3.345-9.5678 12.1576-19.1202 20.0817-10.6378 8.8142-23.5087 16.546-32.906 14.4216-.3443-.0838-.6358-.1551-.9087-.2388 10.6146-5.7795 34.5606-20.6648 38.5133-39.388 1.923-9.022.3009-15.949-2.7602-21.1098-4.2086-7.0309-11.1884-10.7526-15.7676-11.7295-22.234-3.055-36.2524 12.2071-41.1124 18.6736-10.1354 11.6256-19.0892 31.4328-21.3594 46.7972-.2481 1.3553-.3598 2.813-.3505 4.3575-33.258 22.324-30.2232 9.6175-28.7904-6.4323 1.7058-19.5854 12.6972-61.4592 30.9676-118.015.49-1.4732 3.5155-11.3357 3.5155-11.3357l-39.6547 6.5703-.8839 3.4798c-2.1508 8.4204-22.842 55.1308-38.8142 90.611 2.813-25.551 7.296-60.121 12.9205-81.7642l2.1183-8.1459-41.9234 6.6882-1.0297 3.9792c-1.225 4.7141-3.5139 13.5314-14.406 44.4308-3.3248 9.4841-17.9883 51.9084-18.852 54.3942-8.6684 22.017-18.4937 46.9166-27.6848 47.7726-1.8608.1861-3.1557-.3597-3.807-1.5941-1.1242-2.078-.4466-8.1645 5.1096-18.5387l5.8555-10.9573-24.188 6.0865-1.166 1.9027c-12.5872 20.4073-16.1615 38.8235-9.8316 50.5004 3.9342 7.2387 11.238 11.3868 20.0693 11.3356h.8405c14.7736-.5117 29.7007-11.9683 39.912-30.6264 4.311-7.9241 11.266-24.7447 17.399-40.4022-1.0901 18.5372-3.0363 38.1552-9.0297 54.875l-2.906 8.0791 30.2697-2.6238 28.2074-57.6708c-3.0363 20.9392-.3877 33.7667 7.893 40.0238 4.28 3.241 9.5804 4.8025 15.7785 4.5792 12.75-.4265 26.6815-8.3475 36.1656-14.9333l14.91-10.5991c5.9672 6.516 13.9316 10.7526 22.9878 11.9715 1.774.2372 3.6519.3923 5.691.3923 13.9781 0 34.0319-6.6867 58.8804-32.8564 1.3104 2.9308 3.1371 5.8493 4.9468 7.7535.7908.856 1.6437 1.6081 2.5462 2.3463 4.2536 3.3107 9.6873 5.111 16.1708 5.3189 16.5647.5117 35.6353-10.1727 42.6212-23.667 7.479 7.89 19.3683 11.2861 28.9052 10.4798 7.8884-.6358 22.2495-4.3219 29.7953-21.6588 5.4972-12.6026.7986-26.6799-3.7527-40.2625h-.0093zm-164.22 17.8486c3.3434 2.4191-5.2987 13.7548-13.916 16.36 1.6205-9.2919 11.162-18.3449 13.9145-16.36h.0016zm128.535 18.2674c-4.055-1.7368-2.264-8.5072 7.7846-14.3906l-9.1538-4.528c2.3912-3.8567 4.6986-8.2653 6.6618-13.561 4.156 9.9803 6.1036 37.3674-5.291 32.4796h-.0015z" fill="#FFF"/><path d="M440.5292 235.1101c-3.3185-9.8594-6.6867-20.2832-6.071-29.9566l-15.0186-5.6755c-4.7452 10.4254-15.9227 28.9796-22.9536 40.2455-24.1088 38.535-28.5485 39.357-31.2002 39.8686-2.968.532-6.13-.3256-8.4359-2.3136-2.2562-1.9353-3.517-4.7994-3.3883-7.8156.1706-5.7996 22.2837-81.7812 22.3457-81.7812l47.6967-7.8031 3.7465-13.6152-47.8238 7.7535 7.8342-29.189-24.4702 3.6364S354.13 178.01 354.088 178.01l-21.5905 3.5464-4.0985 13.8742 21.9317-3.6519s-17.2935 62.6579-21.71 70.8735c-3.703 6.893-36.043 42.2676-58.105 37.2635-9.098-2.0593-7.0634-8.0435-7.0634-8.0435s35.9919-16.8562 40.4859-38.104c3.9434-18.7946-11.404-26.0798-15.5614-26.4085-17.2857-2.0392-30.9878 12.418-34.3637 16.9275-10.092 11.5574-18.8566 31.8453-20.4585 45.8032-.0682 1.3554-.0155 2.8968.1551 4.4413-44.5084 29.8728-41.3 8.9863-39.895-9.6361 2.9417-33.852 30.7738-117.6879 32.0934-122.0097l-27.3591 4.528c-3.6318 14.2464-52.8636 121.7461-52.8636 121.7461s6.3424-77.2345 16.3336-115.6114l-30.0775 4.7824c-1.194 4.528-3.3263 13.119-14.6697 45.3737-3.4581 9.8082-18.8985 54.481-18.8985 54.481-12.2785 31.1909-20.5965 50.2088-32.3167 51.3237-5.8043.549-8.3428-2.9463-9.1554-4.4753-3.0952-5.6911.8374-15.7583 5.1018-23.732l-9.9819 2.5385c-11.3775 18.4534-15.0201 35.1188-9.6702 44.9968 2.9743 5.4694 8.3676 8.4886 15.2124 8.4545 10.2502-.0186 24.8455-7.462 35.9485-27.7825 8.9352-16.3243 29.9504-73.4927 29.9504-73.4927-2.6052 24.2454-.9258 62.7603-11.5931 92.461l18.6333-1.6128 50.491-103.1964c-15.87 48.3045-18.9744 77.7323-7.5209 86.3899 10.1525 7.6667 27.6336 1.9383 45.4512-10.4425l19.0939-13.5997c13.1345 19.1404 46.1211 26.5636 90.1984-25.1525-.5319 6.0354 1.3724 10.2037 1.3724 10.2037 3.2658 7.645 9.5772 11.6582 18.7325 11.9342 14.5085.4265 31.7337-9.0716 37.5985-20.7702l4.7917-7.614c4.4505 10.5635 17.6656 16.1026 28.5175 15.2125 6.6727-.549 18.8039-3.6535 25.202-18.3836 4.674-10.6487.4885-23.1133-3.9015-36.3362zm-155.4274 11.5931c6.2742 4.0628 2.8626 12.0893-4.314 18.6922-5.2414 4.801-12.7236 8.9166-19.6708 11.404-1.6654-14.9179 13.212-37.0232 23.9817-30.0962h.0031zm134.192 26.8893c-1.5274 1.3708-5.7454 4.2179-11.925.8746-3.1572-1.7151-5.0521-4.8196-5.1204-8.3692-.0356-2.1757.4963-6.1718 4.4738-10.0982l-5.9748-3.12c2.5819-4.2335 14.7224-26.117 16.2979-30.4373l3.4736 12.3979c3.303 7.9194 6.9782 31.3088-1.225 38.7522z" fill="#FF5910"/><path d="M461.4498 285.3871l-2.0625 5.5748h-.0279l-2.0004-5.5732h-3.0239v8.5444h1.7368v-6.7766h.0435l2.385 6.7766h1.7057l2.4858-6.7766h.0248v6.7766h1.74v-8.546m-18.5946 1.5445h2.5819v6.9984h1.7337v-7h2.5897v-1.5429h-6.9053" fill="#FFF"/></g></svg>