<svg width="500" height="500" viewBox="0 0 500 500" xmlns="http://www.w3.org/2000/svg"><title>oakland-athletics</title><g transform="translate(-57.1429 -57.1429) scale(1.22857)" fill-rule="nonzero" fill="none"><circle fill="#FFF" cx="250" cy="250" r="175"/><path d="M250 86.7522c-90.022 0-163.2478 73.2395-163.2478 163.2478 0 90.0278 73.224 163.2517 163.2478 163.2517 90.0083 0 163.2497-73.2278 163.2497-163.2517 0-90.0083-73.2394-163.2478-163.2497-163.2478zm0 263.2c-55.1094 0-99.9542-44.831-99.9542-99.9522 0-55.1056 44.8448-99.9542 99.9542-99.9542 55.1056 0 99.9542 44.8467 99.9542 99.9542 0 55.125-44.8448 99.9542-99.9542 99.9542v-.002z" fill="#003831"/><path d="M250 81.7803c-92.7578 0-168.2197 75.4639-168.2197 168.2197S157.2442 418.2275 250 418.2275c92.7578 0 168.2217-75.4639 168.2217-168.2256 0-92.7616-75.464-168.2216-168.2217-168.2216zm0 331.4733C159.978 413.2556 86.7522 340.0278 86.7522 250 86.7522 159.9917 159.98 86.7542 250 86.7542c90.0083 0 163.2497 73.2375 163.2497 163.2477 0 90.0278-73.2394 163.2556-163.2497 163.2556v-.0039z" fill="#EFB21E"/><path d="M250 154.7164c-52.5428 0-95.2836 42.7447-95.2836 95.2836 0 52.5389 42.7389 95.2836 95.2836 95.2836 52.5389 0 95.2856-42.7428 95.2856-95.2836 0-52.5389-42.7448-95.2836-95.2856-95.2836z" fill="#FFF"/><path d="M250 150.0458c-55.1094 0-99.9542 44.8486-99.9542 99.9542 0 55.1211 44.8448 99.9542 99.9542 99.9542 55.1056 0 99.9542-44.833 99.9542-99.9542 0-55.1056-44.8448-99.9542-99.9542-99.9542zm0 195.2417c-52.5428 0-95.2836-42.7447-95.2836-95.2856 0-52.5408 42.7389-95.2797 95.2836-95.2797 52.5389 0 95.2856 42.7428 95.2856 95.2836 0 52.539-42.7448 95.2856-95.2856 95.2856v-.0039z" fill="#EFB21E"/><path d="M303.2661 287.903c-2.625 1.8959-5.7128 3.1695-8.6236 2.625-2.3528-.4219-5.5222-2.1466-7.2917-8.015 0 0-19.3141-79.9827-19.351-80.1694-1.4623-9.7222-6.6248-15.0636-10.7062-17.8305-5.2247-3.5525-11.7561-4.8806-17.4689-3.539-8.9055 2.0728-12.211 6.7045-13.4439 10.3153 3.7392-1.8608 7.6864-1.0266 10.1695.5873 1.5828.9839 5.3025 3.2822 2.8525 9.8544l-3.4359 9.0222-1.8433-.5327a14.3967 14.3967 0 0 0-6.4205-.3228c-3.7723.63-6.4167 2.1116-7.8556 4.3886-.8944 1.4253-1.1783 2.9633-1.2542 4.3322 3.1345-1.75 6.3059-1.2561 8.5848.2236 1.6138 1.0442 3.0333 2.4306 3.0333 5.2636 0 .914-.1497 1.9775-.492 3.2473l-20.51 68.6836-1.0247.3422c-10.496 3.5117-13.3097 9.3042-14.0272 13.022 3.2083-1.8395 8.3553-4.1923 15.5867-4.9 3.0002-.2995 6.611.626 10.1033 1.505 2.8292.7194 5.7556 1.4622 7.8789 1.4058 2.6775-.0584 4.7133-.8361 6.057-2.3003 1.3883-1.5167 1.75-3.4747 1.8044-5.143-1.194-.6612-3.3056-1.8415-5.2247-2.9245-.4667.6805-1.0384 1.2367-1.7384 1.6333-1.1394.6456-3.1208 1.1764-6.0978.0195l-1.783-.7 8.1025-28.2178h29.857l1.6138-.0389 5.3706 20.9806c3.5894 14.6222 14.206 18.1163 22.2016 16.6736 7.6125-1.367 13.0823-8.7578 15.3806-19.4834l-.0039-.0077zm-70.5444-29.6041l11.4294-39.482 2.242-7.7641 10.8247 47.246h-24.4961z" fill="#003831"/><path d="M244.1511 218.8189l-11.4294 39.4839h24.496l-10.8246-47.25-2.242 7.766zm-5.8644 35.2994c1.0383-3.5641 5.1022-17.603 7.6339-26.39 2.0105 8.7983 4.0282 17.595 6.053 26.39h-13.6889.002z" fill="#EFB21E"/><path d="M303.97 281.5583c-2.0922 2.7223-5.8139 5.359-8.5828 4.8611-1.746-.3208-3.0975-2.0086-4.0055-4.9972.0194.0972-19.2773-79.8816-19.2773-79.8816-1.2736-8.5809-5.7166-15.9134-12.4541-20.4906-6.1756-4.1961-13.9417-5.7556-20.7725-4.1611-19.0653 4.447-17.364 19.6389-17.3561 19.7886l.661 5.2247 3.1112-4.2583c3.1694-4.3439 7.0505-3.5097 8.6605-2.4656 1.2017.7584 2.0884 1.2911 2.0884 2.6775 0 .6086-.1711 1.3806-.5503 2.3917l-2.1661 5.6739c-2.0728-.3578-4.1806-.525-6.3389-.1653-5.0011.8556-8.6061 2.9808-10.71 6.3233-3.1928 5.1023-1.5361 11.0309-1.4642 11.2778l1.118 3.8695 2.5279-3.1267c2.7514-3.3833 5.2208-2.5511 6.44-1.7539 1.0033.6456 1.5555 1.0053.7972 3.8558l-19.9033 66.6362c-14.354 5.2947-16.0281 15.0013-16.0281 19.0244 0 1.0889.1167 1.7694.1167 1.8044l.665 3.4553 2.73-2.2555c.0583-.0428 6.3972-5.1723 16.8777-6.2145 2.2634-.2255 5.5087.6028 8.647 1.4 3.1111.7856 6.3194 1.6022 9.0183 1.5245 3.7995-.0973 6.93-1.3534 9.0359-3.6498 2.131-2.3138 3.15-5.5416 2.9263-9.3002l-.0583-1.155-11.9233-6.65-.5114 2.8914c-.0583.3752-.247 1.0402-.7195 1.3066a1.4136 1.4136 0 0 1-.6669.1361c.9644-3.3444 5.3861-18.7639 6.09-21.1944h25.0872l4.5384 17.7528c4.0055 16.3139 16.45 21.6883 27.0044 19.7886 11.0153-1.9775 18.6667-13.2942 19.95-29.5322l.175-2.2556h-2.2594c-1.1025 0-1.5984.6514-2.524 1.8433h.0059zm-38.2861 9.1545l-5.3706-20.9806-1.6139.039h-29.855L220.74 297.985l1.783.7c2.975 1.1589 4.9584.628 6.0959-.0194.7-.3948 1.2697-.949 1.7403-1.6295a964.717 964.717 0 0 0 5.2247 2.9245c-.0525 1.6683-.418 3.6283-1.8083 5.143-1.3417 1.4583-3.3756 2.2361-6.055 2.2983-2.1273.0545-5.0498-.6863-7.879-1.4038-3.4922-.875-7.101-1.8045-10.1013-1.505-7.2334.7077-12.3803 3.0605-15.5847 4.9.7194-3.7178 3.5291-9.5084 14.0272-13.024l1.0247-.3422 20.512-68.6797c.3402-1.2697.4919-2.3333.4919-3.2472 0-2.8311-1.4195-4.2194-3.0333-5.2636-2.279-1.4778-5.4503-1.9756-8.5848-.2236.0778-1.367.3578-2.907 1.2542-4.3303 1.4428-2.275 4.0833-3.7567 7.8556-4.3867a14.3403 14.3403 0 0 1 6.4205.3248l1.8433.5327 3.4378-9.0222c2.45-6.5722-1.2697-8.8667-2.8486-9.8525-2.4889-1.6139-6.4322-2.45-10.1694-.5872 1.2308-3.6128 4.5344-8.2445 13.442-10.3153 5.7127-1.3417 12.244-.0155 17.4688 3.5389 4.0833 2.767 9.2439 8.1083 10.7061 17.8306.0389.1847 19.3472 80.1694 19.3472 80.1694 1.7695 5.8722 4.9428 7.595 7.2917 8.015 2.9108.5444 6.0025-.7272 8.6256-2.625-2.2945 10.7275-7.7642 18.1164-15.3806 19.4833-7.9956 1.4428-18.6122-2.0514-22.2017-16.6716l-.002-.004z" fill="#EFB21E"/><path d="M311.635 227.9947s-2.4656-.7389-2.5044-.7428c-1.8784-.6066-5.3725-1.7422-5.3725-5.0672 0-2.9283 2.9069-4.6939 5.7322-4.6939 1.9755 0 3.916.7448 5.736 1.8414.7195-1.4194 1.5226-2.9808 2.279-4.441-2.8856-1.3456-6.3584-2.275-9.3975-2.275-6.7025 0-11.2 4.3632-11.2 10.8421 0 5.843 2.5628 7.1556 9.1894 9.0359 2.3528.661 6.7045 1.8997 6.7045 5.6777 0 3.15-2.5667 5.3375-6.269 5.3375-2.6755 0-5.2985-1.1958-7.9721-3.1363-.8167 1.5166-1.789 3.36-2.5473 4.8027 3.36 2.0495 7.1167 3.3211 10.8636 3.3211 3.7587 0 7.1362-1.116 9.4987-3.115 2.1777-1.855 3.2822-4.8027 3.2822-8.7733-.0059-4.3828-2.3975-6.9494-8.0209-8.6139h-.0019z" fill="#003831"/><path d="M312.5528 224.9361l-2.4695-.7389c-1.1589-.381-3.1364-1.011-3.1364-2.0144 0-.9295 1.4778-1.4972 2.5434-1.4972 1.8414 0 3.743.7388 5.3589 2.0863l1.54 1.2737 5.4502-10.6167-1.3319-.7583c-3.4942-1.9756-8.3572-3.2473-12.3997-3.2473-8.472 0-14.3947 5.775-14.3947 14.035 0 8.8434 5.95 10.535 11.2 12.0167 1.8472.5328 4.6919 1.3475 4.6919 2.6989 0 2.0883-2.7553 2.1447-3.0761 2.1447-2.4072 0-4.8611-1.12-7.5153-3.4378l-1.505-1.328-5.7458 10.8033 1.1589.8167c4.1572 2.907 9.1136 4.517 13.9572 4.517 4.5014 0 8.6217-1.371 11.5655-3.8754 2.9245-2.4888 4.4062-6.261 4.4062-11.2058 0-7.7428-5.8723-10.3678-10.292-11.6744l-.0058.002zm3.817 20.4478c-2.3587 1.9989-5.74 3.115-9.4967 3.115-3.745 0-7.5056-1.2717-10.8695-3.325.7642-1.4389 1.7345-3.2803 2.5472-4.8028 2.6775 1.9445 5.3006 3.1383 7.9761 3.1383 3.7023 0 6.269-2.1875 6.269-5.3375 0-3.778-4.3517-5.0166-6.7045-5.6777-6.6247-1.8803-9.1895-3.1928-9.1895-9.0378 0-6.4808 4.4995-10.8461 11.2-10.8461 3.0412 0 6.514.9333 9.3975 2.275-.7583 1.4622-1.5555 3.0216-2.2788 4.443-1.82-1.0966-3.7606-1.8414-5.7362-1.8414-2.8272 0-5.7322 1.7656-5.7322 4.694 0 3.325 3.4942 4.4605 5.3725 5.0691.039.0039 2.5045.7447 2.5045.7447 5.6194 1.6684 8.015 4.233 8.015 8.614.0039 3.9724-1.0986 6.9221-3.2764 8.7752h.002z" fill="#EFB21E"/><path d="M284.125 214.3194c.9644-.0583 2.4111-.1497 3.2472 1.0248.3403.4608.4706.9916.4706 1.5225 0 .7777-.2645 1.5555-.5114 2.1622-.5542 1.367-1.0656 2.1078-1.5945 2.7553.6281-.3811 1.2912-.7817 1.614-1.0656 1.536-1.3144 2.9263-3.572 2.9263-6.2864a8.6722 8.6722 0 0 0-.6864-3.325c-.6475-1.536-2.1097-1.9755-2.9264-2.1058-1.4194-.2139-2.9419.2042-3.605.9839-1.011 1.1997-1.05 2.6444-.63 3.4766.3014.6125.8012.8984 1.6917.8556l.0039.002z" fill="#003831"/><path d="M284.125 217.5278a1.8763 1.8763 0 0 1 .3383-.0195c-.0525.1361-.0972.3073-.0972.3073-.908 2.2555-1.2833 2.4305-2.2944 2.8836l-1.7442.7972.7 1.75 2.0728 3.0178 1.0597-.245c1.575-.3461 4.3497-2.0884 5.2792-2.87 3.1752-2.7514 5.357-7.914 3.0975-13.2748-.914-2.166-2.8836-3.6419-5.39-4.025-2.5511-.3966-5.11.4181-6.514 2.069-1.711 2.0105-2.131 4.8027-1.0655 6.9688.875 1.7559 2.5803 2.7417 4.5559 2.6445l.0019-.004zm-1.0636-7.5386c.6611-.7778 2.1836-1.1959 3.605-.984.8167.1304 2.275.5698 2.9264 2.1079a8.6722 8.6722 0 0 1 .6864 3.325c0 2.7125-1.3903 4.97-2.9264 6.2844-.3228.2839-.9859.6844-1.614 1.0636.529-.6475 1.0423-1.3903 1.5945-2.7572.245-.6106.5095-1.3864.5095-2.1622 0-.5309-.1303-1.0617-.4706-1.5225-.836-1.1745-2.2828-1.083-3.2472-1.0248-.8944.039-1.3903-.243-1.6917-.8555-.418-.8322-.383-2.275.628-3.4747z" fill="#EFB21E"/><path d="M161.3606 319.195l-23.5473 28.632-4.861-6.7531 4.0444-4.7133-4.6142-6.4012-5.7303 2.3781-4.5208-6.2844 34.442-13.5217 4.791 6.6694-.0038-.0058zm-13.899 5.7556l3.8773-3.8928-.0583-.0778-4.8806 2.4889-8.7364 4.2155 3.2083 4.4625 6.5917-7.1983-.002.002zm37.2381 17.111l-4.3108 5.0634-4.7056-4.0056-18.9389 22.2017-5.9383-5.0555 18.9506-22.1959-4.653-3.9822 4.3244-5.0556 15.2697 13.0278.002.002zm14.8653 8.4467l-5.8256 12.744 7.1945 3.286 5.81-12.7614 7.0855 3.2473-14.8672 32.6025-7.0855-3.2278 6.2864-13.8056-7.179-3.2802-6.3 13.821-7.0855-3.2472 14.8692-32.62 7.101 3.2414h-.0038zm35.3772 47.0886c.1167-.5483 1.0695-6.4905 1.0695-6.4905h-.039c-.2274-.0583-8.0188-1.328-8.0188-1.328.0058 0 4.6744-28.7895 4.6744-28.7895l.0136-.0195-7.7097-1.2522-.0136.0195-.0389.245c-.455 2.6444-5.7166 35.1322-5.7166 35.1322.0194.0194 15.7597 2.5822 15.7597 2.5822v-.0194l.0194-.0778v-.002zm1.0442-6.475l-.0039.0584.0058-.0584h-.002zm-8.0306-1.3222h-.0194.0194zm35.492-28.0914l.3558 6.65-7.8983.4006.4141 7.7875 6.9514-.3617.3306 6.6461-6.9378.3617.418 8.0889 7.9917-.42.3461 6.6461-15.7752.8167-1.8609-35.8128 15.6645-.7972v-.0059zm28.173-7.21l1.925 6.3778-5.8916 1.7889 8.505 27.93-7.4628 2.2614-8.505-27.9183-5.8489 1.783-1.9386-6.3778 19.215-5.8489.002.004zm15.8025-8.3358l17.4534 31.3094-6.7978 3.7975L300.61 349.96l6.8133-3.7975z" fill="#FFF"/><path d="M307.4039 346.143l-6.7978 3.7976c0 .0583 17.4533 31.3308 17.4533 31.3308.035.0194 6.8348-3.778 6.8348-3.778 0-.0545-17.4514-31.3328-17.4514-31.3328l-.0195-.0195-.0194.0039v-.002zm28.6533-13.9591c-.8944.4764-1.7053 1.0033-2.446 1.6528-5.1295 4.5402-3.611 10.7644.0505 14.8847 3.5194 3.99 10.1033 6.932 15.192 2.4305.7388-.661 1.33-1.4972 1.8821-2.3722l4.4411 5.0167a10.1267 10.1267 0 0 1-2.2944 2.8642c-8.4194 7.4472-19.1839 4.655-25.4294-2.3917-5.8878-6.6617-7.0837-17.7917.875-24.8189 1.0052-.91 2.1466-1.5944 3.4144-2.1447l4.3128 4.8805.002-.002zm16.5375-20.1056c-1.9153.6028-3.8694 1.614-5.0847 3.3795-1.3494 1.993-1.1083 3.99.7 5.2228 4.865 3.321 11.832-6.2864 19.843-.8167 5.2617 3.5875 6.9514 9.625 2.8292 15.6644-1.2503 1.82-3.286 3.7178-5.2616 4.515l-5.5806-3.811c1.9736-.8595 3.607-1.9017 4.9-3.8034 1.4194-2.0689 1.2892-4.5733-.6844-5.9053-2.275-1.5711-4.4859-.1672-6.9106.84-4.8067 2.1642-8.5653 2.9439-12.8956 0-4.6666-3.1928-6.681-8.9289-2.903-14.4667 1.4078-2.0572 3.1928-3.5738 5.353-4.6958l5.6973 3.8772h-.002zm-194.8975-154.877c10.4222 8.509 9.9497 17.0529 5.5417 22.4273-4.4022 5.3861-12.668 7.5367-23.0864-.9722-10.4086-8.5225-9.9517-17.0528-5.5456-22.4389 4.4042-5.3803 12.6817-7.5406 23.0903.982v.0019zm.4725 18.27c3.2667-4.0055-3.5291-10.0274-5.736-11.8319-2.4656-2.0144-9.4695-7.2722-12.742-3.2666-3.2823 4.0114 3.2666 9.835 5.7205 11.8514 2.2167 1.8044 9.4734 7.2722 12.7556 3.2472h.002zm11.869-50.0207l27.895 24.4222-6.895 4.653-4.5929-4.1805-6.5489 4.406 2.2031 5.7945-6.4167 4.3284-12.458-34.8445 6.8133-4.581v.0019zm5.32 14.0719l-3.7626-4.0056-.0933.0584 2.3372 4.9583 3.9667 8.8667 4.5539-3.0606-7-6.8191-.002.0019zm28.6124-30.0164l4.655 15.3378.1089-.035 1.54-17.22 7.5989-2.3022-2.1447 17.9433 13.475 16.0806-7.8556 2.38-12.1722-15.3806-.0972.033 5.3141 17.469-7.4589 2.2594-10.4222-34.2961 7.459-2.2711v.002zm42.5717-7.1828l.7641 29.1861 8.1628-.2236.175 6.6617-15.9522.42-.9333-35.8497 7.7816-.1945h.002zm42.9547 5.3978l.453 37.0806-8.0694-2.032.0545-6.2086-7.667-1.9192-2.8311 5.5087-7.5172-1.8959 17.6166-32.5305 7.9625 1.9989-.0019-.002zm-6.9086 13.3622l.4511-5.4697-.0933-.033-2.139 5.0516-3.953 8.8667 5.3336 1.3417.4006-9.7553v-.002zm41.58 1.258l-3.2083 23.5045.136-.0194c.5095-1.7072 1.3612-3.36 2.3528-4.9389l8.5284-13.6694 6.6053 4.1358-18.9875 30.3994-6.265-3.9083 3.3055-23.45-.1361.035-1.5944 3.2472-.739 1.2892-8.7188 13.9417-6.6111-4.1223 18.9914-30.4014 6.3388 3.957h.002zm4.3711 47.4115l27.4556-23.032 3.7994 4.5209c.8711 1.0441 12.742 12.3939-2.5861 25.2505-7.8245 6.5722-16.2945 8.0111-24.1928-1.4039l-4.4761-5.3336v-.002zm23.697.7389c3.4922-2.9361 8.011-8.785 3.8888-13.7084l-17.6925 14.8556c3.817 4.9914 10.3873 1.7305 13.8056-1.1414l-.002-.0058z" fill="#FFF"/><path d="M383.7 388.7167h-3.4183v9.3177h-2.314v-9.3177h-3.4221v-2.0164h9.1583v2.0164H383.7zm15.5128 9.3197h-2.3178v-9.0183h-.0583l-3.2803 9.0183h-2.242l-3.1733-9.0183h-.0583v9.0183h-2.314v-11.3361h4.0095l2.6386 7.4083h.0545l2.7514-7.4083h3.986v11.336h.004z" fill="#003831"/></g></svg>