<svg width="500" height="500" viewBox="0 0 500 500" xmlns="http://www.w3.org/2000/svg"><title>pittsburgh-pirates</title><g fill="#FDB827" fill-rule="nonzero"><path d="M384.0393 177.3018c0-21.9144 3.0574-45.7091 16.7915-69.3418-36.2877-9.0047-64.2385-43.1699-73.2966-73.4176C312.5002 49.2416 297.7744 52.68 274.407 52.68l-155.8524-.2137-21.2217 53.0525c12.7743 5.5484 21.2217 17.6764 21.2217 32.3008V380.877c0 14.5728-8.4474 26.7168-21.2217 32.2653l21.2217 51.4h59.4912l21.2253-51.3982c-12.7922-5.3206-21.2253-17.908-21.2253-32.2688v-95.8502l96.363.0534c23.3673 0 38.0932 5.7462 53.1272 20.4454 9.8416-30.2122 39.37-52.7284 75.6185-61.7349-13.7697-23.6522-19.1134-44.6086-19.1134-66.4891l-.0018.0018zm-82.3101 54.9612H178.3485V103.667h123.3807c19.555 0 31.7898 12.322 31.7898 28.6683v73.4728c0 17.1262-9.6974 26.4515-31.788 26.4515l-.0018.0035z"/><path d="M203.9844 462.3415v-13.1946h4.8327v-2.7991h-12.9275v2.801h4.797v13.1945m29.9807-.0018v-15.9937h-5.6179l-3.8925 10.4434h-.064l-3.7394-10.4434h-5.65v15.9937h3.2888v-12.7316h.0606l4.505 12.7316h3.109l4.6528-12.7316h.0855v12.7316"/></g></svg>