<svg width="500" height="500" viewBox="0 0 500 500" xmlns="http://www.w3.org/2000/svg"><title>san-diego-padres</title><g fill="none" fill-rule="evenodd"><path d="M304.2138 121.3043l-147.6839.039c-1.1654 0-1.2514 1.825 0 1.9998 1.1524.1564 20.1535 1.7311 20.1535 19.1628l.0105 48.1807c-13.6695 0-43.553.0521-44.88 0-7.3654-.086-9.8709-5.3656-10.2594-9.4901.0105-11.323.0183-68.8244.0261-69.5805.4354-21.856 12.2538-33.0122 32.7984-33.0122l99.318-.047c5.7436 0 10.7155 2.808 10.7155 9.8292 0 7.0654-7.4748 9.1043-8.7862 9.7352-.5632.3259-.6857 1.2045-.0521 1.2045h55.5069l-.0183-18.3102c-.4458-13.4348-9.3546-46.095-51.0512-46.095l-111.916-.013c-41.0422 0-70.3521 29.9721-70.1696 69.1894v77.4385c0 26.528 22.307 52.7537 53.6167 52.7537h125.1656c8.6298 0 10.9501 7.8737 10.9501 10.898l-.1042 68.11c.0521 17.854-10.4027 31.9016-28.9658 31.9016h-18.232v-93.9212h-43.6521v.0626h-.013l.026 93.8586h-45.9568c-7.8007-.266-9.159-7.639-9.159-10.9502 0-2.3074-.0522-31.719-.0522-42.3041 0-11.25 13.8233-14.8975 17.1892-15.7526.4302-.1043.717-.3468.67-.85-.039-.4015-.3076-.5866-.584-.5866H77.9416l-.0052 65.2135c-.1408 23.0683 18.8916 48.8898 46.606 48.8898h52.1775l-.0052 47.0858c-.1251 3.9055-.7821 7.321-1.812 10.3374-4.028 10.6452-13.9067 15.8595-18.3728 16.832-1.142.2503-1.155 1.5565-.2242 1.7468.0365.013.0521.047.099.047h146.0231l1.2828-.0079c61.9988 0 96.6534-30.165 96.6534-91.267V212.235c0-61.6755-34.7954-90.9333-96.1476-90.9333l-.0026.0026zm52.4747 259.3807c0 28.3662-22.3018 43.5348-50.4672 43.5348-25.8294 0-70.6807.0365-85.8545.0521v-35.4134h23.0892c41.037 0 67.9119-29.7088 67.9119-68.6992l-.0053-80.3456c0-16.7746-13.7242-49.1297-53.6114-49.1297h-37.3949v-28.7624h87.7317c29.5185 0 48.598 21.2094 48.598 48.637v170.1238l.0025.0026z" stroke="#FFF" stroke-width="19.6656"/><path d="M304.2138 121.3043l-147.6839.039c-1.1654 0-1.2514 1.825 0 1.9998 1.1524.1564 20.1535 1.7311 20.1535 19.1628l.0105 48.1807c-13.6695 0-43.553.0521-44.88 0-7.3654-.086-9.8709-5.3656-10.2594-9.4901.0105-11.323.0183-68.8244.0261-69.5805.4354-21.856 12.2538-33.0122 32.7984-33.0122l99.318-.047c5.7436 0 10.7155 2.808 10.7155 9.8292 0 7.0654-7.4748 9.1043-8.7862 9.7352-.5632.3259-.6857 1.2045-.0521 1.2045h55.5069l-.0183-18.3102c-.4458-13.4348-9.3546-46.095-51.0512-46.095l-111.916-.013c-41.0422 0-70.3521 29.9721-70.1696 69.1894v77.4385c0 26.528 22.307 52.7537 53.6167 52.7537h125.1656c8.6298 0 10.9501 7.8737 10.9501 10.898l-.1042 68.11c.0521 17.854-10.4027 31.9016-28.9658 31.9016h-18.232v-93.9212h-43.6521v.0626h-.013l.026 93.8586h-45.9568c-7.8007-.266-9.159-7.639-9.159-10.9502 0-2.3074-.0522-31.719-.0522-42.3041 0-11.25 13.8233-14.8975 17.1892-15.7526.4302-.1043.717-.3468.67-.85-.039-.4015-.3076-.5866-.584-.5866H77.9416l-.0052 65.2135c-.1408 23.0683 18.8916 48.8898 46.606 48.8898h52.1775l-.0052 47.0858c-.1251 3.9055-.7821 7.321-1.812 10.3374-4.028 10.6452-13.9067 15.8595-18.3728 16.832-1.142.2503-1.155 1.5565-.2242 1.7468.0365.013.0521.047.099.047h146.0231l1.2828-.0079c61.9988 0 96.6534-30.165 96.6534-91.267V212.235c0-61.6755-34.7954-90.9333-96.1476-90.9333l-.0026.0026zm52.4747 259.3807c0 28.3662-22.3018 43.5348-50.4672 43.5348-25.8294 0-70.6807.0365-85.8545.0521v-35.4134h23.0892c41.037 0 67.9119-29.7088 67.9119-68.6992l-.0053-80.3456c0-16.7746-13.7242-49.1297-53.6114-49.1297h-37.3949v-28.7624h87.7317c29.5185 0 48.598 21.2094 48.598 48.637v170.1238l.0025.0026z" fill="#002D62" fill-rule="nonzero"/><path fill="#002D62" d="M389.1193 452.0175h4.745v12.8873h3.2069v-12.8873h4.745v-2.8157h-12.697zM417.7774 449.1992l-3.8065 10.2618h-.0704l-3.6657-10.2618h-5.5533v15.7056h3.2069v-12.4884h.0782l4.3957 12.4884h3.1025l4.5417-12.4884h.0887v12.4884h3.2068v-15.7056z"/></g></svg>