<svg width="500" height="500" viewBox="0 0 500 500" xmlns="http://www.w3.org/2000/svg"><title>seattle-mariners</title><g fill-rule="nonzero" fill="none"><path d="M249.6858 464.6618c118.7366 0 214.9908-96.2394 214.9908-214.9852 0-118.7292-96.2524-215-214.9908-215-118.7384 0-215.0093 96.2708-215.0093 215 0 118.7458 96.2709 214.9852 215.0093 214.9852z" fill="#FFF"/><path d="M249.6766 425.1014c-96.7015 0-175.386-78.6716-175.386-175.423 0-96.7348 78.6808-175.4415 175.386-175.4415 96.6977 0 175.386 78.7049 175.386 175.4415 0 96.7495-78.6883 175.423-175.386 175.423zm0-356.559c-99.9175 0-181.223 81.2407-181.223 181.136 0 99.8934 81.3055 181.149 181.223 181.149 99.9174 0 181.2136-81.2574 181.2136-181.149 0-99.8953-81.2962-181.136-181.2136-181.136z" fill="#005C5C"/><path d="M47.9952 249.6766c0 111.129 90.4728 201.5667 201.6832 201.5667 111.2104 0 201.674-90.4358 201.674-201.5667 0-111.1458-90.4654-201.5502-201.6722-201.5502-111.2067 0-201.685 90.4044-201.685 201.5502zm10.2154 0c0-105.636 85.8854-191.5547 191.466-191.5547 105.5805 0 191.4752 85.9186 191.4752 191.5547 0 105.6341-85.8947 191.5676-191.4752 191.5676-105.5806 0-191.466-85.9298-191.466-191.5676z" fill="#C4CED4"/><path d="M222.3351 194.1268c-8.8218-5.371-40.662-22.2569-40.662-22.2569l27.2436 31.2654c4.0403-3.5598 8.5445-6.5799 13.4184-9.0085zm67.6984 8.5908a62.3515 62.3515 0 0 1 10.6516 11.8252c4.3952-10.6793 15.9413-39.4384 17.0706-42.5952l-27.724 30.77h.0018zM198.609 284.533c-4.3195 10.4945-15.1688 37.5199-16.6788 42.0518l27.3433-30.1342c-4.0385-3.497-7.6278-7.491-10.6645-11.9176zm-16.8396 42.7338s.231-.1848.6727-.5101c-.255.122-.486.2292-.6506.292-.0221.111-.0462.1996-.0221.2163v.0018zm95.829-22.4102c8.8237 5.4468 39.6455 22.9666 39.6455 22.9666l-26.3194-32.0527c-4.0218 3.5893-8.4965 6.639-13.326 9.0842v.0019z" fill="#C4CED4"/><path d="M210.7354 208.9536c.4731-.1238 1.595-4.116 1.595-4.116-.074-.2163-.6136-.7117-.8687-.9612-.2865.233-.5582.4806-.8354.7282l-.7763 2.8464-.7023-.573c-.085-.0185-.6414.1238-1.3234.3253-.7725.743-1.5008 1.5008-2.2179 2.2919 1.0276-.233 3.8814-1.0998 4.386-1.2569.3068.3438.7393.7135.7393.7135l.0037.0018z" fill="#D50032"/><path d="M214.9161 211.7112c.4251-.1848 1.5396-4.349 1.5396-4.349-.1145-.3086-1.2753-.9888-1.2753-.9888l-.3382-.1848-.085.3382-1.0424 3.7927-.9833-.6044c-.255-.0185-4.9903 1.4232-4.9903 1.4232-.074.512 1.1828 1.2531 1.1828 1.2531.233.0185 4.4359-1.2513 4.946-1.4232.3752.3586 1.0498.7467 1.0498.7467l-.0037-.0037zm-1.0923 3.6984c.2329 0 4.4802-1.5636 4.824-1.6874.4251.2957 1.1644.6505 1.1644.6505.4196-.2033 1.1404-4.41 1.1404-4.41-.1534-.2956-1.4601-.9296-1.4601-.9296l-.3512-.1534-.0684.3881-.6284 3.7742-1.109-.5415c-.231-.0148-4.8517 1.704-4.8517 1.704-.0222.5102 1.34 1.207 1.34 1.207v-.0019zm4.264 1.8575c.3548.4621 1.3529.8817 1.3529.8817.2163 0 4.3656-1.78 4.689-1.9038.44.2958 1.2458.6044 1.2458.6044.4103-.218.7578-4.458.7578-4.458-.1848-.2772-1.5396-.8354-1.5396-.8354l-.3697-.1386-.0332.3733-.318 3.789-1.192-.4621c-.2348 0-4.7076 1.9037-4.7076 1.9037.0037.0924.0499.1664.1109.2458h.0037zm5.6113 2.3196c.0148.0924.074.172.1479.2495h.0055c.3956.4177 1.5415.7283 1.5415.7283.2088-.0315 4.0107-2.231 4.264-2.3843.5175.231 1.4416.4953 1.4416.4953.3604-.3086-.1109-4.5338-.1109-4.5338-.2089-.2643-1.741-.6524-1.741-.6524l-.4104-.1239.0296.4492.4436 3.7446-1.3308-.3734c-.2273.0462-4.2806 2.3972-4.2806 2.3972v.0037zm19.965.9463h.0185-.0185zm6.2915.4011l.0074.0185-.0074-.0185zm18.4347-1.6098c.0702-.3087.0924-.573.1238-.695.5268-.0776 1.4786-.34 1.4786-.34.0222-.0463-.024-.1387-.1109-.2625l.0407-.0148-.074-.0462c-.3474-.4806-1.2752-1.3308-2.081-2.0424.2273 1.1903.425 2.3363.621 3.4009h.0018zm4.6817-2.7078c-.1849.2181-.7652 3.8075-.7652 3.8075.3844.3105 1.8704-.2588 1.8704-.2588.1775-.2033.6728-3.2344.7578-3.7335.499-.1386 1.2162-.4177 1.2162-.4177 0-.048-.061-.1552-.1534-.2624l.037-.0185-.1147-.0592c-.8206-.8834-3.8388-2.8796-3.8388-2.8796-.2865-.0295-1.6635.512-1.6635.512l-.51.2033 4.1474 2.7207-.985.3844.0018.0018zm4.8128-1.9813c-.1608.2495-.0462 3.8074-.0462 3.8074.4178.2496 1.7633-.462 1.7633-.462.1386-.2163.0554-3.0645.0314-3.6688.4861-.1664 1.1367-.4769 1.1367-.4769 0-.061-.061-.1386-.1608-.2495l.024-.0148-.0924-.0628c-.8687-.8373-4.0662-2.6616-4.0662-2.6616-.2698-.0184-1.5377.6026-1.5377.6026l-.4861.2477 4.2953 2.4766-.8557.4621h-.0056zm4.4729-2.29c-.1534.2772.255 3.7926.255 3.7926.4251.2144 1.6875-.5286 1.6875-.5286.1294-.2328-.1719-3.081-.2403-3.6374.4436-.2162 1.0314-.5581 1.0314-.5581 0-.061-.0703-.1387-.1849-.231l.0222-.0333-.0702-.0185c-.865-.7707-4.2011-2.4286-4.2011-2.4286-.2865 0-1.4546.6838-1.4546.6838l-.4566.2773 4.41 2.2123-.8003.4658.0019.0037zm4.2935-2.6467c-.0924.3105 1.1644 3.654 1.1644 3.654.4491.1238 1.4694-.743 1.4694-.743.0554-.2772-.8816-2.8648-1.122-3.5117.3808-.2495.8983-.6968.8983-.6968-.0776-.4806-4.6022-2.2142-4.6022-2.2142-.305.048-1.2198.8502-1.2198.8502l-.3475.2957 4.4802 1.7503-.7208.6155zm1.3344 3.2659h-.0073.0073zm3.5598-2.7096c.4565.1072 1.4712-.7282 1.4712-.7282.0296-.1238-.1072-.6044-.2957-1.1755-.658-.6968-1.3307-1.3622-2.0275-2.0146l-.3087.281c-.0924.2956 1.1607 3.6373 1.1607 3.6373zm-4.9127-6.005l3.142 1.2069c-.7448-.6654-1.497-1.3308-2.2622-1.95-.2773.2034-.536.4492-.536.4492l-.3456.2957.0018-.0018zm2.3972 86.1349c-.486.1368-1.5858 4.1161-1.5858 4.1161.0462.1719.3697.5101.634.7726.4066-.3401.7947-.695 1.192-1.035l.6507-2.34.695.5545c.048.0185.3252-.0443.7282-.1368.7762-.7725 1.5248-1.534 2.2604-2.3362-1.2624.3549-3.4045.9907-3.8444 1.1145-.3068-.3419-.732-.7134-.732-.7134l.002.0037z" fill="#D50032"/><path d="M290.8468 286.9783c-.231-.0462-4.4082 1.207-4.935 1.3936-.3807-.3548-1.0756-.7393-1.0756-.7393-.4251.1849-1.5489 4.362-1.5489 4.362.1479.2957 1.316.9758 1.316.9758l.3253.1849 1.1164-4.0995 1.0054.573c.2329.0295 4.9903-1.4084 4.9903-1.4084.0555-.512-1.192-1.2384-1.192-1.2384l-.002-.0037zm-4.898-3.0182c-.2328-.0314-4.5744 1.5636-4.8424 1.656-.4196-.2957-1.17-.6505-1.17-.6505-.4103.2162-1.109 4.4118-1.109 4.4118.1553.2957 1.4325.913 1.4325.913l.3567.1664.6875-4.1623 1.1146.5415c.2402.0333 4.8369-1.682 4.8369-1.682.048-.5137-1.3067-1.1939-1.3067-1.1939zm-4.288-1.889h.0185l-.0184-.0147c-.3475-.4491-1.3215-.8502-1.3215-.8502-.2403 0-4.4507 1.8113-4.6984 1.8852-.462-.2772-1.2753-.6025-1.2753-.6025-.4066.2162-.7522 4.4728-.7522 4.4728.1848.2625 1.5525.8373 1.5525.8373l.3808.1404.34-4.1955 1.183.499c.2347 0 4.713-1.9222 4.713-1.9222.0037-.074-.0499-.17-.12-.2477l-.002-.0018zm-5.578-2.3213c-.0148-.074-.0702-.17-.1479-.231h-.0148c-.4029-.4307-1.5414-.7265-1.5414-.7265-.2089.0315-4.0847 2.2605-4.264 2.3843-.4953-.2477-1.4546-.4953-1.4546-.4953-.3733.2957.1479 4.5467.1479 4.5467.1996.2348 1.7244.621 1.7244.621l.4159.1239-.5027-4.1956 1.3455.3734c.2366-.0315 4.2917-2.4028 4.2917-2.4028v.0019zm-7.0641-2.229c-.074-.061-.1257-.1073-.2089-.1535-.0314.2477-.0776.4954-.1256.7283.3012-.1997.5027-.3383.5027-.3383-.0185-.0924-.0795-.1719-.1719-.2347l.0037-.0019zm-42.3014 5.2305c.17-.2144.743-3.8203.743-3.8203-.3955-.3087-1.8889.2476-1.8889.2476-.1608.2163-.6413 3.2197-.7208 3.7446-.5083.1387-1.2273.4177-1.2273.4177 0 .0444.207.3383.207.3383.8355.8834 3.8444 2.8777 3.8444 2.8777.2625.0185 1.6635-.51 1.6635-.51l.5101-.2163-4.1216-2.7078.9888-.3696.0018-.0019zm-4.822 1.9518c.1385-.2477.0369-3.789.0369-3.789-.438-.2495-1.7614.4621-1.7614.4621-.1368.2033-.074 3.0792-.0518 3.667-.4805.1848-1.1145.462-1.1145.462 0 .063.2292.3272.2292.3272.8687.8373 4.0403 2.68 4.0403 2.68.2773 0 1.5637-.621 1.5637-.621l.4879-.2292-4.325-2.4767.8946-.4805v-.0019zm-4.4877 2.2752c.1479-.2624-.2477-3.7926-.2477-3.7926-.425-.2033-1.704.5582-1.704.5582-.1239.2162.1848 3.0644.2495 3.654-.4436.2033-1.0221.5397-1.0221.5397.0074.0314.0776.1257.1626.218v.0186l.0222.0148c.8446.7393 4.251 2.4766 4.251 2.4766.2772-.0314 1.438-.73 1.438-.73l.449-.2625-4.4025-2.2124.8059-.4805-.0019-.0019zm-4.288 2.6763c.0832-.2957-1.17-3.6521-1.17-3.6521-.4565-.1257-1.46.7393-1.46.7393-.074.2643.8797 2.8648 1.1126 3.5006-.3808.2477-.8835.7116-.8835.7116.061.462 4.5893 2.1957 4.5893 2.1957.3012-.0462 1.2198-.865 1.2198-.865l.342-.2624-4.4802-1.7337.7319-.6377-.0019.0037zm-4.8997-.5563c-.4621-.1238-1.4713.743-1.4713.743-.0314.1386.1923.8354.4473 1.5932.5822.5915 1.1533 1.146 1.7503 1.719l.438-.3882c.0925-.3235-1.168-3.667-1.168-3.667h.0037zm4.9293 6.005l-3.5986-1.377a86.1086 86.1086 0 0 0 2.5876 2.2125c.3327-.2477.6561-.5268.6561-.5268l.3549-.3087zm18.0243-14.3777c-.5101.0925-1.3936.3253-1.3936.3253-.0222.0777.024.1534.1017.2773l-.0314.0185.0702.0591c.3031.3881 1.0073 1.0387 1.7041 1.6727-.1479-.8225-.3031-1.595-.451-2.3529z" fill="#D50032"/><path d="M426.0385 249.6618c-.061-.0185-.1553-.0296-.3031-.0462.1182.0295.1848.061.218.061.0481 0 .087-.0148.087-.0148h-.002z" fill="#C4CED4"/><path d="M358.4639 258.8403c-.1479 1.6874-.3327 3.3583-.5416 5.0605-.0148.0333-.0148.0795-.0221.1294-.2218 1.6524-.4861 3.2788-.7652 4.9201 0 .0462-.024.0924-.024.1553a107.259 107.259 0 0 1-1.0037 4.861c0 .0295-.0074.0738-.024.0923-4.898 21.3586-16.0744 40.3478-31.4945 54.9121-.0185 0-.0185.0185-.0185.0185-1.1681 1.1145-2.375 2.181-3.5893 3.253-.0315.013-.0555.0443-.0777.0591-1.231 1.035-2.4452 2.0738-3.7076 3.0497-.0314.0295-.0702.0295-.0924.061-17.9726 14.1632-40.4771 22.7854-64.9667 23.3436-1.3862 6.236-2.3159 10.1378-2.4323 10.1045-.1239.0314-1.0535-3.8684-2.4453-10.1063-24.5007-.5582-47.0385-9.1804-65.0295-23.3437-.0148-.0296-.0296-.0296-.0555-.0591-1.266-.976-2.4951-2.0147-3.7187-3.0645-.024-.0185-.048-.0314-.0702-.0462-1.231-1.0683-2.4213-2.1514-3.6078-3.2659-15.446-14.5643-26.6447-33.5867-31.5278-54.9768-.0185-.0314-.0185-.0314-.024-.061a105.9696 105.9696 0 0 1-.9907-4.8905c-.0056-.048-.0056-.0924-.0278-.1238-.2864-1.656-.5415-3.2825-.7504-4.9682-.0184-.0184-.0184-.0628-.0258-.096-.207-1.6857-.3956-3.3584-.536-5.0773v-.0148c-33.2134-4.3175-63.6175-8.404-66.5987-9.0565.037 96.7385 78.703 175.3953 175.386 175.3953 96.646 0 175.2714-78.5829 175.3786-175.2567-5.5873.9427-34.8694 4.861-66.5931 8.9919h-.0037zM140.9003 240.389c.1386-1.6856.3253-3.3583.5508-5.0144.0074-.061.0074-.1238.024-.17.2089-1.6413.4621-3.2659.7504-4.8757.0222-.0777.0296-.1553.0462-.2163.2847-1.608.61-3.2197.974-4.7815.0075-.0628.0296-.1256.0463-.1848.3733-1.5969.7726-3.1883 1.2161-4.7685 0 0 .0074-.0314.0222-.0629 5.4155-19.379 16.0504-36.5587 30.2932-49.9772l.0184-.0185c1.1645-1.1145 2.3547-2.181 3.5672-3.2197.0407-.0462.074-.061.1183-.1072 1.194-1.035 2.4212-2.0275 3.6688-3.0034.0314-.0462.0776-.074.1072-.0924 1.2624-1.0073 2.547-1.9647 3.8537-2.9092.0184-.0148.024-.0148.037-.0443 17.2923-12.352 38.3146-19.8283 61.039-20.3384h.0185c1.3992-6.299 2.3288-10.2154 2.4508-10.2154.159-.0462 1.12 3.885 2.5432 10.2154 24.4397.5914 46.9128 9.1933 64.8521 23.3436.037.0148.0703.0444.0925.0592 1.2642.974 2.4766 1.9961 3.6928 3.0496.037.0185.0702.0462.1072.0777a109.173 109.173 0 0 1 3.5542 3.2197c.0148 0 .0222.0314.037.0314 14.2187 13.4036 24.8278 30.598 30.245 49.9291 0 .0296.0186.0462.0186.074.438 1.5802.841 3.1605 1.2124 4.7537 0 .061.024.1239.048.1848.3513 1.5803.6784 3.1735.9723 4.7834.0074.061.0295.1386.0462.2162.281 1.608.5434 3.2197.7522 4.8757.0074.0463.0222.0925.0296.17.2089 1.6561.3955 3.327.536 4.9997v.0147c31.7902 4.1328 61.0964 8.0807 66.6116 9.1028-.1145-96.659-78.7473-175.253-175.3767-175.253-96.6572 0-175.3158 78.6254-175.386 175.3158 2.9867-.73 33.4092-4.8314 66.6005-9.1674h.0074l.0018.0037z" fill="#0C2C56"/><path d="M318.6152 350.4997l2.606 4.5208-6.5798 3.8075 5.0864 8.8236 6.5873-3.837 2.606 4.5652-6.5761 3.826 7.005 12.1006 6.576-3.8389 2.6302 4.5505-12.4759 7.2138-19.9483-34.4703 12.4832-7.26v-.0018zm59.4422-60.7989l-2.5377 6.3026-5.4154-2.277c-.8225-.3253-1.364-.3567-1.7115 0-.0924.1072-1.4176 3.667-1.486 3.8388-.3013.7282.1626 1.1145 1.1829 1.5304l5.7222 2.3214c1.1903.4806 1.7004.5101 2.948-.451l4.6576-5.3082c2.4213-1.9351 4.7593-2.7724 7.1584-1.7817l7.6999 3.081c6.114 2.4915 7.0123 3.654 4.6669 9.6591-.0703.2163-1.4177 3.8536-1.4971 4.0847-2.584 6.3617-4.0847 6.8256-10.3134 4.288l-5.7906-2.3843 2.5931-6.358 6.6316 2.739c1.0461.403 1.7041.355 2.0294-.4176.0702-.2033 1.3382-3.7779 1.2846-3.948-.0925-.4028-.5416-.7115-1.2846-1.022l-7.833-3.142c-1.1755-.4806-2.8241 2.8795-4.1327 3.8702l-3.996 3.1106c-2.314 1.8113-4.3434 1.595-6.9495.5268l-5.2675-2.1348c-6.2841-2.5228-6.9828-3.9183-4.4118-10.2948.096-.231 1.4268-3.8685 1.51-4.0847 2.486-5.9145 4.0662-6.0364 10.0361-3.641l4.506 1.8925zM238.8974 370.96l-4.6576 39.577-6.7795-.8058 4.6577-39.5604 6.7794.7892zM137.433 296.327l-15.2076 12.6144.1386.2773 19.0464-4.251 3.7299 7.9364-36.1411 16.81-2.5691-5.4967 21.4455-9.722-.512-1.1126-23.1459 6.0808-1.486-3.2492 19.2257-14.533-.1608-.3881-21.2588 10.184-2.5931-5.5227 36.141-16.8377 3.3491 7.2082-.0018.0019zm64.2791 65.5175c5.835 2.6615 5.9736 4.75 3.3343 10.4482l-2.1662 4.7057c-1.5156 3.264-2.6171 4.9682-5.689 4.9534 1.8575 1.9351 1.608 3.8684.231 6.857l-5.6741 12.3188-6.1363-2.8463 6.1788-13.4037c.3327-.7578.3789-1.2698.1238-1.6875-.2403-.34-4.0107-2.181-4.689-2.4138l-6.9348 15.0264-6.199-2.8648 16.6898-36.1854 10.9307 5.092zm-11.9953 13.5422c.4954.2958 4.2326 2.0424 4.5579 2.0886.6894.0776 1.0904-.3549 1.5784-1.4528l3.2197-6.9347c.6358-1.4084.9241-2.0294.194-2.5875-.2587-.1997-3.9553-1.963-4.4543-2.1625l-5.0938 11.049h-.0019zm80.8544-5.9588l9.9696 18.2794.2865-.0462-3.9738-19.4697 5.7814-1.1755 7.7775 39.1131-5.933 1.1755-10.1247-18.8043-.2773.0776 4.1327 19.9798-5.8276 1.1644-7.7756-39.0835 5.9662-1.2087-.0019-.0019zm71.6076-41.1406c4.2196-4.8758 6.9495-5.1382 11.7088-1.0535l3.9183 3.423c2.7299 2.3343 4.0532 3.8813 3.1864 6.82 2.3898-1.2383 4.1642-.462 6.6538 1.6894l10.2486 8.8384-4.4266 5.1382-11.1598-9.672c-.6044-.512-1.1145-.7134-1.5637-.573-.4177.1387-3.1235 3.0645-3.543 3.6689l12.509 10.8031-4.458 5.1696-30.1416-26.0661 7.0696-8.1879-.0018.0019zm10.5259 14.3943c.4177-.4177 3.0256-3.3417 3.1882-3.6522.255-.6062-.048-1.1311-.9518-1.9037l-5.7888-5.0162c-1.1681-1.0073-1.682-1.4546-2.4527-.9149-.2587.1885-2.8574 3.0995-3.1975 3.5154l9.2007 7.9716h.0019zM259.6147 88.9085l-.0314 5.2934-5.347.0185-.148 34.5627-6.833-.05.1553-34.533-5.5264.0185.0222-5.2805 17.7065-.0333.0018.0037zm-140.8604 90.6687l-2.7724 6.1455-5.4893-2.508c-.8576-.3697-1.353-.403-1.719-.061-.0997.1108-1.5229 3.4377-1.5931 3.6077-.3253.695.1294 1.1275 1.1145 1.5785l5.652 2.5506c1.1607.4805 2.0276-.3567 3.29-1.2994l4.8794-5.0772c2.4951-1.8427 4.4506-1.5026 6.8127-.4343l7.5594 3.4193c6.0124 2.6985 6.857 3.8721 4.288 9.7995-.0924.231-1.4934 3.6226-1.608 3.8537-2.8186 6.2656-4.3342 6.6722-10.4723 3.8998l-6.5558-2.8648 2.8204-6.2841 7.408 3.2696c1.0312.462 1.6874.4306 2.0367-.3272.0702-.2033 1.4417-3.5764 1.3991-3.763-.0924-.3697-.51-.7116-1.2383-1.0536l-7.6999-3.4488c-1.17-.5102-2.5321 1.6727-3.8721 2.6319l-4.1217 2.9388c-2.4101 1.7373-4.7611 2.3232-7.3302 1.1773l-5.188-2.3344c-6.1733-2.7539-6.8017-4.1955-3.9997-10.4482.098-.2163 1.5303-3.654 1.608-3.8389 2.7224-5.822 4.3101-5.9274 10.1913-3.264l4.6003 2.1384v-.0037zm26.2954-52.0195l3.6134 3.776-5.6188 5.2786 7.042 7.3192 5.6187-5.2768 3.6448 3.776-5.6262 5.2934 9.6886 10.0731 5.6336-5.2916 3.6374 3.7945-10.5315 10.014-27.628-28.7074 10.526-10.0453v-.0037zm52.4373-30.1194l19.2072 35.289-6.1455 2.4452-4.0015-7.5686-5.6483 2.2918 2.2733 8.2174-6.127 2.4453-10.341-38.9874 10.781-4.1327h.0018zm2.033 27.3026l4.4285-1.8113-8.4207-16.2223-.9057.4806 4.898 17.5511v.0019zm117.672-21.39l-1.9351 4.922-4.8296-1.9666-12.692 32.147-6.3525-2.5248 12.6754-32.1304-5.0088-1.9647 1.9407-4.9385 16.202 6.4504v.0056zm42.9427 28.929l-23.1182 25.7225 5.5578 5.1382-3.5043 3.8998-10.6645-9.7034 26.6705-29.6278 5.0606 4.5708h-.0019zm38.3054 53.9234l-4.6428 2.338-3.5192-6.7646-9.0713 4.5338 3.4988 6.7646-4.6872 2.34-3.521-6.7462-12.509 6.2508 3.4895 6.7333-4.6817 2.3694-6.554-12.8769 35.6532-17.7988 6.5484 12.8603-.0037-.0037z" fill="#FFF"/><path d="M249.7006 130.3892c-.1239 0-1.0535 3.9183-2.4527 10.2154h-.0148c-22.7207.512-43.7707 7.9882-61.0372 20.3384-.0148.0295-.0222.0295-.037.0462-1.3086.9463-2.595 1.9037-3.8555 2.911-.0296.0185-.074.0462-.1072.0924-1.2457.9759-2.4767 1.9666-3.667 3.0034-.048.0463-.0776.061-.1164.1072-1.2143 1.0388-2.4064 2.107-3.5672 3.2197l-.0221.0185c-14.2317 13.4185-24.874 30.5981-30.2932 49.9772l-.0185.0462c-.4435 1.5951-.8446 3.1865-1.2198 4.7815-.0148.061-.037.1238-.0444.1848-.3622 1.5655-.6875 3.1735-.9722 4.7834-.0184.061-.024.1386-.048.2162-.2847 1.608-.5397 3.2345-.7504 4.8757-.0185.0463-.0185.1072-.024.17a96.467 96.467 0 0 0-.5545 5.0144h-.0056c1.9592-.2624 3.9405-.51 5.9219-.7577 2.595-26.9293 15.5717-50.8607 34.8657-67.7465-.1718.5877 12.4297 31.5869 17.0226 42.7024-4.0385 5.8664-7.0936 12.4444-8.9364 19.5491a347.5715 347.5715 0 0 0 2.4287-.3252c2.521-9.1767 7.1805-17.4717 13.411-24.314.7208-.7893 1.4472-1.547 2.218-2.2919a61.126 61.126 0 0 1 2.8038-2.5987c.2772-.2495.5489-.499.8354-.73 7.1158-5.9736 15.6548-10.3226 25.0255-12.4426-3.5911 17.6455-6.6242 33.3853-7.0603 37.9043.1182-.0147.2587-.0147.3511-.0295 5.0754 4.689 18.3626 18.3718 19.9244 20.3235l-.0037-119.241v-.0038zm-12.7383 58.6918c-5.1326 1.0997-10.0453 2.7724-14.6272 5.0458-4.8757 2.4305-9.38 5.4487-13.4184 9.0085l-27.2417-31.2654c17.3275-15.1669 39.723-24.6559 64.3106-25.5375-2.5266 11.5332-5.946 27.6612-9.027 42.7505l.0037-.0019z" fill="#005C5C"/><path d="M140.891 258.7793c.1387 1.7189.3272 3.3879.536 5.0753.0056.0315.0056.0777.0223.0924.207 1.6875.462 3.314.7485 4.9719.0222.0277.0222.074.0296.122.2957 1.656.621 3.264.9925 4.8905.0074.0296.0074.0296.024.061 4.8832 21.3919 16.08 40.4143 31.5278 54.9786 1.183 1.1145 2.375 2.1995 3.6078 3.266l.0703.0461c1.2198 1.0535 2.4526 2.0886 3.7205 3.0645.026.0295.0407.0295.0555.061 17.9947 14.1577 40.5325 22.7817 65.0314 23.338-.379-1.7336-.7948-3.667-1.2624-5.7425-24.7114-.8687-47.2473-10.4945-64.597-25.8166.0074.0314.1386-.0296.3955-.1387.1626-.061.3955-.17.6506-.2957 5.371-2.6615 30.1453-16.3442 39.5936-21.7763 4.6817 2.3214 9.6813 4.0717 14.9285 5.1862-.1626-.7873-.3105-1.5618-.4732-2.351-9.075-2.0442-17.3737-6.1769-24.3528-11.8732a93.6264 93.6264 0 0 1-2.5875-2.2124c-.207-.1849-.4011-.3882-.6026-.573-.5951-.573-1.168-1.1274-1.7503-1.7189-7.0474-7.1657-12.2799-16.0984-15.0024-26.0477 18.9374 2.4139 33.5701 4.2104 37.239 4.521.1182.0147.2587.0461.3511.0461 5.0754-4.689 18.3626-18.3718 19.9244-20.3217l-175.6707.0296s.1072.0314.255.0462c2.9795.6524 33.3854 4.739 66.6006 9.0565v.0185l-.0055-.0037zm48.8572 6.3137c1.8298 7.0419 4.8536 13.6032 8.8625 19.44 3.0312 4.4267 6.6242 8.4208 10.6645 11.9214l-27.347 30.1305-.5397.6044c-19.1665-16.9024-32.0527-40.784-34.5922-67.6522 14.7677 1.9333 29.7867 3.885 42.9538 5.5559h-.0019z" fill="#005C5C"/><path d="M249.7228 249.6766h-.0462s.024-.0315.0462-.0463l.024-.048c1.7743-2.1662 14.7861-15.6327 19.8042-20.2755.1238 0 .2772.0185.4436.0185-.4436-4.5061-3.4378-20.246-6.9976-37.8748-.1626-.7763-.3179-1.5488-.488-2.338-3.031-15.106-6.4467-31.2173-8.9825-42.7635-.451-2.0737-.8872-3.9922-1.279-5.7444-1.4232-6.3303-2.3843-10.2616-2.545-10.2154l.0055 119.2411c-1.5637 1.95-14.8509 15.6327-19.928 20.3218-.0925 0-.2293-.0314-.3457-.0462.4325 4.4876 3.4655 20.244 7.0604 37.9043.159.7892.3068 1.5636.4713 2.3528 3.0792 15.1244 6.506 31.3134 9.0306 42.843.4621 2.0755.8835 4.0107 1.2624 5.7444 1.3936 6.2379 2.3214 10.1396 2.4453 10.1063l.0185-119.1765v-.0036z" fill="#C4CED4"/><path d="M249.7098 249.6303c-1.5636-1.9499-14.8508-15.6326-19.928-20.3217-.0924.0185-.2292.0185-.3457.0314-3.6595.3253-18.3034 2.107-37.2389 4.4729-.7892.1072-1.608.218-2.4305.3252-13.1541 1.6561-28.1768 3.5598-42.95 5.495-1.9814.2495-3.9628.499-5.922.7577-33.1912 4.336-63.6118 8.4392-66.6005 9.1675-.1626.0277-.2624.0739-.2554.1053l175.6729-.0296-.0019-.0037zm.037.0463c1.6948 2.0737 14.8342 15.5994 19.8966 20.2755.0924 0 .2089-.0185.3253-.0314 3.6134-.3253 18.248-2.12 37.2556-4.5043.7984-.122 1.619-.2144 2.4323-.3068 13.156-1.6727 28.138-3.5893 42.9039-5.5263l5.9034-.7393c31.7218-4.1346 61.0058-8.0492 66.5931-8.9956.355-.061.6174-.1072.7819-.1534l-176.0921-.0184z" fill="#C4CED4"/><path d="M358.438 240.376c-.1368-1.6726-.3327-3.3453-.5323-4.9995-.0074-.074-.0222-.1238-.0296-.17-.2088-1.6561-.4731-3.266-.7504-4.8758-.0185-.0776-.037-.1552-.0462-.2162a124.2121 124.2121 0 0 0-.974-4.7797c-.024-.0628-.048-.1256-.048-.1848a107.8454 107.8454 0 0 0-1.2144-4.7537c0-.0296-.0185-.0462-.0185-.0777-5.4154-19.3329-16.0245-36.5255-30.2414-49.9291-.0184 0-.024-.0315-.037-.0315-1.1643-1.0997-2.3398-2.168-3.556-3.2215-.0407-.0314-.074-.061-.1109-.0776-1.2143-1.0535-2.4286-2.0738-3.6891-3.0497-.024-.0184-.0555-.0462-.0925-.061-17.9393-14.1466-40.4142-22.7522-64.8557-23.3436.3973 1.7522.8317 3.6707 1.279 5.7481 24.5394.8946 46.9127 10.415 64.2089 25.58-.0296-.0147-30.7553 16.5938-40.5049 22.2902-4.6022-2.3214-9.5408-4.0237-14.7178-5.1086.17.7892.3253 1.5636.488 2.338 9.149 2.0886 17.4994 6.2842 24.5173 12.0563.767.6192 1.5156 1.2846 2.2604 1.95.3142.2809.6192.5914.9205.8871a43.313 43.313 0 0 1 2.0275 2.011c6.7795 7.0603 11.8252 15.7712 14.4904 25.4598-18.8301-2.3657-33.4019-4.1327-37.2167-4.4876-.1627 0-.318-.0184-.4436-.0184-5.0125 4.6465-18.0299 18.113-19.8024 20.2755l-.024.0499c-.0222.0148-.037.0462-.037.0462h.037l-.0222 119.1764c.1165.0333 1.0443-3.8665 2.4305-10.1044 24.4933-.5545 46.9978-9.1786 64.9667-23.34.024-.0314.061-.0314.0924-.061 1.2642-.9796 2.4767-2.0146 3.7095-3.0496.0222-.0185.0462-.05.0776-.0629 1.2143-1.0683 2.4212-2.1366 3.582-3.253 0 0 .0074-.0147.024-.0147 15.422-14.5644 26.5966-33.5554 31.4945-54.9121.0185-.0185.0259-.0629.0259-.0961.3696-1.608.7023-3.2197 1.0054-4.861 0-.0591.026-.1072.026-.1534.2772-1.6413.5415-3.2659.7651-4.922.0074-.048.0074-.0923.024-.1256.2107-1.7004.3974-3.3731.5434-5.0606l-5.9052.743c-4.9016 51.1842-47.2011 91.5633-99.1504 93.4227 2.5136-11.5295 5.9274-27.7204 9.0066-42.843 5.3563-1.1144 10.4482-2.909 15.1835-5.31 4.8295-2.4471 9.3042-5.4968 13.326-9.086l26.3194 32.0526c.3734-.1386-11.6922-32.6737-16.1483-43.6931 3.8684-5.7426 6.7942-12.1505 8.5575-19.0224-.8133.0924-1.6302.1848-2.4287.3087-2.5395 9.2894-7.2822 17.6787-13.6217 24.5672-.7338.804-1.4823 1.5636-2.2586 2.3362-.6802.6506-1.377 1.316-2.0738 1.9185-.3955.34-.7836.6968-1.1921 1.035-7.1436 6.0254-15.7473 10.4187-25.1734 12.5553 3.5893-17.675 6.6223-33.463 7.064-37.9043-.1164.0148-.2328.0296-.3252.0296-5.0643-4.6761-18.2055-18.2055-19.8985-20.2755l176.0902.0184h.1848s-.0314 0-.0702-.0184c-.0333 0-.1035-.0315-.2181-.061a16.6036 16.6036 0 0 0-.6839-.1239c-5.5152-1.022-34.8214-4.9681-66.6116-9.1027v-.013h-.0037zm-48.785-6.2397c-1.841-7.1195-4.9165-13.729-8.9697-19.5917-3.0423-4.3988-6.6168-8.3615-10.6498-11.8289l27.3655-30.4133.3327-.3696c19.2534 16.8691 32.2153 40.782 34.8159 67.6836-14.7622-1.9222-29.7609-3.8222-42.8947-5.4801z" fill="#005C5C"/><path d="M411.622 420.4585h-5.1197v13.9452h-3.4859v-13.9433h-5.1086v-3.0312h13.7142v3.0312-.0019zm23.2142 13.9452h-3.4655v-13.5293h-.0776l-4.922 13.5293h-3.3453l-4.75-13.5293h-.0925v13.5293h-3.46v-16.9782h6.007l3.9368 11.097h.0924l4.1124-11.097h5.9662v16.98l-.0019-.0018z" fill="#0C2C56"/><path d="M145.0737 353.7804l3.3343 3.3601 11.5-14.2095-.684-.6838-14.1521 11.5332h.0018zm24.096-12.7531l-24.6634 31.6978-4.6817-4.6576 5.323-6.7037-4.2565-4.2732-6.6464 5.3415-4.665-4.628 31.6128-25.0441 7.979 8.2691-.0019-.0018z" fill="#FFF"/></g></svg>