<svg width="500" height="500" viewBox="0 0 500 500" xmlns="http://www.w3.org/2000/svg"><title>st.-louis-cardinals</title><g fill="none" fill-rule="evenodd"><path d="M397.5069 394.7714c-13.93 15.8632-31.0424 20.4437-42.1204 20.4437H195.315v-40.3918c20.4437 5.5506 41.1107 9.5402 60.5355 10.7708 75.7681 4.841 148.1795-15.8166 148.1795-86.895 0-35.3065-26.9667-66.7188-81.1537-71.2202v-29.5373h40.1942l-14.735-26.5712h-83.0728l-14.7279 26.5712h40.1779v29.7932h-95.3977v-94.9417c35.7485-.6328 103.0815 2.2263 155.1538 21.2649l23.6656-39.7591c-14.4743 2.2984-32.2032 3.3243-48.9597-.8142-19.1502-4.7457-77.4826-15.8632-129.8597-14.7675V68.0656h23.8704V37.142h-82.4564v30.9237h23.8704v31.6891c-40.1383 5.4878-71.1551 39.9801-71.1551 81.612 0 41.6224 31.0168 74.1723 71.1574 79.353v65.6929a408.4525 408.4525 0 0 1-27.0225-11.7735l-22.2536 29.051a552.3467 552.3467 0 0 0 49.2738 20.239v51.2884h-23.8704v34.7133h218.6576c27.6134 0 49.3855-9.531 66.7817-28.4509l-24.6613-26.7085zM160.6016 228.0907c-24.4333-3.0567-39.7289-23.675-39.7289-48.6363 0-23.3353 17.017-42.8787 39.7289-47.8291v96.4654zm130.111 33.592v30.9308h32.1636v-30.1817c18.7316 2.0449 42.3879 9.966 42.3879 41.1968 0 45.1213-78.027 60.945-169.9515 34.5552v-76.501h95.4z" fill="#C41E3A" fill-rule="nonzero"/><path d="M155.734 410.3521v-43a557.2124 557.2124 0 0 1-46.472-19.2559l-5.476-2.5644 28.3333-36.9878 3.5628 1.7077a403.5884 403.5884 0 0 0 20.0542 8.9502v-54.305c-41.1057-7.2657-71.1575-41.5626-71.1575-83.5303 0-42.2565 30.3423-78.1283 71.1551-85.7524V72.9309h-23.8703V32.2765h92.187V72.931h-23.8704v20.8552c42.2401-.2632 93.8767 6.9747 126.161 14.9752 14.1006 3.4825 30.0297 3.432 47.0301.7324l10.2544-1.6283-31.0393 52.1472-3.7884-1.3851c-41.476-15.1644-97.1213-21.5189-148.6178-21.0346v85.2766h85.667V202.807h-43.572l20.1215-36.3019h88.804l20.131 36.3019h-43.5901v20.2609c50.5652 5.73 81.1536 35.889 81.1536 75.6312 0 35.472-17.2224 61.0846-48.4098 76.2905-26.9173 13.124-63.6052 18.1013-104.9427 15.4601-17.041-1.0796-35.6196-4.2682-55.3625-9.3127v29.2128h155.2063c12.8554 0 27.3386-6.1188 38.4645-18.7887l3.5651-4.0598 31.3678 33.9716-3.0342 3.3c-18.4741 20.0923-41.6278 30.0232-70.3632 30.0232h-223.523v-44.444h23.8704zm.0023-188.1437v-84.1387c-17.736 6.3492-29.9983 22.7195-29.9983 41.3847 0 21.2345 11.7898 37.9491 29.9983 42.754zm130.111 44.3397h-85.6694v67.9516c87.6943 24.2309 160.2209 8.9713 160.2209-30.871 0-12.9092-4.2999-21.758-12.2078-27.6392-5.3535-3.9815-12.2459-6.5416-20.4494-7.9657v29.455h-41.8944v-30.9307z" stroke="#FFF" stroke-width="9.73064"/><path fill="#C41E3A" d="M436.1307 451.5615h-3.885v10.715h-2.4868v-10.715h-3.8686V449.54h10.2428v2.0215zM445.7966 458.566l3.443-9.026h3.5615v12.7366h-2.3054V452.35h-.072l-3.799 9.9265h-1.7284l-3.7826-9.9265h-.0628v9.9265h-2.3147V449.54h3.5779z"/></g></svg>