<svg width="500" height="500" viewBox="0 0 500 500" xmlns="http://www.w3.org/2000/svg"><title>texas-rangers</title><g transform="translate(-57.1429 -57.1429) scale(1.22857)" fill="none" fill-rule="evenodd"><circle fill="#FFF" cx="250" cy="250" r="175"/><ellipse fill="#003278" fill-rule="nonzero" cx="250.433" cy="250.1244" rx="161.6834" ry="161.685"/><path d="M249.9774 142.1917c-58.2166.0018-105.4094 47.7285-105.4094 106.6016-.0018 58.8745 47.1916 106.6031 105.4094 106.605 57.1557-.0491 103.8603-46.1525 105.2902-103.9347h48.2274v-4.7493h-48.1784c-1.1194-58.032-47.9435-104.4932-105.3392-104.5226zM144.568 248.7933v-2.079H95.8686l.0006 4.7493h48.6994v-2.6703h-.0006z" fill="#FFF" fill-rule="nonzero"/><g fill-rule="nonzero"><path d="M249.8435 95.2023c-84.1995 0-152.8088 67.7878-154.264 151.6427v.0065l49.0865.043c.699-26.1062 10.9216-52.0082 30.8488-71.941 8.6096-8.6128 18.3715-15.3166 28.7454-20.3313-.1583.017-.2808.0232-.3467.0232l3.7342-1.697c.0594.013.142-.0033.2047 0 1.695-.7386 3.3998-1.4437 5.1277-2.09-.0462-.013-.119-.033-.1453-.033 1.0815-.4055 2.1541-.7928 3.239-1.1556.056.0098.1157.0363.1651.043 1.6817-.5672 3.3536-1.1661 5.0615-1.6542-.0197 0-.0528-.0066-.0726-.0066 1.2596-.3594 2.5043-.697 3.7672-1.0103.0759.0098.1289.0497.2014.066 2.0049-.4913 4.0144-.991 6.0388-1.3603-.0165-.0066-.033-.0167-.0495-.0167.9332-.1715 1.8567-.3568 2.7966-.5018.0594.033.1025.0694.1651.0957 1.2794-.188 2.5638-.403 3.8531-.5547-.0362-.0131-.1024-.0365-.1254-.0463.6529-.0725 1.3248-.1585 1.9778-.2179 30.4454-3.0106 61.9476 7.1291 85.2643 30.452 11.0926 11.086 19.0672 24.0713 24.1757 37.8715.1023.1253.2247.261.3203.3797.6298 1.7444 1.2355 3.499 1.7797 5.286-.066-.155-.142-.2808-.2146-.4291.3462 1.1178.5848 2.2598.8914 3.3842l.241.274c.31 1.1146.5947 2.2434.8585 3.3678-.0725-.1155-.1388-.1784-.2146-.2872 1.7279 7.185 2.7803 14.5008 2.998 21.85h48.1326c.0198.9563.0595 1.913.0727 2.876 0 .0065.0102.0065.0102.0097 0-85.0977-69.2267-154.3358-154.3228-154.3358l-.0018-.0022zm-56.3083 94.7922v39.0996h12.1471l.1387-1.5947-.2377.7858c0-16.678 8.5865-24.1088 27.8504-24.1088h3.0607v31.6213c0 5.421-3.9262 8.504-6.7455 10.1198 2.8456 1.4608 6.7455 4.3223 6.7455 9.7368v33.8653c0 4.3922-3.0178 7.0228-8.1025 7.0228h-6.2336v15.2209h50.3456v-15.221h-5.9002c-5.6089 0-8.4424-2.2575-8.4424-6.709v-34.1789c0-5.365 4.5571-8.309 7.726-9.7897-3.1293-1.7509-7.726-5.0745-7.726-10.067v-31.5544l1.4923.0098h1.2811c18.6704 0 29.3758 8.4386 29.3758 23.1681 0 0-.0101.8365-.0136 1.674h9.0666v-39.1007H193.5352z" fill="#C0111F"/><path d="M244.9407 106.0791l-9.1921.0265 2.9319 3.3513c0 .0032 5.1088 7.7773 5.986 9.1062-.2506.4154-1.2547 2.0372-1.2547 2.0372s1.4666 1.4137 1.9118 1.8456c-.5012.6727-7.112 9.41-7.112 9.41-.0132 0-2.5356 2.3838-2.5356 2.3838l-.9575.9113 8.7992-.0992s-.5251-2.2853-.6075-2.6645c.2637-.3363 5.036-6.5122 5.7681-7.462.6892 1.0157 5.1277 7.6304 5.1442 7.6568-.0034.0033-.0034.0131-.0034.0463 0 .3297.198 2.0934.198 2.0934l.0562.4556 9.8359-.0098-3.5856-3.523c0-.013-5.4853-8.1439-6.3988-9.5089.2572-.4088 1.2514-1.981 1.2514-1.981s-1.2717-1.4236-1.6608-1.8523c.4617-.6331 6.6366-8.9014 6.6366-8.9014l2.856-3.2951-8.8618-.0265.307.7165s.7068 1.6415.8882 2.067c-.3133.4187-4.6563 6.1787-5.3852 7.1481-.6826-1.042-4.7545-7.2902-4.7742-7.3165.0065 0 .0065-.0131.0065-.0495 0-.3364-.1915-2.1032-.1915-2.1032l-.0561-.4622-.0002-.0005zm-49.9814 10.1825l-.459.251-17.581 9.2448 3.1664 1.9645c0 .1418 3.385 6.6808 3.9059 7.6998l-1.3141 3.4239s3.256.9378 3.6286 1.0466c.1978.3924 3.962 8.0266 3.9785 8.0563-.0494.0033-.0693 2.5226-.0693 2.5226l-.0035.8617 17.813-9.3603-2.6942-5.405s-2.9616 3.972-2.9616 3.9853c-.0297-.043-5.707 2.9626-6.9006 3.5923-.4122-.8046-3.9263-7.6742-4.322-8.4524.755-.3924 4.86-2.5457 4.8733-2.549 0 .0298 2.539-.307 2.539-.307l.7133-.0924-2.6249-5.2926s-2.3707 2.5191-2.3772 2.5226c-.0132-.0198-3.7357 1.9224-4.8204 2.4796-.3957-.7518-3.1207-6.0135-3.5164-6.7685.8046-.4254 7.2011-3.7442 7.2109-3.7507.0065.0495 3.896-.0265 3.896-.0265l.8255-.0165-2.9056-5.6295-.0006-.0006zm115.491 2.5951l-.2576.241s-8.9808 8.2973-9.0105 8.3204c-.0135-.0693-3.4074.4523-3.4074.4523l-.4391.0694s.0169 3.0547.0231 3.4537c-.3297.2934-7.0855 6.369-7.0855 6.369.0693-.0562-2.4267 1.499-2.4267 1.499l-.7957.5018 7.0855 3.3281s.0825-2.8597.099-3.2126c.244-.2473 2.8566-2.8533 3.282-3.282.587.2737 7.9977 3.7742 8.6011 4.0578-.0693.5968-.4722 4.1738-.5085 4.5299-.267.2242-2.4499 2.0801-2.4499 2.0801l9.344 4.3748s-.733-3.896-.733-3.9026c.0232 0 1.2613-8.9512 1.2811-9.0897.0791.0725 2.6118-2.2024 2.6118-2.2024l.3598-.317s-2.572-3.2752-2.5853-3.282c.1187-.0097.6604-11.8828.6604-11.8828l.0231-.3434-3.6715-1.7632-.0002.0004zm-2.9616 8.3038c-.2308 1.9917-.9445 8.1997-1.0665 9.2911-.9661-.4517-4.878-2.3052-5.8869-2.7767.8475-.7947 5.496-5.1425 6.9535-6.5144h-.0001zm-159.0312 21.375l-.3103.383-14.9602 17.8488 4.7413 3.9093s1.149-4.5598 1.1556-4.5729c.0264.023 2.1966-2.5567 2.9385-3.4371.6694.5572 5.3921 4.441 5.6724 4.6653.043.3693.3962 3.4634.3962 3.4634s3.114-.1386 3.4668-.1551c.2902.244 6.8776 5.778 6.8776 5.778 0 .1054 1.1325 2.5488 1.1325 2.5488l.3434.7462 6.3855-7.6403s-3.6715-.5646-3.688-.5678c0-.099-6.7621-5.7914-6.8643-5.887.0065 0 .01-.0199.01-.0594 0-.4484-.4524-2.9683-.4524-2.9683l-.0826-.4721s-3.0414.3236-3.4074.3533c-.3034-.2506-5.003-4.2005-5.6592-4.7545.511-.6364 2.7932-3.3843 2.7999-3.4008.023.0365 3.6484-1.5815 3.6484-1.5815l.7793-.35-4.9229-3.8498v.0004zm205.5176 5.0482c-.8638.0163-1.742.1932-2.615.5679-.7222.3034-1.7178.853-2.3278 1.7367-.7386 1.0848-1.2284 2.541-1.3768 4.1007l-.0661 1.0896c0-.0528-.053.4953-.0627.558-.0857-.0495-1.5783 1.3801-1.5783 1.3801l-.2938.2774s1.8456 3.348 1.8456 3.3677v.1057c0 .6364.1618 3.8036.1618 3.8036-.0395 1.4311-.6911 2.883-1.522 3.4107-1.0684.6892-2.4418.8844-3.7773.5448-1.2662-.3132-3.0791-1.2548-4.5266-3.9093-1.6256-3.5118-.6193-6.1102.5018-7.6633l.383-.5217-2.7206-1.1886-.251.3038c-1.5564 1.9091-2.0375 6.2788.1652 10.6315 1.9389 3.8218 4.4974 6.3207 7.3992 7.221 2.2456.7056 4.5989.454 6.8115-.743 1.0585-.554 1.985-1.5957 2.3904-2.3178.808-1.3684 1.0236-3.0184 1.0269-3.5361l.043-2.5126c0-.0462-.086-1.0405-.1123-1.3834.2638-.2704 1.7664-1.8027 1.7664-1.8027s-1.6972-2.8958-1.74-2.9783c.0102-.0065.017-.0826.017-.1849 0-.1419-.0068-.4887-.0068-.581 0-2.2357.5991-3.7317 1.7103-4.2097 1.342-.5936 4.4028-.518 5.722 2.3277 1.1178 2.4236 1.3398 4.014.822 5.8837l-.1188.4457 2.582 1.0103.1784-.5216c.8738-2.7501-.5427-6.3286-1.4594-8.2214-1.7414-3.5498-5.2278-6.5591-8.9708-6.4912h-.0004zm-229.1332 44.4809l-3.7804 11.6518H108.812l9.9118 7.1979-3.7837 11.655 9.9019-7.2076 9.925 7.2077-3.7936-11.6551 9.9051-7.1979h-12.2494l-3.7871-11.6518h-.0002zm248.9762 0l-3.7838 11.6486H357.775l9.9118 7.2076-3.7838 11.6486 9.915-7.2044 9.912 7.2044-3.7938-11.6486 9.9251-7.2076h-12.2626l-3.7805-11.6486h-.0001zm-236.0742 75.761l-.5712.548s-2.0504 1.9745-2.0636 1.9876c-.0363-.023-2.4929.865-2.4929.865s-4.936 1.773-4.979 1.7895c0-.1187-2.9748-1.3702-2.9748-1.3702l-.4623-.1882s-1.4728 3.2493-1.6377 3.6188c-.3693.1385-8.2544 3.021-8.2708 3.0244-.0131-.0297-2.6943-.1816-2.6943-.1816l-.7792-.0495 3.338 9.3208s2.6118-2.7404 2.6216-2.7504c.0362.033 6.6785-2.441 8.5152-3.1234.0692.2044.4855 1.3608.614 1.75-.3857.4253-9.4759 10.4564-9.4759 10.4564l2.6513 7.5544s2.351-3.5923 2.417-3.6815c.155-.1682 7.6904-8.0603 8.2443-8.644 2.3379 2.694 5.6067 3.9212 8.3733 2.9319 1.8399-.686 3.1079-1.977 3.8431-3.8664 1.0024-2.6049.8106-6.2978-.5051-9.8886l-3.7112-10.1033.0002.0002zm227.059 4.6058l-.6768.35c-1.9454 1.0189-3.6565 3.501-4.8204 6.983-1.5597 4.689-.631 10.6836 4.1701 12.5764.7518.2869 1.8801.6403 2.9683.4226 1.3256-.2637 2.7124-.9819 3.9225-1.9777.0136-.0131.799-.7297.799-.7297-.023.0232.3138-.2477.35-.2774.0264.089 2.1891.1255 2.1891.1255l.3963.0032s1.0631-3.7706 1.0631-3.7837c.043.013 2.5853-2.8526 2.5853-2.8526.9728-.92 2.3421-1.4591 3.2192-1.2514 1.4739.422 2.4969 1.309 3.1036 2.4895.7617 1.487.8511 3.3538.2576 5.405-1.2432 3.4557-3.664 4.5468-5.481 4.8403l-.6372.1057-.0595.6504 1.0235 2.6018.535-.0495c2.1466-.2143 5.8957-2.7668 7.485-7.802 1.2299-3.8283 1.253-7.2705.0726-9.925-1.0585-2.3774-3.074-4.115-5.6888-4.8866-1.1541-.3562-2.5468-.2804-3.4207-.0595h-.0067c-1.4607.4023-2.7576 1.3445-3.295 1.8424-.0198.0098-1.7797 1.7467-1.7797 1.7467-.0462.043-.6177.7333-.8221.9839-.366.0065-2.5853.0362-2.5853.0362s-.8321 3.3185-.8717 3.4635c-.043.0033-.317.3004-.317.3004-1.9949 2.1072-3.3223 2.1163-3.929 1.9316-1.2894-.5012-3.4852-2.4834-2.4268-5.405.864-2.4236 1.7818-3.6628 3.3745-4.5563l.4028-.2246.0231-.548-1.1224-2.5292h-.0004zm-227.6142 4.6423c.2374.6265.7462 2.0767.7462 2.0767.244.6595.3599 1.2785.3599 1.8456 0 .4683-.0794.902-.2345 1.3042-.3858 1.019-1.243 1.7968-2.4696 2.255-1.3388.4782-2.7585.3988-3.8597-.208-.8474-.4484-1.473-1.1766-1.8226-2.1163 0 0-.598-1.609-.8849-2.4037.8376-.287 7.3573-2.4767 8.1652-2.7537v.0002zm209.1758 37.7424c-.4686-.023-.9556.0033-1.456.0792-2.7599.4023-5.8837 2.381-8.3468 5.296l-6.9666 8.1982s3.579 1.0632 3.5956 1.0632v.0032c0 .076 5.8343 5.1674 5.8969 5.2234-.017 0-.0264.0629-.0264.175 0 .6727.2773 3.0904.2773 3.0904l.0595.4953s3.5696-.3071 3.9489-.3467c.3264.2737 6.7057 5.755 6.7057 5.755 0 .0922 1.149 2.4432 1.149 2.4432l.3401.6933 6.4615-7.485-3.6418-.9377c0-.043-5.4267-4.6538-6.9303-5.9166.2572-.2968.9875-1.1262 1.2282-1.4032.5704.1352 13.7253 3.1664 13.7253 3.1664l5.2596-6.0323s-4.2956-.3005-4.355-.3038c-.0791-.017-10.7219-2.7407-11.5759-2.9583.4023-1.1277.7033-2.2663.7033-3.338 0-2.173-.7779-4.1322-2.265-5.4215-1.1204-.9595-2.3812-1.4698-3.7872-1.5386h.0001zm-183.4698 2.7767l-.4754.1619s-10.9256 3.8134-10.9651 3.8234c-.0035-.0693-3.2654-.8684-3.2654-.8684l-.416-.1022s-1.2978 2.7574-1.4627 3.0937c-.4154.1385-9.1457 3.074-9.1457 3.074s.0595.023.066.0296c-.4122.0198-1.1677.1292-2.8131.3797-.0066 0-1.3042.2147-1.3042.2147l5.5866 6.412s1.3043-2.7575 1.4494-3.0773c.3133-.1252 3.5105-1.4002 4.028-1.6046.409.465 5.5442 6.2904 5.9431 6.752-.2835.488-1.9449 3.4012-2.0932 3.6747-.3495.1056-3.2885.9972-3.2885.9972l7.2803 8.3236s.9344-4.2526.941-4.2691c.0132.076 1.8853-3.0575 1.8853-3.0575s2.9583-4.913 2.9815-4.9493c.033.0892 2.9089-1.04 2.9089-1.04l.3896-.1452s-.5877-3.9653-.5943-3.9786c.089.013 5.0747-10.2551 5.0747-10.2551l.1486-.307-2.8594-3.282v-.0002zm179.9422 3.3975c.8116.0728 1.6097.4358 2.3542 1.0764 1.0849.9331 1.707 2.2137 1.7335 3.4734v.076c0 .9298-.331 1.8103-.9608 2.5455 0 .0033-1.0936 1.3183-1.6378 1.9745-.676-.6166-5.769-5.2372-6.3955-5.8077.4188-.4979 1.433-1.6707 1.433-1.6707.8178-.9563 1.7213-1.519 2.658-1.6443.272-.0403.545-.0475.8155-.0231zm-186.4912 3.6947c-.9562 1.6587-3.56 6.1853-4.081 7.0955-.6792-.7683-3.065-3.4844-3.7739-4.2989 1.0552-.3692 6.0478-2.1502 7.8549-2.7966zm54.907 15.9111c-.999.2078-1.9064.274-2.856.218 1.9949.8639 4.0175 1.622 6.0487 2.3574-1.065-.6166-2.0452-1.3223-3.1928-2.5753h.0001zm-20.5076 1.2184l.0561.8815s.2245 3.3216.2245 3.3415c-.0462-.066-1.9513 3.8267-1.9513 3.8267s-1.1987 2.4437-1.3603 2.7834c-.3561.1318-3.424 1.3042-3.424 1.3042s.9873 3.7409 1.0005 3.7739c-.1187-.0198-2.605 5.0087-2.605 5.0087s-1.4463 2.922-1.4627 2.9485c-.0363-.043-2.2683 1.598-2.2683 1.598l-.6802.502 8.1355 4.0347s-.4854-4.1074-.4953-4.1172c.0692 0 5.1597-10.2436 7.0063-13.9466.4715 2.7303 4.038 23.3363 4.038 23.3363l3.3413 1.6872s5.4247-11.0872 5.4445-11.1434c.0527.099 2.8031-1.1787 2.8031-1.1787l.3863-.1816s-.842-3.414-.8485-3.4537c.1187 0 2.1759-4.2263 2.1759-4.2263s1.357-2.7834 1.3669-2.7999c.056.0098 2.1824-1.6674 2.1824-1.6674l.634-.5019-7.8682-3.9853s.3566 4.0315.3566 4.038c-.0594-.0429-3.7342 7.442-3.7342 7.442s-1.0608 2.1812-1.783 3.6518c-.478-2.6413-3.5361-19.4608-3.5361-19.4608l-7.135-3.4966.0002.001zm118.4894 1.971l-.6934.3038-18.3584 7.9738 3.2259 2.364c0 .1352 2.9818 7.0896 3.2423 7.7062-.1616.3628-1.5849 3.4042-1.5849 3.4042s3.2429 1.1954 3.6154 1.3306c.1516.3792 3.2786 8.0365 3.2853 8.0628-.043.0065-.2642 2.7932-.2642 2.7932l-.0693.8551 18.7863-8.1849-2.4202-5.6757s-3.4239 3.952-3.4404 3.9686c-.0198-.0463-4.365 1.8556-4.365 1.8556s-1.6945.7432-2.3542 1.0367c-.2044-.4946-3.2428-7.7404-3.5856-8.5746.765-.333 4.6818-2.0173 4.6918-2.0207.0067.017 2.8461-.1452 2.8461-.1452l.7264-.033-2.4994-6.0223-2.7305 2.5324c-.0068-.0198-4.5399 1.9415-4.5399 1.9415s-.0627.0263-.0825.033c-.3396-.7848-2.6583-6.1621-2.9913-6.9501.7123-.3034 6.7094-2.8793 6.9336-2.9848.277.023 5.0913.2873 5.0913.2873l-2.466-5.863.0008.0055zM254.406 364.442c-7.1588-.0692-13.6786 4.3236-15.8582 10.6778-.0066.0297-.35 1.3174-.3665 1.3471-.0198-.0527-2.067 2.0735-2.067 2.0735l-.2971.3202 2.2683 2.9816c1.2233 7.1686 8.126 12.6028 15.9903 12.672 5.5265.0562 7.1374-.7441 9.0236-1.6838l1.0962-.548s.0463-10.0605.0463-10.1068c.0725 0 1.4428-2.4366 1.4428-2.4366l.4292-.7561-10.4434-.076s1.7731 3.4107 1.7896 3.4437c-.0561 0-.0693 2.5621-.0693 2.5621l-.0135 5.0055c-.5738.1682-1.2408.7066-3.2654.6868-4.9725-.0363-7.8986-4.4961-8.5944-8.8884.043-.033 2.2354-2.2153 2.2354-2.2153l.3301-.3335s-2.0243-2.3975-2.3013-2.7305c.0231-.1023.1519-.8717.1519-.8717 1.0156-3.515 3.7867-7.2934 8.4921-7.1812 3.3866.0725 5.9118.9 7.1087 2.3278-.0067-.0066.416.5183.416.5183l.8783 1.0797.1652-5.3852-.3434-.2278c-2.427-1.6487-4.5183-2.2188-8.2444-2.2551l-.0001-.0001z" fill="#FFF"/><path d="M240.2094 144.4585c-.122.0131-.2346.0296-.3566.043-.6529.0593-1.3248.1453-1.9777.218.0264.0097.0892.0329.1254.0461.8145.3133 3.2164 1.2687 3.5594 1.849l1.2249-.185s-1.5037-1.216-2.5753-1.9712v.0001zm-6.227.7693c-.9431.145-1.8635.3271-2.7933.4986.0166 0 .033.0098.0496.0167 1.7146.4616 3.3105 1.467 5.0384 2.3112l1.6673-.1486s-1.5547-1.329-3.797-2.5853c-.0626-.0263-.109-.0629-.165-.0924v-.0002zm-8.9874 1.8094c-1.2662.3133-2.5077.6542-3.7672 1.0104.0198 0 .0562.0065.0726.0065.831.1385 2.444.4764 3.0508 1.1688 1.8796-.3363 3.181.6083 4.3747 1.2216l2.8132-.9013s-3.6502-1.7994-4.989-1.8292c-.5705-.2737-.9317-.492-1.3537-.6108-.0693-.017-.129-.0562-.2014-.066zm-8.9213 2.6281c-1.0849.366-2.1574.75-3.239 1.1556.0263 0 .099.023.1452.033.521.122 2.2727.559 3.1697 1.3306 1.9653-.333 3.9011.6384 5.3092 1.5353l2.8394-1.0004c-.3132-.521-3.9779-2.1131-6.029-2.1527-.6825-.5374-1.3941-.72-2.0305-.8584-.0494-.0065-.109-.033-.165-.043zm-6.6134 3.2324c-.5436-.0281-1.1248.066-1.608.0462-.0626-.0033-.1453.013-.2046 0l-3.7342 1.697c.0692 0 .1917-.0098.3466-.0264 1.0387-.109 3.7645-.4679 4.1107.3202 2.1137-.2077 4.3898 1.0809 5.7648 1.9546l3.0177-.7792c-1.6289-1.4673-4.6016-2.6214-6.3095-2.5291-.333-.5045-.8398-.6555-1.3835-.6835v.0002zm-8.601 4.3484l-3.6319 1.9679c.465.0295 3.5334.0903 3.9356.9905 2.0972-.1781 4.4129.5525 5.7517 1.39l2.638-2.0075c-2.0708-1.1145-5.308-1.7365-6.993-1.6542-.8507-.2935-.7276-.5648-1.7004-.6868v.0001zm-9.126 5.6559l-2.5192 2.1329c1.2003.3759 1.6056 1.3848 2.341 2.4202 2.4599-.4617 6.0765-1.4353 9.6048-.6439l2.6513-2.3507c-3.9833-.7024-8.2076-.5045-10.3543.0594-.5144-.798-1.7234-1.6178-1.7234-1.6178l-.0002-.0001zm-7.5214 7.8219l-2.0932 1.9248c1.2102.3693 1.5924 1.7413 2.3475 2.7504 2.0346-1.009 6.5268-1.7293 11.0575-1.1127l2.341-3.0177c-6.8719-.488-9.7033.381-11.84 1.423-.7353-1.2431-1.8126-1.9678-1.8126-1.9678h-.0002zm-6.4417 7.9902l-1.6542 2.6118c1.5135.831 1.3712 1.814 2.1 2.8428 2.0543-1.0288 6.2362-2.9872 10.7867-2.3574l2.3277-3.008c-7.1191.155-11.0384.7747-11.5561 2.4267-.7156-1.2464-2.0042-2.5159-2.0042-2.5159h.0001zm-5.6493 7.7887l-1.2414 2.9551c1.1013.8277 1.7774 2.8574 2.539 3.8894 2.038-1.0552 4.6713-3.06 9.202-2.4004l2.1461-3.5032c-5.7739 0-9.493 1.1776-10.014 2.8429-.7189-1.7247-2.6316-3.7838-2.6316-3.7838zm130.0817.8255v44.6066h-14.5672l8.4293 7.977h13.7715v-45.4477l-7.6336-7.135v-.001zm-134.6513 7.4586l-1.2282 3.2886c1.53.831 1.7774 2.8574 2.5192 3.8597 2.0378-1.0157 5.107-2.9048 9.684-2.2948l1.882-3.4702c-5.5529 0-9.3974 1.1974-9.8919 2.8594-.9134-2.2819-2.965-4.2427-2.965-4.2427zm-4.5101 10.1595l-1.0136 3.4074c1.5135.854 2.223 2.8772 2.9583 3.9191 2.0476-1.042 4.5557-2.733 9.1062-2.1064l1.4593-3.2886c-6.918.4254-8.7171 1.0092-9.2283 2.6513-1.0354-2.0411-3.2819-4.5828-3.2819-4.5828zm70.3927 2.0767c-17.764 0-25.0136 6.1579-25.0299 21.432l-.0198 3.48h-17.5516l8.0033 7.5015h16.691l.0165-2.8032c0-15.6399 1.5272-25.4986 18.1167-27.1498v-2.4598h-.2245l-.0017-.0007zm27.5662.0825v28.6914c0 5.3848 8.6573 8.839 8.753 8.8752l3.5626 1.3933c-2.2225-1.7279-4.3021-4.0914-4.3021-7.0657v-29.0394l1.3735.0825c5.3287.4584 9.1658 1.8682 11.8961 3.929-4.4218-4.4184-11.5554-6.8378-21.2834-6.8675l.0003.0012zm86.8518 4.1899l-.4227 1.4395c1.3553 1.474 2.6626 3.044 3.7475 5.329.0725.1485.1486.2743.2146.4293-.544-1.7872-1.1498-3.545-1.7764-5.2894-.0957-.1154-.2213-.2544-.3269-.3764-.3693-.432-.8064-.9087-1.4362-1.532zm-188.9736 3.2918l-.6802 3.4107c1.5366.8441 2.2198 2.8672 2.9748 3.9059 2.0279-1.0387 5.434-2.9048 9.9746-2.298l1.139-3.391c-6.674.4023-9.5954 1.0554-10.1231 2.724-.7386-1.2399-3.2853-4.3518-3.2853-4.3518l.0002.0002zm187.226.8551l-.5183 1.5387c1.9257 1.6553 3.2208 3.0282 4.4375 5.9563l.7264-1.5056c-1.2399-2.5259-1.889-3.1997-4.6456-5.9893zm-2.0701 4.4937l-.951 1.532c2.5952 2.3148 3.7392 3.5934 4.9461 6.9765l.6076-1.291-.0727.1982c1.4574 1.2068 3.1082 3.1337 4.1007 8.4524l.7528-3.0178c-.2934-3.8315-3.857-8.0841-4.3682-6.7652l-.218.601c-1.2233-2.46-2.0275-4.1537-4.7973-6.6861zm7.2473.624l-.7164 1.6245c.788.5638 1.576 1.3982 2.3871 2.6183.076.1089.142.1652.2147.2806a81.1344 81.1344 0 0 0-.8585-3.3645l-.241-.274-.7858-.8849zm-10.1067 4.0842l-1.291 1.717c1.9522 1.2068 3.9803 4.1244 5.2202 7.0722l.6339-1.0433c1.075.9299 2.9996 2.3372 4.2593 9.6213l.974-2.5357c-1.0717-6.9279-4.3024-9.5367-4.563-7.9868l-.4523.558.3467-.558c-1.2431-2.4929-2.75-5.199-5.1276-6.8444l-.0002-.0003zm-185.348.0462l-.7131 3.6386c1.5102 1.4014 2.639 4.003 3.3777 5.055 2.0444-1.042 5.2457-3.8919 9.76-3.2456l.7098-3.0443c-6.6048.5012-7.6589 1.2341-9.2679 3.2027-.7221-1.253-3.8663-5.6064-3.8663-5.6064h-.0002zm181.4448 5.121l-1.6245 1.7202c1.9521 1.197 4.9047 4.405 6.138 7.3595l1.1655-1.7499c-1.23-2.506-3.295-5.6779-5.679-7.3298zm-5.0815 5.4017l-1.8621 1.5089c1.3586.8969 6.0702 4.864 7.2936 7.8219l1.423-1.9646c-1.2332-2.5093-4.378-5.691-6.8544-7.3662zm-179.3052.7594l-.5283 3.5229c2.684 2.3082 3.7946 4.5213 4.5761 5.4842.8804-1.7576 4.219-3.4035 8.786-3.0243l.5679-3.3183c-5.4177.3165-7.8557 1.2072-8.5714 2.7637-.7914-1.2399-4.8304-5.428-4.8304-5.428v-.0002zm190.9007.175c-.0864.013-.1685.0523-.241.1189l-.8287 1.4362c2.3246 2.9776 3.2162 6.3287 3.4833 10.8197l1.6476-2.5258c-.0496-4.3929-2.7655-10.0383-4.0612-9.8491zm-3.097 4.5036l-1.6508 2.1494c1.0783 3.6008 1.7459 9.7283 1.1557 13.2764l2.1361-2.8097c.3594-4.0229-.899-9.0316-1.641-12.616zm-14.432.2146l-1.9677 1.7467c1.9653 1.1706 6.0206 4.93 7.234 7.8779l1.618-1.7137c-1.2366-2.4961-4.4936-6.2687-6.8842-7.9109zm-52.7087 5.3917l-3.929 1.1061c-.0858.023-8.611 2.4937-8.611 8.284V289.83c0 2.318.9471 3.863 5.5999 3.863h2.407c.0033-.2176.0197-.446.0033-.6801v-10.3476c2.4137 2.1202 4.9485 3.8567 6.871 4.0744l.8386-.4953c.033 4.1648-.319 6.6304.6735 9.5387l-2.0504-1.9083v20.7281h-55.8592l8.776 8.3006h3.8004c.5671.9166 1.2193 1.628 2.0207 1.8523l1.8159-1.8523h46.2104v-22.7288l-3.3413-3.1037 2.6645-1.116c-1.9883-2.0839-1.9047-8.219-1.7004-11.5396l-.9245.5448c-3.703-.6133-7.712-4.312-9.5651-6.8247l-.2312.0957V258.857c0-6.984 9.6774-9.6641 9.6774-9.6641s-2.6316-1.0425-5.1475-2.9353h.001zm47.1315.1155l-1.9745 1.7467c1.972 1.1772 6.0207 4.94 7.2407 7.8811l1.3075-1.3966c.3924 4.6955.3657 9.9712-.1717 12.4343l2.4267-1.938c.3957-4.2339.1344-9.1308-.624-12.7117l-1.7103 1.2514c-1.4146-2.4599-4.3017-5.7504-6.4944-7.2671zm14.4188.6967l-1.8392 1.8259c.61 1.5761 1.0824 3.4956.6043 13.0055l2.321-2.1626c.066-7.1324-.318-9.081-1.0862-12.6688zm-184.0252.8617l-.2344 3.3876c1.3388.6034 3.8112 4.746 4.5531 5.7614.1748-.188.3935-.8096.8485-1.3669.8112-.976 3.1498-2.367 8.1752-2.156l.2872-3.107c-5.7969.0692-7.6507 1.4832-8.1421 2.0537-.4616.4056-.6407 1.176-.766 1.608-.8936-2.3644-4.7215-6.181-4.7215-6.181v.0002zm163.0765 3.7607l-2.0437 1.5287c.8606.2408 3.1674 2.5455 6.4417 7.4158l1.958-1.6146c.2704 5.4077.6992 10.5325.1122 13.0056l2.3575-1.8359c.4749-3.9503.3526-8.5437-.2146-12.7413l-2.1924 1.4198c-2.8578-4.1973-4.7655-6.0754-6.4208-7.2023l.0021.0242zm-8.657 6.6233l-2.7867 1.697c1.2596.9464 6.947 7.5169 9.6048 6.5242 0 0-1.2016 8.1245-.9872 12.3288l3.0507-1.9546c-.0989-2.2093.047-11.5324.5977-13.7055.112-.1187-1.7145 1.7658-2.4665 1.2381-1.197-.8342-3.244-1.993-7.0128-6.128zm-155.2145.2576l.0726 3.7375c1.5004.9002 3.841 3.2635 4.53 4.322.9397-1.5828 2.0063-2.4017 8.7826-.9707l.0363-3.2356c-7.993-.3891-7.8782.3348-8.1321 1.357-.686-1.2695-5.2894-5.2101-5.2894-5.2101v-.0001zm144.8406 5.2299l-3.7937 2.0702c2.1961 2.2686 9.392 7.9835 10.866 8.0298l.2013-.1552c.0264 4.8143-.5787 7.3148 1.2646 11.0046l3.4404-1.4362c-1.9818-2.061-1.8916-8.2159-1.697-11.533l-.1188-.208c-1.2267.4287-2.7852.058-4.1767-1.1292-1.3849-1.1838-5.986-6.643-5.986-6.643h-.0001zm-144.8439 5.844l.2014 3.348c1.774.4189 3.9466 1.5136 4.7018 2.5392 2.0346-1.042 4.9275-.9484 8.5316.9773l-.0957-3.3216c-4.3658-1.9586-6.6155-1.61-8.2181-.6603-.7354-1.2761-5.121-2.8824-5.121-2.8824v-.0001zm131.6659 2.2552l-3.457 1.4296c3.1326 3.2678 7.284 6.8515 10.0968 7.1714l.8452-.4853c.043 4.91-.5919 7.3974 1.258 11.1334l3.4569-1.4395c-1.9917-2.0675-1.9048-8.2256-1.707-11.533l-.9113.5382c-3.7195-.5968-7.7185-4.2923-9.5816-6.8147v-.0001zm-130.8966 6.6728l.8617 3.721c1.9851.511 3.2796 1.4508 4.0248 2.4896.3924-1.042 1.6596-.468 3.3183.2674 1.4607.676 2.5511 1.4506 4.2393 2.374l-.0858-3.348c-3.6866-2.3676-7.2877-4.1713-7.8087-2.5259-.7188-1.2431-4.5498-2.9782-4.5498-2.9782h.0002zm1.7102 8.5679l.4622 3.371c1.6059.6595 2.8404 1.573 3.5956 2.6975 1.7377-.2176 3.277.4558 7.0096 3.1301l-.2774-3.1664c-3.8118-3.1918-5.6708-3.008-7.0294-3.008-.742-1.3585-3.7607-3.0242-3.7607-3.0242h.0001zm66.5597 25.3843l-1.0863 1.1688c.333.1582.7104.3304 1.0863.4952v-1.664zm-4.9923 6.5011l-1.5122 2.2716c3.6965 1.9421 7.3076 2.0867 10.5557 2.0867l.1915-.274c1.352 2.9875 2.6588 6.0866 5.9365 7.3232l1.8589-2.1561c-2.4071-.9694-5.5675-5.0912-6.1544-7.5676l-.2047.3005c-3.6833.699-8.0432-1.2095-10.6713-1.9843zm-4.4045 6.5903l-1.357 2.4005c3.6931 1.1409 6.906 1.3267 11.0178.865l.2114-.3764c1.4871 2.7369 1.8704 4.3645 5.722 6.6266l1.8653-2.1527c-2.4236-.976-5.366-4.8832-5.9498-7.3628l-.4028.6405c-3.8217.9827-8.4658.131-11.107-.6405l.0001-.0002zm-3.3413 6.871l-1.106 2.519c4.003 1.3718 7.7196 1.6568 10.427 1.093 1.3782 2.2751 2.8767 4.4258 6.1808 5.6592l1.2084-2.1527c-2.7303-1.1244-5.2807-2.5698-6.1742-5.9134-3.8448.9728-7.8847-.4335-10.5358-1.205l-.0002-.0002zm-2.1428 5.8044l-.7297 2.2385c3.703 1.9159 7.2672 1.6237 9.9678 1.0434 1.4872 2.1136 2.7382 3.3 6.0258 4.5266l1.1787-1.7037c-3.5051-.4254-4.8788-2.2185-6.4615-4.586-3.8185.9726-7.353-.7407-9.981-1.5189h-.0001z" fill="#003278"/></g></g></svg>