<svg width="500" height="500" viewBox="0 0 500 500" xmlns="http://www.w3.org/2000/svg"><title>toronto-blue-jays</title><g fill-rule="nonzero" fill="none"><path d="M421.9457 120.2392c-33.01-43.7344-80.9261-72.9807-134.8891-82.3212-28.6857-4.944-57.549-4.1003-85.7814 2.4924-29.224 6.8463-56.274 19.5395-80.4116 37.7653C75.0328 112.7843 45.3905 163.128 37.471 220.009c-7.9564 56.8791 6.7426 113.4141 41.3253 159.2357 33.0007 43.751 80.926 72.9955 134.8984 82.299h.0148c28.6523 4.983 57.4897 4.1392 85.7258-2.4536 29.2019-6.8314 56.2593-19.5394 80.4246-37.7985 45.8475-34.5771 75.4343-84.9376 83.3907-141.8204 7.949-56.8422-6.7278-113.3957-41.305-159.234v.002zm38.35 158.8324c-7.827 56.0761-37.029 105.7408-82.2195 139.861-23.8249 17.9851-50.49 30.5304-79.3163 37.247-27.8179 6.504-56.2778 7.3089-84.5416 2.4388h-.0185c-53.2303-9.211-100.46-38.0372-133.0295-81.1647-34.1016-45.1999-48.5786-100.9448-40.7313-157.0228 7.8269-56.0742 37.0491-105.776 82.2194-139.8776 23.8045-17.9445 50.4863-30.4897 79.3052-37.2286 27.829-6.5206 56.276-7.3088 84.5786-2.4369 53.221 9.211 100.4544 38.0373 132.9943 81.1481 34.1201 45.198 48.5934 100.98 40.7573 157.0375l.0018-.0018z" fill="#FFF"/><path d="M314.1972 115.1823c4.7998 3.5563 11.8495 2.5294 15.4022-2.2685 3.5619-4.7794 2.5257-11.8477-2.2722-15.4022-4.8072-3.5526-11.8477-2.5257-15.4096 2.2704-3.5526 4.7997-2.498 11.831 2.276 15.4021l.0036-.0018zm-198.4886 47.8754c4.8071 3.5527 11.8384 2.5257 15.4003-2.2703 3.5637-4.798 2.5164-11.8495-2.2685-15.4022-4.7887-3.5341-11.8422-2.509-15.4022 2.287-3.5637 4.7776-2.5275 11.8662 2.2704 15.3837v.0018zm72.4108-54.3923c4.798 3.5712 11.8384 2.5442 15.3947-2.2703 3.5712-4.759 2.498-11.8477-2.2722-15.3818-4.8016-3.5527-11.842-2.509-15.3947 2.2703-3.5711 4.798-2.509 11.8495 2.2703 15.3837l.0019-.0019zm-71.4672 209.1207c1.9503-.916 2.2334-3.1493 1.1343-5.477l-1.484-3.1086-6.0432 2.8736 1.4674 3.0937c.703 1.5173 2.5645 3.7525 4.9274 2.6164l-.0019.0019zm206.8688 70.5272l.4848 6.3521 4.5148-2.361-4.9996-3.9911z" fill="#FFF"/><path d="M404.275 133.5339c-3.1604-4.1744-6.4762-8.221-9.9363-12.1049-.061-.0555-.1443-.148-.246-.2739-28.8985-32.3807-67.6778-53.9704-110.8256-61.442-53.1193-9.174-106.061 3.6451-149.0922 36.1332-41.1329 31.0042-67.6851 76.2003-74.8274 127.2232-7.1164 51.0044 6.0506 101.7497 37.0806 142.864 29.6238 39.2455 72.5959 65.4518 121.0116 73.8393l.024.037c53.1268 9.1554 106.0721-3.6822 149.0905-36.1518 41.105-31.0226 67.685-76.2206 74.831-127.2231 7.1145-51.0044-6.0635-101.7682-37.112-142.901h.0018zm-43.1127-12.0124s-.1998 8.9001-3.201 16.0239c7.8823-4.487 15.9239-6.9055 24.3188-8.1674-8.6595 9.9252-15.0728 18.605-19.4044 30.3454 7.6382-5.3474 12.5638-7.3088 19.5691-7.5863-6.9794 6.6686-9.3886 21.0253-12.6933 34.5956l-9.5773-15.6408-4.0374-6.5743-4.0393 6.5743-11.842 19.3914-7.8917-3.1825-7.2163-2.9143.7216 7.7658c.0296.1999 1.8984 19.41 2.6275 27.0297-4.1448-4.0467-12.0309-11.7015-12.1382-11.8292l-5.0829-4.9644-2.6274 6.6297-2.3555 6.0062-16.0313-2.744-6.0228-1.0085.3571 4.2502c-10.8244-.6236-18.048-1.9984-28.9262-4.672-8.8446-2.1243-21.8838-7.2719-34.12-11.065 7.2347-.9326 15.75-1.1325 26.1266-.1795 0 0-44.0564-14.3031-64.6025-.222-2.6977 1.6134-4.7127 3.5896-5.7915 5.773-2.7866 5.5824-.6235 11.113-.6235 11.113-8.308 0-15.3578-9.285-14.7527-18.9918 6.217-9.4126 15.2004-18.9344 32.6713-24.687 26.6817-8.7336 129.6767-8.2026 166.5852-51.0729v.0037zm-200.0707 52.3033c-.8696.6587-1.7522 1.3378-2.6219 2.0354-.172-.3516-.3756-.681-.5921-1.0473-.1388-.222-.285-.457-.4681-.6772-.9881 1.21-1.9503 2.4553-2.8866 3.7006.1037.1665.1925.3849.3035.568.063.0926.1295.2036.1924.3294-.605.5126-1.2212 1.0455-1.7763 1.5728-.222.185-.4496.407-.6513.5514-.0185-.037-.0666-.0925-.0833-.1295-.0185 0-.0185-.037-.0444-.0555-5.3474 7.5493-9.6957 15.5687-13.0744 23.9007-2.7015.457-5.329.9344-7.8935 1.3914 5.7046-15.4743 14.4936-30.1048 26.4967-42.9091 41.4918-44.2414 107.3377-52.0831 157.3521-22.1392-2.8384 1.025-5.76 1.9946-8.728 2.9124-6.143-3.2566-12.5082-5.9692-19.0177-8.0933-.2035-.0556-.4256-.148-.6235-.1814-.1018-.0555-.2295-.074-.3405-.0925-23.91-7.6012-49.6758-7.4161-73.4581.3109v.0185c-.7402 2.6903-2.3444 6.6649-3.3306 8.3857 1.1157.9529 1.9299 2.1648 2.461 3.497.4033 1.0252.6216 2.091.74 3.1697.1018 1.2471.037 2.5109-.1628 3.6637-.1202.0185-.2664.0185-.3848.0185-1.3378.074-2.6553.148-3.9653.2405.148-.6236.174-1.5228.037-2.548V152.2c0-.0555 0-.1295-.0093-.1813-.3108-2.2352-1.3081-5.0736-3.4786-7.4162.1555-.185.3201-.37.4848-.568 1.1713-1.5173 2.3166-4.2669 3.1678-6.6834-.6532.1998-1.31.494-1.9706.7494a121.6643 121.6643 0 0 0-6.0247 2.509c-.568 1.8467-1.2212 3.6785-1.769 4.8849-.0277.111-.0628.1665-.0924.2405-.0444.074-.0833.185-.111.259 2.4368 2.9828 3.3787 6.591 2.9309 9.6866-1.484.2923-2.9569.5847-4.3964.9159v-.074l.037-.148c.494-2.0114.3941-5.1255-3.251-9.248.7512-.8234 1.484-2.4536 2.1334-4.3205-2.3721 1.2082-4.7424 2.472-7.0498 3.8635-.0647.222-.1295.4033-.1665.5865-.1813.6772-.3664 1.2638-.5125 1.6838.2775.2776.5144.5496.7586.842 1.027 1.2285 1.806 2.62 2.3462 3.993.4756 1.3562.7883 2.7662.8253 4.104-1.447.42-2.8495.8234-4.2502 1.3174.1202-2.1057-.5496-5.3105-4.2003-8.6262.172-.2554.3553-.6218.5107-.9696-.877.5828-1.767 1.1897-2.6182 1.7948-.8253.5829-1.6764 1.1509-2.4795 1.7578 1.9928 1.8133 3.3121 4.1929 3.9727 6.5539.1.4219.1906.8067.248 1.2101-.0297.0555-.0926.074-.148.111-1.1898.4385-2.3537.9696-3.4787 1.4655-.0555.0185-.111.0555-.1758.074 0-.1295-.037-.2776-.0629-.4404-.111-.8419-.3738-1.7393-.8586-2.7459-.4126-.8067-.9806-1.6838-1.7208-2.5275-.3386-.3849-.6846-.7494-1.0917-1.1713h-.0074a114.3467 114.3467 0 0 0-3.8912 3.2566c.2998.296.5662.6069.8215.8993.5588.6587 1.0251 1.2989 1.4581 1.9761.5218.9381.9437 1.8133 1.2804 2.7496-1.125.605-2.224 1.1713-3.3047 1.7763-.431-1.4654-1.2822-3.275-2.9753-4.944-.296.222-.5588.4958-.8511.7308-1.064 1.0066-2.1427 2.0687-3.2048 3.1308.246.296.4663.5865.6957.8974a17.0907 17.0907 0 0 1 1.6838 3.0216c-.1665.0925-.3016.185-.4663.296-.7771.5107-1.5468 1.0214-2.298 1.5358a12.8077 12.8077 0 0 0-2.017-3.2973v.037l-.0258.0185c-.6292.6402-1.2546 1.3878-1.8596 2.0687-.4922.5495-.9955 1.099-1.4803 1.6653.57.7124 1.0547 1.4988 1.4618 2.3259l.0018-.0019zm113.231-25.9324c-.679 1.4433-1.7504 2.9828-2.7477 4.3205-2.0798.422-4.1762.7513-6.245 1.1361-.0277-.0555-.0554-.111-.1202-.1665.4663-.383.9344-.8234 1.4285-1.3544 1.484-1.5025 3.0216-3.4786 4.0466-5.1624 1.2176.4015 2.4425.8048 3.636 1.2267h.0018zm-14.2476 6.3374c-1.3396.1998-2.6385.42-3.956.6032-.5329-1.7948-1.347-3.5156-2.646-4.9478 1.621-1.5357 3.945-4.4685 5.3013-6.8314 1.2711.3294 2.509.7142 3.7561 1.0825-1.1657 2.4701-3.4453 5.4177-4.4352 7.1052.8437.7864 1.5025 1.8133 1.9798 2.9846v.0037zm-11.028 1.6653c-1.434.222-2.892.4404-4.302.6217-.2035-2.7496-1.1712-6.4465-3.5156-9.2701 1.6653-1.373 4.167-4.7406 5.7416-7.2681 1.2712.2738 2.5535.6217 3.808.9344-1.2804 2.4369-3.6156 5.6028-4.7054 7.1978 1.9058 1.9058 2.8218 4.907 2.979 7.7825l-.0055.0018zm-13.0262.6217c-1.3693-.2775-2.72-.5144-4.1152-.7512.544-1.9614.37-5.6953-1.619-9.3405-.2924-.5125-.6032-1.0436-.9622-1.5358 1.7393-1.247 4.5148-4.709 6.3096-7.3458 1.3286.2776 2.6645.5496 3.9838.7883-1.4377 2.472-4.5703 5.8415-5.8063 7.379 2.5294 2.931 3.1344 7.4347 2.2093 10.806zm-12.0975-1.7948c-1.447-.0925-2.868-.1813-4.278-.2406.7587-2.0113.6143-6.169-2.4165-10.4543 1.73-1.2083 4.0282-5.3845 5.464-8.3876 1.3008.1296 2.6275.259 3.9782.422-1.1472 2.6551-3.1825 6.6481-4.426 8.1858 2.4277 3.0012 2.6571 7.2126 1.6783 10.4728v.0019zm82.0807-59.3346c6.0986-8.2043 17.6632-9.9825 25.8232-3.9375 8.1322 6.0617 9.7882 17.6522 3.6914 25.84-6.0728 8.2228-17.6466 9.9824-25.7862 3.919-8.16-6.0266-9.8179-17.6152-3.7284-25.8215zm-33.319-22.4889l25.4162 5.1476-.148 8.5153c-.977-.953-2.4795-2.1094-4.5667-2.5276l-5.7693-1.1527-4.9182 24.2837c-.346 1.7208.0555 3.238.8142 4.376l-10.7023-2.1649c1.2452-.7475 1.9317-1.9206 2.3073-3.7876l4.9182-24.2467-5.2309-1.0417c-1.9502-.3701-3.3676-.4034-5.2179.3848l3.0956-7.7843.0019-.0019zm-25.5863 2.4536c-.1554-1.5913-.3849-2.6553-1.0917-3.4972l9.3257-.568c-.7254 1.099-.7809 2.4905-.7254 3.7747l1.8874 32.2105-22.389-17.6151.8437 14.501v.0555c.1554 1.9762.2295 3.0938 1.1713 4.0652l-9.8623.6014c1.1158-1.2638 1.2064-2.8014 1.1417-4.304l-1.8578-31.7386 22.4334 17.5596-.8789-15.0487.0019.0037zm-67.167 13.5351c6.0728-8.2062 17.6466-9.9658 25.8047-3.9227 8.1322 6.047 9.7993 17.6559 3.7284 25.8417-6.106 8.2044-17.6817 9.9807-25.8232 3.919-8.1507-6.045-9.816-17.6336-3.708-25.8398l-.002.0018zm-36.5514 19.2638l.1202-.0925c1.5728-1.1527 3.599-2.0872 4.0282-2.2148 2.0964-.8253 4.1632-1.1546 5.995-.9345 1.1917.148 2.2723.5126 3.5157 1.0436l.222.1296c1.547.7697 2.894 1.9613 3.9838 3.4786.8419 1.1176 1.4562 2.2888 1.8226 3.5711.1628.5144.8696 3.3528-.642 7.1793l-.237.642 12.5453 4.2484c1.8207.531 3.4694.7883 4.7776.879l-8.1322 5.9395-19.04-6.7593 7.3459 10.1102c1.1102 1.3138 2.0353 2.3055 3.7006 2.4536l-8.6725 6.317c.2128-1.2286-.074-2.3444-.481-3.2418l-16.9361-23.5713c-.977-1.3175-2.4055-1.8504-3.6507-2.1057l9.7327-7.072h.0019zm-35.8928 35.1267c6.1061-8.2044 17.6892-9.9825 25.838-3.9375 8.1415 6.0432 9.8068 17.6336 3.71 25.8769-6.0913 8.1877-17.6651 9.9473-25.8158 3.9227-8.1507-6.0802-9.8068-17.6392-3.7377-25.8603l.0055-.0018zm-16.4864 26.8668l8.3339 1.7208c-1.0917.7697-2.5165 2.0687-3.3121 3.993l-2.2389 5.4585 22.9311 9.3738c1.6283.6772 3.214.568 4.4686.037l-4.1855 10.1805c-.457-1.2638-1.3729-2.3074-3.238-3.0401l-22.9071-9.3941-2.0058 4.9255c-.7142 1.8504-1.0066 3.2788-.6032 5.2365l-7.0497-4.5222 9.8067-23.9692zm-20.646 63.5292c4.5148-4.981 21.7192-13.004 71.963-21.3343 4.5963-7.3088 7.7474-10.3692 13.909-12.9486 1.1102 9.9067 6.576 21.6304 20.4314 22.5981h.1295c13.1484 0 15.6094-13.7535 29.6478-13.7535 14.1458 0 16.5457 13.809 30.0309 13.809h48.6896l.6328 8.0397h-49.8886c-12.9764.42-15.4928 13.8072-29.4665 13.8072-14.0995 0-16.5475-13.6259-29.8052-13.8072h-2.0945c-7.1349 0-10.88 2.4369-12.9338 5.1624-3.2381-.0555-6.5447-.1628-9.9141-.1813-40.994-1.3915-64.3804-.5496-81.0815.1295-.6254-.1665-.9178-.5884-.2498-1.521zm14.155 94.1115l-7.9286-16.6825c1.9428 2.0131 4.3668 2.3443 7.4013.9529l32.3752-15.3689c2.6923-1.1897 3.6822-3.238 3.71-5.403l7.7066 16.3015c3.993 8.2562 1.3563 17.4671-5.9951 20.9642v.037c-5.0477 2.3463-8.4634.7716-8.4634.7716-.914 4.3594-3.5785 7.2718-7.2052 8.9556v.037c-4.6961 2.2204-15.2097 2.8606-21.5989-10.5654h-.0019zm41.453 51.554l-3.8635 2.435-20.1723-22.6351c2.6645.916 4.8164.8974 7.2607-1.1343 2.7903-2.4738 26.5078-23.6065 26.5615-23.6786a3.1377 3.1377 0 0 0 .259-.2406c2.313-2.1223 2.6978-4.2095 2.1039-6.2078l5.2179 5.86-32.3623 28.8244 14.9747 16.777H125.9631zm1.7578-1.1176l-13.7701-15.4559 30.7654-27.4533.0278.0185 5.2179 5.86c-2.5239-1.5543-6.4262 1.373-6.4262 1.373-.0648.037-.1184.111-.1813.148h-.0185c-2.8496 2.5072-19.8967 17.7446-22.9812 20.4905 2.276 2.5294 6.0784 6.8148 6.0784 6.8148l.148.148c3.4231 3.771 7.6419 4.0097 7.6419 4.0097l-6.502 4.0485v-.0018zm61.3237 0l-14.8249 23.3881c-5.0736 7.9805-14.366 8.9741-23.2401 3.3121-9.0907-5.8063-11.5276-14.155-6.5187-22.1965l14.8155-23.3697c1.6912-2.707 1.582-4.3187.2998-6.5724l6.639 4.2132-17.4523 27.5052c-.496.7716-.6217 1.025-.6217 1.025-1.9614 3.0957-1.6043 7.1423.481 10.621.037.074.074.1295.1222.2035 1.125 1.8466 2.7829 3.5526 4.8793 4.8849 6.032 3.8487 13.426 3.042 16.492-1.7949 0 0 .4126-.6013.6513-1.0047l17.4338-27.507 6.6112 4.1929c-2.1704-.2702-4.1669.6439-5.7693 3.0993h.0019zm-31.9867 17.5263c2.8495 1.8318 6.4762 1.4247 8.049-.8438 4.9773-7.875 14.4066-22.7276 14.4066-22.7276 1.4932-2.3776 1.7763-4.2095.2924-6.5872l6.6482 4.2096-17.7724 28.038c-2.8125 4.376-8.9834 4.9256-14.0551 1.7023-5.0829-3.2233-7.0979-9.1924-4.3668-13.4778l17.7354-27.9474 6.6242 4.2114c-2.6737-.148-4.4408.9177-5.8156 3.0586 0 0-.0833.1628-.259.42-.0334.111-12.5138 19.7615-14.1273 22.2687-1.3748 2.4369-.2313 5.897 2.646 7.6752h-.0056zm67.6333 29.905l-22.0504-5.218 4.0115-16.8324 17.9852 4.304-1.5413 6.3576s-.8049-2.8199-4.6258-3.8671l-.1351-.0519-8.0674-1.8873-2.0687 8.6818s11.4424 2.7088 11.5164 2.7292c4.2688.8789 6.2727-.259 8.049-1.299l-3.0753 7.0868.0019-.0037zm6.2263-26.7928s-1.347-3.003-6.8647-4.339l-10.1657-2.398-1.5728 6.7426 8.406 1.9946c3.7988.8975 5.9026-1.4284 5.9026-1.4284l-1.5265 6.428-18.1665-4.3038 3.5248-14.8526 20.9513 4.9478-.4866 7.2162-.0019-.0074zm.6144-9.3016l-22.6296-5.403-8.974 37.7801 23.9284 5.6805-1.8133 4.1559-31.5907-7.4939c3.4046-.3848 4.8423-2.9827 5.3474-4.8349.061-.222-.011.0925 8.3487-35.1618.6032-2.509-.4219-4.798-2.0964-6.3374l29.7477 7.0498-.2738 4.561.0056.0037zm-67.7443-47.4332c-22.104-20.7126-35.1249-47.5239-38.8977-75.3973 2.3536.531 4.7332 1.0621 7.1515 1.5543 1.7764 11.374 5.1736 22.4723 10.201 33.0007.074-.111.1553-.222.2404-.3479.0611-.0925.1259-.185.198-.259.7328.9159 1.4673 1.8503 2.2445 2.7662-.3201.457-.5958.953-.9067 1.4655.3571.642.6939 1.2637 1.0436 1.9058.2831.5496.568 1.0806.8882 1.6653.0629-.1998.148-.3664.209-.5495.3017-.7883.6514-1.5358 1.0362-2.2519.8216.8419 1.6838 1.6653 2.5813 2.4905-.3942.7124-.7143 1.5543-1.0177 2.4147-.1999.533-.3849 1.1361-.5477 1.7393.8937 1.4285 1.8096 2.8384 2.744 4.2502.2313-1.9798.9344-3.9375 1.8503-5.6435.916.7901 1.8319 1.558 2.7478 2.3278-.1554.3515-.3386.7512-.5052 1.1712-.6772 1.7948-1.2267 4.0115-1.2027 6.2449.4626.642.9548 1.2453 1.421 1.8688a177.2222 177.2222 0 0 0 3.1123 3.8987c.0185 0 .0185-.037.037-.0556l.0278-.0185v-.0333c-.3775-.8604-.605-1.7763-.7327-2.6922-.3516-2.6719.3756-5.292 1.6209-7.4161.32.259.6846.4755 1.0454.7327.6772.5126 1.3563 1.0066 2.0428 1.5025-.1758.3663-.3609.8604-.5255 1.3378-.7772 2.398-1.199 5.823.0462 9.1554-.0925-.037-.1628-.0555-.246-.0555-.1666.0185-.3516.1295-.5496.2405-.0925.0555-.148.148-.222.259.7512.8216 1.495 1.6469 2.2999 2.4888a83.488 83.488 0 0 0 2.3814 2.472c.1554-.4034.3386-.7697.5033-1.1527.037-.074.074-.1259.1202-.2184.1666-.2775.3016-.5865.4848-.8789-2.063-3.6266-1.6412-7.8195-.074-10.8984 1.0417.6254 2.1279 1.2656 3.2288 1.9243-.2109.4774-.394 1.1195-.5495 1.8503-.4015 1.9614-.5125 4.6333.2664 7.2533a10.74 10.74 0 0 0 .8142 2.1224c-.063-.037-.148-.037-.2554-.037-.037.037-.1017.0555-.1554.111a.1654.1654 0 0 1-.0833.0185c-.037.037-.0555.074-.1017.111-.063.037-.1018.0555-.148.1295-.4256.4552-.8512 1.3545-1.2527 2.361 0 0 .0185.0556.037.074h.0259c.2405.2406.4866.4571.7327.6588 1.2027 1.1176 2.4369 2.1982 3.6822 3.2418.383.3293.7475.6772 1.1324.988.32-1.7208.8696-3.1677 1.9687-4.907-1.8984-3.3861-2.226-8.0767-1.136-11.3555a46.2615 46.2615 0 0 0 2.5996 1.1916c.2683.1295.533.2775.7994.3849-.6328 2.5627-.7957 7.8195 1.6098 11.5201-.2276-.074-.4441.0185-.6754.222-.7956.6606-1.4433 2.857-1.9613 5.5326 15.4132 11.9031 32.9728 19.5024 51.1338 22.8885 1.2083 2.5294 2.3444 5.0385 3.4694 7.5494-24.6501-3.6692-48.4564-14.5862-68.0366-32.9174h.0037zm27.544.7142c-1.4932-.2035-2.1797 2.894-2.6201 7.9657-1.2453-.3479-2.4794-.7124-3.6914-1.1157.174-3.8672.6328-6.0802 1.9613-8.0934-3.1696-2.509-3.3787-8.023-2.3813-11.72 1.2897.4367 2.5904.8752 3.9005 1.2582-.5107 2.9328-.4016 9.3812 2.831 11.7052zm11.8199 2.1982c-1.4914-.037-1.767 3.882-1.6468 8.221-1.3285-.111-2.6386-.3108-3.9283-.5125-.2498-3.5526-.085-6.3374.9252-8.332-.4404-.296-.8437-.6236-1.2286-.99-2.546-2.6015-3.0956-7.3458-2.546-10.6764 1.3655.3109 2.7384.5847 4.1576.842-.2923 2.8032.3201 8.7002 4.265 11.448h.0019zm12.3787 9.1407c-1.336.074-2.646.0888-3.9357.0888-.555-3.2936-.5847-6.1709.0648-8.752-3.8117-1.6469-5.3845-7.1239-5.3197-11.0096 1.4007.0926 2.8125.185 4.2484.222.148 2.8588 1.6153 8.297 5.7804 10.6395-1.447.1295-1.3008 4.9626-.8327 8.8076l-.0055.0037zm-41.2476-77.1588c-11.4461-8.0027-18.7253-12.3972-34.6937-15.3448-33.169-6.1875-60.2245-16.6456-68.2031-22.4297-1.8504-1.4673-1.4063-2.1427.2664-2.1242 1.7504.0185 3.71.0555 5.7786.111 29.2111.9326 54.9881 3.6267 78.5206 6.9758-1.6764 10.7689 11.1427 18.1517 24.702 23.699 46.8133 19.2101 72.7364 54.2073 83.7958 81.3664 11.0706-19.373 27.544-36.8641 36.0685-47.4313l-16.6196.0555c3.819-10.4951 11.8236-24.121 20.028-36.6458l15.0986 13.0393-3.9079 4.7072-7.1978 8.641 11.2352-.914 23.3586-1.9059c-3.5711 2.82-49.2262 39.3566-88.5568 115.7049-20.72-60.8574-54.729-110.0854-79.6715-127.5007l-.0019-.0037zm176.2662 32.4178c-.6032-1.5913-.9992-3.2807-1.2268-5.1106 1.1417-.074 2.287-.148 3.3935-.185.1296 1.595.4127 3.6266 1.384 5.699 2.2242-3.8117 4.2188-7.7307 5.9878-11.7219 1.4007-3.2233 2.6367-6.4836 3.7635-9.7605l7.0239.5496c-5.5695 17.1396-14.8952 33.3836-28.0288 47.3925-16.986 18.1887-38.0835 30.1789-60.4984 36.0074 1.8873-3.0438 3.782-5.9729 5.6324-8.8113 18.4515-6.0598 35.6651-16.6807 49.8775-31.8442 5.5325-5.897 10.3248-12.1973 14.414-18.8252-.7086-1.1028-1.2767-2.2204-1.7244-3.3917l.0018.0019zm-8.308 43.3107s.7068 1.1194 2.448 1.9983l11.1705 4.5777-4.2188-11.374c-.8882-2.4535-1.5765-2.7088-1.9521-2.9105-.5033-.148-1.6394-.259-3.4879.5662l7.2792-6.9943 9.4404 28.0751-27.7272-10.4729.137-.148 7.1607-6.9054c-.32 1.0269-.9437 2.3462-.248 3.5896l-.0018-.0018zm-61.146 36.0962c-.6846-2.7292-2.894-4.4685-4.524-4.7424l7.6048-1.8873s8.049 32.488 8.0637 32.5602c1.3008 5.255-2.7829 9.4867-7.5253 10.6764-1.2267.296-5.0884 1.1546-8.6965-1.062 0 0-2.7385-1.7764-3.9967-3.2233l3.2159-5.4215s1.3377 4.2502 4.1114 5.1994c.0555 0 1.9983.7716 4.487.0926 2.4795-.7124 4.5037-2.9291 3.882-5.403l-6.6186-26.7891h-.0037zm42.2134-71.2007c.7587-.8253 1.4933-1.6135 2.2056-2.3814.8512.6606 1.8504 1.2286 3.1141 1.558-1.0454 1.9613-2.261 5.551-3.2417 8.789-1.3637.385-2.72.7698-4.0745 1.1917.7624-3.1678 1.9059-6.2819 2.7755-8.7336-.2646-.1295-.5033-.296-.7771-.4256l-.0019.0019zm7.2977-7.7307c1.2213-1.1916 2.3444-2.3259 3.4084-3.349.4033 2.1777 1.4432 5.6009 5.1365 7.9452-.953 1.9614-2.3536 5.44-3.5527 8.5541-1.3933.2924-2.8199.6032-4.2502.988.7143-2.213 1.693-4.833 2.535-6.8461.296-.6958.5773-1.3175.8252-1.8319-2.0409-1.6653-3.2936-3.312-4.1003-5.4584l-.0019-.0019zm13.8812 11.4832a63.8949 63.8949 0 0 0-3.6359.6032c.9437-2.5997 2.4665-5.9692 3.7654-8.2396-1.693-2.9142-3.0215-5.1124-3.571-8.5725 1.1434-.1666 2.287-.296 3.3953-.422.3293 2.1594 1.0806 5.403 3.745 8.5301-1.1601 2.2204-2.572 5.2957-3.697 8.097l-.0018.0038zm-49.0985 105.2097c-2.3425 2.437-5.5029 4.2318-9.1906 5.1477 0 0-9.8622 3.386-17.8927-4.376l2.683-4.4871c1.4544 1.3914 2.113 1.9798 3.4601 2.8939 3.0864 2.0539 7.1978 2.4165 10.6302 1.5913 3.6821-.9326 6.3836-2.929 8.1118-5.601 2.424-3.7561.8604-8.3524.8604-8.3524l-7.8565-31.7146 7.5938-1.8874s-2.5276 2.9828-1.7578 6.2986l6.6908 26.9593c.1017.383.359 1.7208.37 1.7948.6143 4.302-.605 8.4745-3.7006 11.7366l-.0019-.0037zm54.6773-22.1577l-7.8935 4.178c1.9502-2.7125.0555-4.6516-1.1435-5.6434l-4.7424-3.66-10.8985 5.7323.37 5.712c.4479 2.509 2.0965 4.1392 3.9172 4.45l-7.801 4.1041-.1369.074-1.064-16.2459 16.7493-8.8076 12.7913 10.0344-.148.074v-.0019zm-29.6127-3.534l-1.4747-21.2234 16.727 13.1836-15.2542 8.0397h.0019zm31.7887 2.4016l-35.5449-28.0214 3.0401 45.1444-7.0257 3.7007c1.2212-1.6838 1.9502-4.341 1.9984-8.9927l-2.6571-48.66 38.7144 29.7404c2.757 1.8504 5.3938 3.4786 8.1322 3.5712l-6.6574 3.5156v.0018zm18.2997-14.834c.7957-2.0687.8697-4.8701-1.5117-7.2534l-7.5863-7.9083-26.6448-10.1102c-2.62-.8067-3.8006-1.0066-6.9572.0555l5.6842-5.44 30.4009 11.4092 12.8098 13.2965-6.1986 5.9525.0037-.0019zm7.716-7.3977h-.026l-12.8098-13.2965-10.2879-30.8024 5.847-5.6065c-1.4395 4.5426-.6901 6.2282-.468 7.1793l9.0555 26.9223 8.2987 8.554c1.8873 1.5728 3.882 2.0502 6.5465 1.1343l-6.156 5.9137v.0018zm15.8332-38.4758l-1.7208-6.0061.0832.0555c.0185.0185 4.0023 1.7208 6.5021.383.4478-.222 1.9502-.99 2.9753-2.968 1.2546-2.4165.5496-5.1438-.9177-5.934-2.361-1.358-4.8608.1814-8.3857 3.3492l-.3386.3108c-4.315 3.8672-9.681 8.678-18.161 3.9005-.6032-.3108-1.125-.6772-1.6394-1.025-3.6082-2.6368-5.625-6.3171-5.8989-10.658-.185-3.2603.7142-6.6482 2.6275-10.1102 2.572-4.5037 7.7899-8.2228 12.4638-8.8816l1.1435-.1295.0185.037 1.5728 4.413h-.0074c-6.7852-.148-10.4544 5.1995-11.4276 6.85-1.8041 3.0937-2.3444 6.391-1.5284 9.2664.7586 2.5627 2.498 4.6333 5.044 6.0062 5.292 2.892 9.111.111 13.5814-3.8302.0074-.037 2.7385-2.3629 4.9441-3.808 2.5905-1.6838 5.3567-1.6468 8.5152.1296 3.993 2.2685 5.033 7.5068 2.461 12.1936l-.074.148c-.0519.0926-.1074.2221-.1795.3294-1.658 2.9476-4.0837 4.8164-7.2607 5.4955-.0185 0-2.7496.642-4.3335.4755h-.0648l.0056.0074zm17.2636-2.9864s-.111.2406-.333.6587c-1.151 2.0539-5.6492 8.8261-14.8953 9.2517h-.037l-1.4192-4.9478h.0093c2.0354-.074 2.8958-.1813 4.426-.531 3.5711-.8438 6.565-3.1345 8.4523-6.467 1.7763-3.151 2.261-6.6667 1.373-9.7993-.6606-2.3814-2.1983-4.2872-4.5334-5.7175-2.3258-1.4063-4.7997-1.5543-5.092-1.5728-3.7007-.111-6.2264 2.0539-8.891 4.3594-.2479.1813-.4847.4033-.7216.6032l-1.3396 1.0806-.1258.1295c-2.8865 2.5997-6.1616 5.5325-10.5932 3.0567-4.6628-2.6552-5.8785-7.49-2.9753-12.2491 3.4324-5.625 8.4745-6.1006 10.4914-6.0266h.0647l2.1131 5.8619-.0814-.074c-5.366-2.672-8.2802 1.5912-8.6077 2.0908-1.4544 2.25-1.2805 4.3742.4311 5.601.248.1665.4311.3108.7956.457 1.5488.7142 3.0864-.0555 6.3744-3.1326l.1296-.1295c3.3787-3.1863 10.3563-9.779 20.3166-4.1762 4.278 2.4369 6.8888 6.613 7.1719 11.5553.198 3.375-.6791 6.8555-2.5017 10.114l-.0018.0036zm-24.726-61.888l6.9054 8.2599-21.2159-1.7208-6.9757-.5496-6.1616-.531-2.0816 3.9745-.9585 1.8688-3.0345-5.8433-31.9367 2.62-2.4055.1814 6.8944-8.258-42.1136-36.3128 3.2807-1.1546 4.4334-1.5358-1.7949-21.7561 19.8245 3.386 3.7932-9.6143s12.0012 11.6664 14.292 13.8997c.0554.074.1183.1296.1812.2036.4756.4181.9715.7679 1.4766 1.0787.4293.222.877.407 1.3174.4589.1906.0555.3757.074.5737.074.8456 0 1.5505-.3664 2.0168-1.1916.3201-.494.4681-1.1898.5514-2.0872.0444-.531.063-1.1342 0-1.8318-.3516-3.4231-2.8865-29.6108-2.8865-29.6108l11.5923 4.6313 4.6517-7.5826 9.2924-15.1986 13.933 22.7812 11.6145-4.6702s-1.743 17.9482-2.5386 26.097c-.1666 1.6839-.2831 2.9476-.3479 3.5527-.285 3.1511.6106 4.6906 1.9577 5.0366.2127.074.394.074.605.074 1.0362 0 2.2519-.5847 3.3787-1.6098l.174-.2035c2.3092-2.1982 14.3123-13.8627 14.3123-13.8997l3.7524 9.6143 19.8356-3.386-1.7949 21.7561 3.8635 1.3563 3.8487 1.3378-42.1061 36.3127v-.0074z" fill="#FFF"/><path d="M101.3334 316.267l-8.197 3.9004 1.3655 2.894c2.2334 4.8534 4.1115 4.7072 6.0802 4.4685.7031-.0925 1.621-.605 2.0872-1.0824 1.273-1.2083 1.8688-3.4232.0462-7.2866l-1.3803-2.8958-.0018.0018zm51.7888-195.4227c3.0846-2.2519 2.7644-4.835 2.7015-5.1291-.0647-.42-.5958-2.0687-1.8688-2.783-1.8873-1.025-3.6637-.7141-6.1246 1.0252l-2.4461 1.8133 5.1106 6.9942 2.6274-1.9206z" fill="#FFF"/><path d="M452.6223 278.0114c7.5345-54.026-6.4096-107.7762-39.264-151.2886-31.3631-41.5547-76.8535-69.317-128.1502-78.2005-27.2406-4.6888-54.6643-3.882-81.4756 2.3628-9.0944 2.1094-17.9297 4.8553-26.5523 8.1711-17.739 6.7944-34.4161 16.0609-49.8516 27.7069-7.9564 6.0246-15.4021 12.5267-22.315 19.521-30.8135 31.078-50.7194 71.073-56.8847 115.2108-1.434 10.1453-2.076 20.237-2.0113 30.2899.3516 43.5309 14.551 85.6148 41.281 120.9801 7.836 10.3804 16.5715 19.9225 26.0396 28.5136 28.421 25.7455 63.6144 43.035 102.0883 49.6629h.0074c23.836 4.1577 47.7977 4.0467 71.3783-.259 3.3676-.6014 6.7278-1.2768 10.0899-2.0669 27.7364-6.502 53.4486-18.5884 76.3872-35.9112 43.5457-32.8545 71.667-80.7114 79.2311-134.6966l.0019.0037zm-72.3035 124.5642c-2.9476 2.5109-5.9877 4.9274-9.111 7.2718-31.3336 23.699-69.0063 37.4507-107.7207 40.0338-2.2075.148-4.3798.2738-6.5687.3293-8.456.2739-16.938.037-25.405-.7512a195.1504 195.1504 0 0 1-15.3578-2.0354h-.0296c-22.4445-3.8801-43.7233-11.4424-63.1888-22.2484-6.5039-3.5896-12.7858-7.5623-18.8178-11.8476-16.555-11.7922-31.3631-26.1322-43.8973-42.7242-10.8614-14.3955-19.595-29.9235-26.1692-46.2212-6.8407-16.9786-11.2907-34.7788-13.2225-53.0379-1.7485-16.2274-1.4525-32.8008.8327-49.3557 5.0107-35.7299 19.1583-68.6935 40.896-96.2542 10.5765-13.4075 22.9552-25.5679 36.9474-36.1332 27.1258-20.474 58.9978-33.5114 92.1908-38.3481.9715-.1296 1.9799-.296 2.9476-.422 2.3999-.2775 4.8109-.5865 7.2256-.7696 5.5769-.533 11.2093-.8438 16.838-.8975 10.2471-.1073 20.5479.5884 30.7765 2.091 1.7393.2553 3.4046.5125 5.107.8048 10.532 1.8133 20.7791 4.4686 30.734 7.875 37.7041 12.8598 70.7788 36.6477 95.1624 68.934 21.9875 29.1002 35.3284 62.8891 39.2936 98.2156.0481.3664.0925.6957.1221 1.0455v.0555c1.7283 16.1867 1.4618 32.7434-.8604 49.3168-2.2426 16.246-6.4354 31.9034-12.3343 46.7542-11.9938 30.1456-31.204 56.9346-56.387 78.3245l-.0036-.0056z" fill="#FFF"/><path d="M286.544 40.886c-28.3008-4.872-56.7496-4.0837-84.5786 2.4368-28.8189 6.739-55.5006 19.2842-79.3051 37.2287-45.1722 34.1016-74.3907 83.8052-82.2213 139.8794-7.8454 56.0798 6.6297 111.8247 40.7294 157.0228 32.5696 43.1256 79.7992 71.9538 133.0277 81.1629h.0185c28.2657 4.8719 56.7256 4.0651 84.5416-2.437 28.8282-6.7203 55.4914-19.2656 79.3181-37.247 45.1888-34.1202 74.3889-83.7867 82.2195-139.8629 7.8361-56.0576-6.639-111.8413-40.7573-157.0375-32.5417-43.109-79.7733-71.9334-132.9906-81.1462h-.0019zm166.0783 237.1235c-7.5642 53.9871-35.6855 101.8422-79.2312 134.6948-22.9404 17.3432-48.6526 29.411-76.389 35.9112-3.3602.7883-6.7204 1.4655-10.0899 2.0687-23.5824 4.3242-47.5442 4.4167-71.3802.259h-.0092c-38.4758-6.6297-73.6654-23.9173-102.0883-49.6628-9.4681-8.5911-18.2035-18.1333-26.0415-28.5136-26.7244-35.369-40.9293-77.4511-41.2754-120.9839-.0629-10.0528.5773-20.1445 2.0132-30.2899 6.1616-44.1378 26.0712-84.1345 56.8792-115.2108 6.9165-6.9943 14.3585-13.4945 22.3186-19.521 15.4374-11.646 32.1125-20.9124 49.848-27.705 8.628-3.3158 17.4634-6.0635 26.5559-8.1692 26.8113-6.2449 54.2332-7.0498 81.4756-2.3629 51.2967 8.8816 96.7908 36.6458 128.1483 78.2005 32.8582 43.5106 46.8023 97.2608 39.2677 151.283l-.0018.002z" fill="#134A8E"/><path d="M436.7057 324.2511c5.897-14.8507 10.0917-30.512 12.3362-46.7523 2.3277-16.5734 2.5905-33.1283.8622-49.3187v-.037c-.0277-.37-.074-.6976-.1202-1.064-3.9634-35.3264-17.3043-69.1135-39.29-98.2155-24.3836-32.2882-57.4601-56.076-95.1661-68.9322-9.9548-3.4046-20.2-6.0598-30.7303-7.8731-1.7023-.2924-3.3676-.5496-5.107-.8068-10.2323-1.5025-20.533-2.1982-30.7783-2.0909-5.6306.0556-11.2611.3701-16.838.8993-2.4166.1813-4.8257.494-7.2256.7697-.9696.1296-1.9761.2924-2.9476.42-33.1949 4.835-65.0668 17.8743-92.1908 38.3482-13.9922 10.5653-26.371 22.7276-36.9474 36.1314-21.7377 27.5606-35.8853 60.528-40.8923 96.2542-2.2889 16.5567-2.585 33.1301-.8327 49.3575 1.93 18.2572 6.38 36.0593 13.2206 53.036 6.5743 16.2978 15.3097 31.8294 26.1693 46.2213 12.5341 16.5938 27.3423 30.9375 43.8972 42.7278 6.032 4.2854 12.3158 8.258 18.8179 11.8477 19.4654 10.806 40.772 18.3682 63.1888 22.2502h.0277c5.0995.879 10.2083 1.5543 15.3577 2.0354 8.4672.7864 16.949 1.0232 25.405.7494 2.1909-.0555 4.3613-.185 6.5688-.3294 38.7144-2.583 76.3853-16.3384 107.7188-40.0337 3.1215-2.3426 6.1616-4.7591 9.111-7.2681 25.183-21.3899 44.3932-48.1826 56.387-78.3245l-.0019-.0019zm-70.1497 79.407c-43.0202 32.4732-95.9637 45.3071-149.0904 36.1517l-.0259-.037c-48.412-8.3875-91.3878-34.5938-121.0079-73.8393-31.03-41.1143-44.1988-91.8596-37.0843-142.864 7.1423-51.021 33.6982-96.2172 74.8274-127.2232 43.0313-32.4918 95.9766-45.3072 149.0922-36.1332 43.146 7.4716 81.9252 29.0631 110.8237 61.442.1018.1296.185.222.248.2739 3.46 3.8857 6.7758 7.9305 9.9362 12.1049 31.0485 41.1328 44.2229 91.8966 37.1102 142.901-7.1422 51.0043-33.726 96.1987-74.831 127.2231h.0018z" fill="#134A8E"/><path d="M177.232 344.5974c.5144-2.6738 1.162-4.8701 1.9614-5.5325.2276-.198.444-.2905.6754-.2184-2.4055-3.7006-2.2426-8.9556-1.6098-11.5201-.2683-.111-.533-.259-.7994-.3849a46.8748 46.8748 0 0 1-2.5997-1.1916c-1.088 3.2788-.7586 7.9657 1.1361 11.3555-1.099 1.7393-1.6468 3.1862-1.9687 4.907-.3849-.3145-.7494-.6605-1.1343-.9899-1.2452-1.0454-2.4794-2.1242-3.6821-3.2418-.2461-.1998-.494-.42-.731-.6402 0 0 0-.0185-.0258-.0185-.0185-.0185-.037-.0555-.037-.0555.4034-1.0232.8252-1.9243 1.2545-2.3795.0444-.074.0833-.0925.148-.1258.0444-.037.061-.074.1-.111.0185 0 .0444 0 .0832-.0186.0555-.0555.1184-.074.1554-.111.1074 0 .1888 0 .2554.037-.359-.6957-.6236-1.41-.8142-2.1242-.7808-2.6182-.6698-5.2919-.2683-7.2533.1555-.729.3387-1.3692.5496-1.8466-1.0991-.6606-2.189-1.299-3.2307-1.9243-1.5654 3.077-1.9872 7.2718.074 10.8984-.185.2905-.32.6014-.4848.877-.0444.0926-.0832.1481-.1202.2221-.1629.383-.3479.7475-.5033 1.151-.8068-.805-1.6043-1.6284-2.3814-2.4721-.8049-.842-1.5469-1.6653-2.2981-2.4906.074-.111.1295-.2035.222-.259.198-.111.383-.2183.5477-.2369.0833 0 .1555.0186.248.0556-1.2453-3.3343-.8253-6.7593-.0463-9.1592.1665-.4737.3516-.9696.5255-1.336-.6846-.4958-1.3655-.9898-2.0428-1.5024-.359-.259-.7216-.4755-1.0454-.7327-1.2453 2.1242-1.9687 4.7442-1.6209 7.4161.1258.9178.3553 1.8318.7309 2.6922v.037l-.0278.0185c-.0185.0186-.0185.0519-.037.0519-1.0546-1.2805-2.0964-2.5831-3.1122-3.9005-.4663-.6217-.9622-1.2268-1.4192-1.8689-.024-2.2315.5255-4.4482 1.2027-6.243.1665-.4182.3516-.8215.5051-1.1694-.9177-.7697-1.8318-1.5358-2.7477-2.3259-.9178 1.7023-1.6209 3.6637-1.8503 5.6435-.9345-1.41-1.8504-2.8199-2.746-4.2502.1629-.6032.346-1.2082.5496-1.7393.3035-.8604.6236-1.7023 1.0177-2.4165-.8974-.8234-1.7578-1.6468-2.583-2.4905a19.864 19.864 0 0 0-1.0362 2.2537c-.0611.185-.1444.3515-.2073.5495-.32-.5847-.605-1.1157-.8881-1.6653-.3479-.642-.6847-1.2638-1.0455-1.9058.3109-.5126.5866-1.0066.9067-1.4655-.7772-.916-1.5099-1.8503-2.2426-2.7662-.074.074-.137.1665-.1998.259-.0833.1258-.1666.2368-.2406.346-5.0255-10.5284-8.4227-21.6303-10.1953-32.9988-2.4202-.494-4.8016-1.0232-7.1534-1.5543 3.7747 27.8734 16.7955 54.6847 38.8995 75.3973 19.5765 18.3312 43.3847 29.2463 68.044 32.91-1.125-2.509-2.261-5.0181-3.4693-7.5457-18.1703-3.386-35.7299-10.9835-51.1431-22.8885l-.0037-.0074zm-14.2567-176.8361l.0259-.0185v-.037c.9529 1.136 1.5838 2.2722 2.0168 3.2991.7494-.518 1.5173-1.027 2.2981-1.5395.1666-.111.3016-.2035.4663-.296a17.141 17.141 0 0 0-1.6838-3.0198c-.2294-.3108-.4496-.6032-.6957-.8974 1.062-1.0602 2.1408-2.1205 3.2048-3.1307.2923-.2369.555-.5126.8511-.731 1.693 1.6654 2.5442 3.4787 2.9753 4.946 1.0806-.605 2.1797-1.1712 3.3047-1.7763-.3367-.9363-.7586-1.8133-1.2804-2.7496a17.6934 17.6934 0 0 0-1.458-1.9761c-.2554-.2924-.5218-.6033-.8234-.8975 1.2767-1.1157 2.5849-2.2148 3.893-3.2565h.0093c.4015.42.7475.7864 1.088 1.1694a12.4241 12.4241 0 0 1 1.7208 2.5257c.4848 1.0066.7494 1.9058.8604 2.7459.0278.1628.063.3108.063.4385.0647-.0185.1202-.0555.1738-.074 1.1287-.496 2.2945-1.0251 3.4787-1.4655.0555-.037.122-.0555.148-.111-.0555-.4034-.148-.7882-.2461-1.2101-.6606-2.3592-1.9799-4.7406-3.9745-6.5539.803-.6032 1.6542-1.1712 2.4794-1.7578.8512-.6032 1.7393-1.2101 2.6183-1.7948-.1555.346-.3368.7142-.5126.9695 3.6526 3.3158 4.3224 6.5206 4.2003 8.6263 1.4025-.4959 2.8032-.8974 4.252-1.3174-.037-1.3378-.3515-2.7478-.8252-4.104-.5403-1.373-1.3175-2.7645-2.3444-3.993-.248-.2924-.4848-.5663-.7586-.842.148-.4182.3293-1.0047.5125-1.6838.037-.1813.1018-.3664.1665-.5847 2.3074-1.3914 4.6777-2.6552 7.0498-3.8635-.6513 1.8688-1.3822 3.4971-2.1334 4.3205 3.6451 4.1263 3.745 7.2348 3.251 9.2517l-.037.148v.074c1.4377-.333 2.9124-.6235 4.3964-.9177.4478-3.0938-.496-6.702-2.931-9.6884.0278-.074.0648-.185.111-.259.0278-.074.063-.1258.0926-.2369.5495-1.2082 1.2027-3.04 1.767-4.8885a125.0796 125.0796 0 0 1 6.0266-2.509c.6605-.2591 1.3174-.5496 1.9687-.7495-.8511 2.4166-1.9928 5.1625-3.164 6.6834-.1666.198-.333.383-.4867.5662 2.1705 2.3444 3.1678 5.181 3.4787 7.4162.0092.0555.0092.1295.0092.185v.0148c.137 1.025.111 1.9243-.037 2.546 1.31-.0925 2.6275-.1665 3.9671-.2405.1184 0 .2646 0 .3849-.0185.2035-1.1509.2646-2.4147.1665-3.66-.1221-1.0805-.3405-2.1426-.7438-3.1696-.531-1.336-1.3452-2.5442-2.461-3.497.9863-1.7209 2.5905-5.6954 3.3306-8.3858v-.0185c23.7805-7.7288 49.5482-7.912 73.4581-.3108.111.0185.2369.037.3387.0925.1998.037.42.1295.6217.1813 6.5131 2.1242 12.8783 4.835 19.0214 8.0952 2.9642-.9178 5.884-1.8873 8.7261-2.9124-50.0144-29.942-115.8621-22.104-157.352 22.141-12.0013 12.8006-20.7922 27.4312-26.4968 42.9092 2.5627-.4589 5.1902-.9363 7.8935-1.3933 3.3769-8.3339 7.7288-16.357 13.0744-23.9007.0278.0185.0278.0555.0463.0555.0185.037.0648.0925.0833.1295.1998-.148.4292-.37.6476-.5514.5606-.531 1.173-1.064 1.78-1.5728a2.9075 2.9075 0 0 0-.1924-.333c-.111-.1814-.1999-.4016-.3016-.5662.9344-1.2472 1.8965-2.4924 2.8865-3.7007.1813.222.3275.457.4625.6772.222.3664.4256.6958.5959 1.0455.8696-.694 1.7504-1.373 2.62-2.0317-.4015-.8252-.8881-1.6135-1.4543-2.3277.4848-.5662.9899-1.1158 1.484-1.6653.5994-.6772 1.2211-1.4248 1.854-2.0687l-.0074.0019zm125.0083 195.7353c-1.8503 2.8384-3.745 5.7694-5.6324 8.8076 22.4149-5.823 43.5123-17.8187 60.4984-36.0037 13.13-14.007 22.463-30.253 28.0288-47.3944l-7.0239-.5495c-1.1287 3.2806-2.3628 6.539-3.7635 9.7623-1.7671 3.993-3.7636 7.912-5.9877 11.72-.9714-2.0687-1.2545-4.1022-1.384-5.6953-1.1066.037-2.252.111-3.3954.185.2276 1.8281.6198 3.5156 1.225 5.107.4477 1.1712 1.0176 2.2888 1.7207 3.386-4.0837 6.6316-8.8816 12.9301-14.414 18.8271-14.2106 15.1672-31.4224 25.788-49.8739 31.8498l.0019-.0019z" fill="#E8291C"/><path d="M194.7306 332.7497c-.5495 3.3306 0 8.0748 2.546 10.6764.385.3664.7883.6957 1.2269.99-1.0085 1.9946-1.1732 4.7775-.9252 8.332 1.2878.2035 2.5997.407 3.9264.5143-.1203-4.339.1554-8.258 1.6468-8.221-3.945-2.7477-4.5592-8.6447-4.2669-11.4461-1.4173-.259-2.7903-.5366-4.1558-.8456h.0018zm-10.1268-2.8736c-.9992 3.697-.7883 9.2091 2.3795 11.7182-1.3285 2.0131-1.7856 4.228-1.9614 8.0933 1.212.4034 2.448.7697 3.6933 1.1176.4385-5.0699 1.125-8.1673 2.6182-7.9638-3.2325-2.3277-3.3417-8.7706-2.831-11.7034-1.3082-.383-2.609-.8215-3.9005-1.2582l.0019-.0037zm140.7842-4.2705c.9807-3.2381 2.1982-6.8278 3.2418-8.7891-1.2638-.3294-2.2611-.8974-3.1141-1.5543L323.31 317.64c.2738.1295.5125.2923.7771.4219-.8696 2.4535-2.0131 5.5695-2.7755 8.7335 1.3563-.42 2.7126-.8049 4.0763-1.1897zm5.9618-1.558c1.4284-.383 2.8569-.6939 4.2483-.9862 1.2028-3.1123 2.6035-6.5928 3.5564-8.5541-3.6914-2.3444-4.7332-5.7694-5.1365-7.9472-1.064 1.0232-2.189 2.1593-3.4084 3.3491.8068 2.1427 2.0613 3.7932 4.104 5.4585-.2479.5125-.531 1.1342-.8252 1.8318-.8437 2.0132-1.8225 4.6332-2.535 6.8462l-.0036.0019zm9.6976-18.8604c.5495 3.46 1.878 5.6583 3.5711 8.5707-1.299 2.2685-2.82 5.6398-3.7636 8.2377 1.2101-.2406 2.4166-.4386 3.636-.6032 1.125-2.8014 2.5349-5.8785 3.7006-8.0934-2.6645-3.1326-3.4176-6.3744-3.747-8.5337-1.1101.1258-2.2536.2553-3.3971.42v.0019zm-82.2731-162.1297c-1.3563 2.3629-3.6822 5.292-5.3012 6.8314 1.2989 1.4285 2.113 3.1511 2.646 4.946 1.3174-.185 2.6182-.4034 3.9541-.6032-.4755-1.1713-1.1343-2.1982-1.9799-2.9846.9918-1.6838 3.2751-4.6314 4.4353-7.1053-1.2434-.37-2.4795-.753-3.7525-1.0824l-.0018-.0019zm6.4354 10.1306c.063.0518.0925.1073.1203.1628 2.0687-.3849 4.1632-.7142 6.2449-1.1361.9991-1.3378 2.0686-2.8754 2.7477-4.3205-1.1916-.4256-2.4165-.8271-3.636-1.2305-1.025 1.6838-2.5626 3.6637-4.0466 5.1624-.4959.533-.9621.9733-1.4303 1.3582v.0037zm-18.2387-13.2077c-1.5728 2.5276-4.0744 5.8952-5.7416 7.2718 2.3444 2.818 3.3158 6.5169 3.5157 9.2646 1.41-.185 2.868-.407 4.3038-.6235-.1554-2.8755-1.0732-5.8785-2.9753-7.7825 1.0917-1.5913 3.4231-4.761 4.7072-7.1978-1.2582-.3109-2.5386-.6606-3.8116-.9344l.0018.0018zm-11.337-2.435c-1.7948 2.6367-4.5703 6.0987-6.3096 7.3458.359.494.6698 1.0232.9622 1.5358 1.9872 3.6451 2.1612 7.3828 1.6209 9.3404 1.3933.2406 2.7477.4756 4.1133.7494.9251-3.3713.32-7.8768-2.2075-10.806 1.236-1.5394 4.3668-4.9088 5.8063-7.3827-1.321-.235-2.657-.5089-3.9856-.7846v.0019zm-12.9393-1.9059c-1.4359 3.005-3.7377 7.1793-5.4659 8.3876 3.0308 4.2835 3.177 8.4412 2.4147 10.4543 1.41.0556 2.831.148 4.278.2406.9806-3.2603.7493-7.4753-1.6765-10.4766 1.2472-1.5358 3.2807-5.5325 4.426-8.1858-1.347-.1666-2.6755-.2924-3.9782-.422l.0019.002zm-6.3282 209.7276c-4.1632-2.3444-5.6324-7.7825-5.7785-10.6394-1.4359-.037-2.8458-.1295-4.2484-.222-.063 3.8856 1.5099 9.359 5.3197 11.0057-.6532 2.583-.6236 5.4585-.0666 8.752 1.2915 0 2.6016-.0147 3.9375-.0887-.4626-3.845-.6106-8.678.8326-8.8076h.0037z" fill="#E8291C"/><path d="M426.6621 397.0672h-.037l-1.8947-5.329h-2.8865v8.1655h1.6579v-6.465h.0462l2.2722 6.465h1.6413l2.3314-6.465h.0481v6.465h1.6653v-8.1673h-2.8495l-1.9947 5.3308zm-12.893-3.8469h2.4553v6.6834h1.6468v-6.6834h2.4795v-1.484h-6.5817v1.484zM161.902 197.2814c-.6032 9.7087 6.4465 18.9937 14.7527 18.9937 0 0-2.1612-5.5325.6235-11.115 1.0806-2.1796 3.0938-4.1576 5.7952-5.7693 20.5461-14.081 64.6006.222 64.6006.222-10.3766-.9547-18.8918-.753-26.1266.1795 12.2344 3.7932 25.2755 8.9371 34.12 11.065 10.88 2.6719 18.1037 4.0448 28.9263 4.6684l-.3571-4.2502 6.0246 1.0084 16.0295 2.746 2.3536-6.0063 2.6274-6.6297 5.0848 4.9644c.111.1296 7.9934 7.7825 12.1381 11.8292-.729-7.6197-2.5978-26.8298-2.6275-27.0333l-.7216-7.7659 7.2163 2.9125 7.8935 3.1862 11.8366-19.3951 4.0393-6.5743 4.0374 6.5743 9.5773 15.639c3.3065-13.5704 5.7138-27.927 12.6933-34.5938-7.0054.2775-11.9347 2.2352-19.571 7.5826 4.3335-11.7385 10.743-20.4184 19.4063-30.3454-8.395 1.2638-16.4365 3.6822-24.3208 8.1692 3.005-7.1237 3.2048-16.0238 3.2048-16.0238-36.9104 42.8721-139.9035 42.341-166.589 51.0765-17.467 5.7508-26.4504 15.2726-32.6694 24.6834l.0019.0018z" fill="#134A8E"/><path d="M342.511 288.8173l-23.3586 1.9058-11.2352.914 7.1978-8.641 3.9116-4.709-15.0987-13.0412c-8.2062 12.5268-16.209 26.1508-20.028 36.6458l16.6197-.0555c-8.5227 10.5654-24.998 28.0566-36.0685 47.4314-11.065-27.1555-36.9881-62.1526-83.796-81.3646-13.5629-5.551-26.3801-12.9301-24.7018-23.699-23.5362-3.3528-49.3114-6.045-78.5225-6.9795-2.0687-.0555-4.0282-.0925-5.7786-.111-1.6745-.0185-2.115.6606-.2646 2.1279 7.975 5.7841 35.0323 16.2422 68.1995 22.4297 15.9683 2.9494 23.2475 7.3458 34.6937 15.3466 24.9424 17.4153 58.9515 66.6434 79.6752 127.4989 39.3288-76.3483 84.9857-112.8831 88.5568-115.7012l-.0018.0019zm-190.8265-53.7521c3.3676.0185 6.676.1295 9.9178.185 2.0502-2.731 5.7952-5.1661 12.9283-5.1661h2.0964c13.2576.1813 15.7038 13.8072 29.8051 13.8072 13.9737 0 16.4902-13.3872 29.4647-13.8072h49.8904l-.6346-8.0397h-48.686c-13.4888 0-15.8869-13.809-30.0308-13.809-14.0403 0-16.505 13.7535-29.6515 13.7535h-.1295c-13.8535-.9696-19.3175-12.6896-20.4277-22.598-6.1616 2.5811-9.3127 5.6397-13.909 12.9467-50.2438 8.332-67.4482 16.3569-71.963 21.3343-.6661.9363-.3737 1.3563.2498 1.521 16.703-.6791 40.0893-1.521 81.0815-.1296l-.0019.0019zm49.3484-20.585c-.9807 3.9783-.4256 7.4014-.1943 9.1592h-4.7387c-.1018-3.5526 2.0131-7.2163 4.9348-9.1591h-.0018z" fill="#1D2D5C"/><path d="M201.031 214.4803c-2.9235 1.9428-5.0366 5.6065-4.9367 9.1591h4.7424c-.2276-1.7578-.7864-5.1846.1943-9.1591z" fill="#FFF"/><path d="M227.402 104.5799c.0628 1.5043-.026 3.042-1.1436 4.3057l9.8623-.6032c-.9437-.9696-1.0177-2.0872-1.1731-4.0633v-.0555l-.8438-14.503 22.389 17.6152-1.8873-32.2105c-.0555-1.2823 0-2.6738.7216-3.7747l-9.3201.5699c.7031.8419.9344 1.9058 1.0917 3.4971l.877 15.0525-22.4334-17.5597 1.8578 31.7332.0018-.0037zm-116.1805 64.558c8.1507 6.0228 19.7245 4.265 25.8121-3.9227 6.1006-8.2395 4.4334-19.8318-3.708-25.875-8.1489-6.0432-19.732-4.2669-25.838 3.9375-6.0728 8.221-4.4168 19.78 3.734 25.8584v.0018zm2.2167-21.4638c3.5619-4.7998 10.6117-5.8249 15.4022-2.2889 4.7868 3.5527 5.8322 10.6024 2.2685 15.4022-3.562 4.7979-10.5932 5.823-15.4003 2.2703-4.798-3.5156-5.8341-10.606-2.2704-15.3855v.0019zM274.8055 80.298l5.231 1.0436-4.9183 24.2486c-.3756 1.8688-1.062 3.04-2.3073 3.7894l10.7041 2.165c-.7586-1.138-1.162-2.6571-.8141-4.378l4.9163-24.2837 5.7693 1.1528c2.0872.42 3.5897 1.5727 4.5704 2.5275l.1443-8.5152-25.418-5.1476-3.0975 7.7843c1.8504-.7882 3.2677-.753 5.218-.3848l.0018-.0019zM88.851 193.4013l2.0058-4.9256 22.9015 9.3997c1.8652.7309 2.781 1.7763 3.2381 3.0382l4.1854-10.1823c-1.2545.531-2.8384.6402-4.4685-.037l-22.9293-9.3757 2.2352-5.4584c.7956-1.9244 2.2241-3.2196 3.312-3.9912l-8.3301-1.7208-9.8067 23.9729 7.0497 4.524c-.3997-1.9669-.1073-3.3935.607-5.2438zm48.4454-76.0726l16.9342 23.5676c.4108.8974.6957 2.0132.481 3.2418l8.6726-6.3189c-1.6653-.148-2.5905-1.136-3.7007-2.4554l-7.3458-10.1102 19.04 6.7593 8.1303-5.934c-1.3082-.0925-2.9569-.3516-4.7794-.879l-12.5416-4.2501.2406-.6403c1.508-3.8301.803-6.6667.6402-7.1792-.37-1.2823-.9807-2.4554-1.8226-3.5712-1.0917-1.521-2.4369-2.7126-3.9838-3.4786l-.222-.1295c-1.2434-.533-2.3259-.8974-3.5156-1.0455-1.8319-.222-3.8987.111-5.9951.9345-.4311.1295-2.4554 1.062-4.03 2.2148l-.1203.0925-9.7327 7.0683c1.2452.259 2.6737.79 3.6525 2.1094l-.0018.0037zm10.5339-3.3713c2.461-1.7393 4.2373-2.054 6.1246-1.0251 1.273.7142 1.804 2.3629 1.8688 2.7829.061.296.383 2.8772-2.7015 5.129l-2.6274 1.9244-5.1106-6.9942 2.448-1.817h-.0019zm35.8113.7697c8.1415 6.0617 19.7153 4.2854 25.8232-3.919 6.0691-8.1859 4.4038-19.7948-3.7284-25.8399-8.16-6.0413-19.732-4.2835-25.8029 3.9227-6.106 8.2026-4.4408 19.793 3.7081 25.838v-.0018zm2.2074-21.4453c3.5527-4.7794 10.5932-5.8249 15.3948-2.2704 4.7683 3.5341 5.8396 10.621 2.2685 15.3837-3.5526 4.8182-10.595 5.8433-15.3948 2.2722-4.7775-3.5342-5.8396-10.584-2.2685-15.3837v-.0018zm123.8797 27.927c8.1414 6.0635 19.7152 4.3039 25.788-3.919 6.0969-8.1877 4.4408-19.78-3.6914-25.8417-8.16-6.0432-19.7245-4.2669-25.8232 3.9375-6.0876 8.2062-4.4297 19.7985 3.7284 25.8214l-.0018.0018zm2.1908-21.4268c3.5618-4.796 10.6024-5.823 15.4095-2.2704 4.7998 3.5527 5.8341 10.621 2.2704 15.4022-3.5527 4.7997-10.6024 5.8248-15.404 2.2703-4.7776-3.5711-5.8286-10.6024-2.276-15.4003v-.0018zM168.541 365.8058c.1739-.259.259-.4218.259-.4218 1.373-2.1409 3.14-3.2048 5.8137-3.0586l-6.6241-4.2114-17.7355 27.9493c-2.7292 4.2853-.7123 10.2545 4.3668 13.4778 5.0755 3.2195 11.2463 2.6718 14.057-1.7023l17.7724-28.04-6.6482-4.2113c1.484 2.3795 1.2027 4.2114-.2924 6.5909 0 0-9.4311 14.8526-14.4048 22.7276-1.5728 2.2703-5.1994 2.6737-8.049.8437-2.8772-1.7763-4.0207-5.2364-2.646-7.6714 1.6136-2.511 14.094-22.1633 14.1292-22.2706l.0019-.0019z" fill="#134A8E"/><path d="M188.2027 370.9313l-17.4339 27.507c-.2405.4033-.6513 1.0065-.6513 1.0065-3.066 4.835-10.4543 5.6436-16.492 1.7949-2.0964-1.3378-3.7561-3.0401-4.8793-4.8886-.0462-.074-.0832-.1295-.1203-.2035-2.0871-3.4787-2.4424-7.5235-.481-10.621 0 0 .1258-.2534.6198-1.0232l17.4523-27.5051-6.639-4.2132c1.2823 2.2574 1.3915 3.8672-.3016 6.576l-14.8174 23.3697c-5.0088 8.0378-2.572 16.3884 6.5187 22.1947 8.8742 5.6583 18.1703 4.6684 23.2402-3.3158l14.8248-23.3881c1.6043-2.4536 3.599-3.3676 5.7693-3.0938l-6.6112-4.1965h.0019zm189.6644 3.0974l-8.2969-8.554-9.0537-26.9224c-.222-.9529-.9714-2.6385.4663-7.1793l-5.847 5.6028 10.2878 30.8025 12.808 13.2965h.026l6.1541-5.9137c-2.6645.9178-4.6628.4404-6.5446-1.1324zm-42.5336-17.9704l-.1369.148 27.7272 10.4766-9.4422-28.075-7.2792 6.9942c1.8503-.8253 2.9846-.7161 3.4879-.568.3756.1998 1.0639.457 1.9502 2.9105l4.2188 11.374-11.1686-4.5796c-1.7393-.877-2.4462-1.9946-2.4462-1.9946-.6957-1.2453-.074-2.5628.248-3.5897l-7.1608 6.9017.0018.0019zm-1.804 1.7615l-5.6861 5.44c3.1585-1.064 4.339-.8623 6.9572-.0555l26.6485 10.1102 7.5827 7.9101c2.3795 2.3833 2.3073 5.1847 1.5098 7.2533l6.1986-5.9506-12.808-13.2965-30.4009-11.4091-.0018-.0019zm-34.8066 55.2527l-6.6926-26.9593c-.7698-3.312 1.7578-6.2985 1.7578-6.2985l-7.59 1.8873 7.8564 31.7147s1.5635 4.6-.8622 8.3542c-1.7301 2.672-4.4316 4.6703-8.1119 5.6028-3.4342.8234-7.5438.457-10.6301-1.5913-1.347-.9177-2.004-1.5043-3.4602-2.8957l-2.683 4.487c8.0305 7.764 17.8928 4.376 17.8928 4.376 3.6895-.9158 6.8462-2.7125 9.1924-5.1439 3.0938-3.262 4.3113-7.4383 3.7007-11.7403-.013-.074-.2702-1.41-.3701-1.7948v.0018z" fill="#134A8E"/><path d="M283.8351 421.0382c-2.4905.6772-4.4315-.0925-4.487-.0925-2.7718-.953-4.1077-5.1994-4.1077-5.1994l-3.216 5.4214c1.2546 1.4433 3.9931 3.2196 3.9931 3.2196 3.6081 2.2204 7.4716 1.3581 8.7002 1.064 4.7424-1.1898 8.8261-5.4215 7.5253-10.6765l-8.0674-32.5602-7.6012 1.8873c1.6283.2739 3.8376 2.0132 4.5241 4.7424l6.6205 26.7928c.6198 2.4683-1.4026 4.685-3.8857 5.3993l.0018.0018z" fill="#134A8E"/><path d="M110.041 322.8227l-.0648-.457.3516.2775c3.3121 2.472 6.3892 2.9457 9.3553 1.5543 5.0458-2.4166 6.8221-8.8446 4.0485-14.7065l-4.3298-9.1554-35.0526 16.629 4.2113 8.9c3.71 7.8028 9.459 10.7874 15.4133 7.986 4.4093-2.1056 6.6723-6.3003 6.069-11.0242l-.0018-.0037zm8.358-19.706l3.4342 7.2532c2.3258 4.7776.9621 10.0344-3.0216 11.9384-3.8561 1.8133-8.2044-.42-10.584-5.477l-3.4526-7.2496 13.624-6.465zm-15.3282 28.8466c-6.639 3.1085-10.769-3.042-12.6081-6.9795l-3.3454-7.0127 15.7796-7.4901 3.312 7.0127c1.5488 3.2566 4.315 10.9355-3.14 14.4696h.002z" fill="#FFF"/><path d="M118.8116 322.3083c3.9837-1.9022 5.3474-7.1608 3.0216-11.9384l-3.4343-7.2533-13.624 6.467 3.451 7.2532c2.3795 5.0514 6.7296 7.2866 10.5838 5.4733l.0019-.0018zm-2.509-13.1115l1.4839 3.1123c1.099 2.3277.8141 4.561-1.1343 5.477-2.3628 1.1342-4.2187-1.101-4.9255-2.6201l-1.4655-3.0956 6.0432-2.8736h-.0019zm-10.0918 8.297l-3.312-7.0128-15.7797 7.4901 3.3436 7.0127c1.8373 3.9376 5.9673 10.0918 12.6063 6.9758 7.4568-3.5341 4.6887-11.2075 3.1418-14.4659zm-3.5434 8.9555c-.4662.4737-1.3822.988-2.0871 1.0806-1.9688.2405-3.8487.3849-6.0802-4.4685l-1.3637-2.894 8.197-3.9005 1.3821 2.894c1.8245 3.8616 1.2268 6.0783-.0462 7.2847l-.0019.0037z" fill="#134A8E"/><path d="M106.1109 338.3173c3.6267-1.6838 6.2911-4.598 7.207-8.9556 0 0 3.4176 1.5728 8.4635-.7697v-.037c7.3532-3.4971 9.9917-12.708 5.995-20.968l-7.7066-16.3014c-.0296 2.165-1.0177 4.215-3.7118 5.403l-32.377 15.3688c-3.0346 1.3915-5.4585 1.0621-7.4014-.9529l7.9324 16.6826c6.391 13.4278 16.9046 12.7858 21.5989 10.569v-.0388zm-17.5522-12.4527l-4.2114-8.9 35.0508-16.6309 4.3298 9.1555c2.7755 5.86.9992 12.2862-4.0448 14.7064-2.9643 1.3915-6.0414.9178-9.3553-1.5543l-.3516-.2775.0648.4589c.6014 4.7239-1.6597 8.9186-6.0728 11.0242-5.9506 2.8033-11.7015-.185-15.4095-7.9841v.0018zm22.4149 36.6976l32.3623-28.8244-5.218-5.86c.5921 1.9983.2073 4.0836-2.1094 6.2097 0 0-.0999.111-.2553.2405-.0555.074-23.7712 21.2048-26.5633 23.6768-2.4462 2.0354-4.5963 2.0502-7.2607 1.1343l20.1723 22.635 3.8634-2.435h-.0185l-14.9728-16.7769z" fill="#134A8E"/><path d="M126.4294 370.0172s-3.7987-4.2854-6.0802-6.813c3.09-2.7477 20.1371-17.9851 22.9848-20.4738 0 0 0-.0185.0185-.0185.063-.037.1184-.111.1813-.148 0 0 3.9042-2.9273 6.428-1.3693l-5.2178-5.8619-.0297-.0185-30.7654 27.4515 13.7739 15.4559 6.502-4.0486s-4.2187-.2405-7.6455-4.0115l-.148-.148-.002.0037zm93.29 49.8497l-11.5184-2.7292 2.0687-8.6817 8.0674 1.8873.137.0555c3.819 1.0436 4.6258 3.8635 4.6258 3.8635l1.5358-6.3559-17.9815-4.302-4.0116 16.8306 22.0504 5.2216 3.0753-7.0867c-1.7763 1.0435-3.7821 2.1797-8.049 1.3007v-.0037zm-12.7914-18.3145l18.1703 4.3038 1.5265-6.428s-2.1057 2.3259-5.9026 1.4247l-8.4097-1.9928 1.5728-6.7407 10.1657 2.398c5.5214 1.3378 6.8647 4.3409 6.8647 4.3409l.4866-7.2163-20.9531-4.946-3.523 14.8527.0018.0037z" fill="#134A8E"/><path d="M204.1544 384.2832c-8.3598 35.2544-8.2895 34.9417-8.3506 35.1619-.5051 1.8503-1.9428 4.45-5.3474 4.8349l31.5907 7.4938 1.8133-4.1595-23.9248-5.6805 8.9741-37.7782 22.624 5.403.2776-4.5611-29.7534-7.0498c1.6746 1.5358 2.7015 3.8265 2.0965 6.3355zm114.826-4.5962l1.4728 21.2233 15.256-8.0378-16.727-13.1855h-.0019zm4.5406 8.6263l4.9996 3.993-4.5148 2.361-.4848-6.354z" fill="#134A8E"/><path d="M312.0564 366.4812l2.6552 48.6581c-.0463 4.6518-.7771 7.3089-1.9984 8.9927l7.0258-3.7007-3.0401-45.1425 35.5448 28.0214 6.6612-3.5156c-2.7385-.0926-5.377-1.7208-8.134-3.5712l-38.7127-29.7422h-.0018z" fill="#134A8E"/><path d="M320.6715 403.1455l1.064 16.246.135-.0741 7.801-4.104c-1.8225-.3109-3.4712-1.9429-3.9227-4.45l-.3645-5.712 10.8985-5.7324 4.7405 3.6637c1.2027.9862 3.0938 2.9272 1.1435 5.6398l7.8935-4.1762.1443-.074-12.7913-10.0325-16.7455 8.8076.0037-.0019zm86.0108-85.1948c-9.964-5.6028-16.9398.99-20.3166 4.1762l-.1296.1296c-3.2899 3.0752-4.8293 3.845-6.3744 3.1307-.3663-.148-.5495-.2923-.7956-.457-1.7134-1.2268-1.8873-3.3491-.4311-5.6028.3275-.4996 3.238-4.7628 8.6077-2.0909l.0814.074-2.113-5.86h-.0648c-2.0169-.074-7.0609.4034-10.495 6.0247-2.9051 4.759-1.6839 9.594 2.9752 12.2492 4.4316 2.4739 7.7085-.457 10.5932-3.0568l.1295-.1295 1.3378-1.0806c.2405-.1998.4755-.4218.7216-.6032 2.6645-2.3092 5.1939-4.4685 8.8927-4.3575.2905.0185 2.7644.1665 5.0884 1.5728 2.337 1.4284 3.8746 3.3343 4.5333 5.7138.8882 3.1345.4071 6.65-1.3692 9.8012-1.8874 3.3306-4.8849 5.6213-8.456 6.465-1.5284.3516-2.387.459-4.4223.533h-.0093l1.4192 4.9459h.037c9.248-.4182 13.7443-7.1978 14.8952-9.248.222-.42.333-.6587.333-.6587 1.8208-3.2566 2.6978-6.7407 2.498-10.1102-.2812-4.946-2.892-9.1221-7.1682-11.559l.0019-.0019z" fill="#134A8E"/><path d="M398.489 342.1253c3.1752-.679 5.601-2.546 7.2589-5.4955.074-.111.1295-.2405.1813-.3293l.074-.148c2.5757-4.687 1.532-9.9234-2.461-12.1937-3.1603-1.7764-5.9247-1.8134-8.5152-.1296-2.2074 1.4433-4.9366 3.7747-4.9459 3.808-4.4685 3.9375-8.2895 6.7204-13.5814 3.8302-2.5424-1.3748-4.2835-3.4453-5.0422-6.008-.8141-2.8754-.2775-6.1709 1.5284-9.2665.9714-1.6468 4.6443-6.9942 11.4277-6.8499h.0092l-1.5728-4.413-.0185-.037-1.1472.1295c-4.6702.6587-9.8881 4.376-12.462 8.8816-1.9132 3.46-2.8125 6.8462-2.6274 10.1102.2738 4.339 2.287 8.0212 5.897 10.6579.5125.3478 1.0325.7142 1.6375 1.025 8.48 4.7795 13.846-.037 18.1592-3.9004l.3367-.3109c3.5249-3.1678 6.0247-4.7072 8.3857-3.349 1.4655.7863 2.1723 3.5155.9178 5.932-1.0251 1.98-2.5276 2.7478-2.9753 2.9662-2.498 1.3359-6.4836-.3701-6.5021-.3886l-.0833-.0518 1.7208 6.0061h.063c1.5857.1666 4.315-.4773 4.3334-.4773l.0037.0018z" fill="#134A8E"/><path d="M421.0205 238.7288l1.7948-21.7598-19.8355 3.386-3.7525-9.6124c0 .037-12.005 11.7015-14.3142 13.8997l-.172.2035c-1.125 1.0232-2.3426 1.6098-3.3769 1.6098-.2128 0-.3941 0-.605-.074-1.3452-.346-2.2426-1.8873-1.9577-5.033.063-.6068.1813-1.8687.3479-3.5562.7956-8.1508 2.535-26.0582 2.535-26.0582l-11.611 4.6313-13.9329-22.7812-9.296 15.1986-4.6536 7.5826-11.5924-4.6702s2.535 26.2266 2.8866 29.6515c.0629.6958.0444 1.299 0 1.8319-.0833.8955-.2313 1.5913-.5496 2.0853-.4663.8252-1.1712 1.1916-2.0168 1.1916-.1999 0-.385-.0185-.5737-.074-.444-.0555-.8881-.2406-1.3192-.457-.5052-.3146-.9992-.6625-1.4766-1.0825-.063-.074-.1295-.1295-.1813-.2035-2.2889-2.2315-14.2938-13.896-14.2938-13.896l-3.7932 9.6125-19.8245-3.3861 1.7949 21.7561-4.4316 1.5358-3.275 1.1565 42.1098 36.3146-6.8962 8.2561 2.4091-.1813 31.9367-2.62 3.0346 5.8414.9621-1.8688 2.078-3.9727 6.1615.531 6.9758.5496 21.2177 1.7208-6.9054-8.258 42.1043-36.3164-3.8487-1.3378-3.8635-1.3508v.0037z" fill="#E8291C"/></g></svg>