<svg width="500" height="500" viewBox="0 0 500 500" xmlns="http://www.w3.org/2000/svg"><title>washington-nationals</title><g fill="none" fill-rule="evenodd"><path d="M426.1076 46.7516c-39.8937-31.9766-76.1304 7.988-76.1304 30.8911 39.9525 8.4858 75.5601 48.4522 59.5874 152.254-12.9966 84.8237-63.0474 137.6743-94.5815 138.7044 26.1315-35.7062 43.6787-76.058 53.2533-115.5213 28.6081-117.775-17.1963-155.79-53.49-157.572-44.0832-2.1983-88.1766 57.8281-100.482 128.6562-9.725 56.1344-8.5272 113.4318 25.6356 155.4548-30.167 38.1257-102.72 49.8987-89.9912-41.9366 10.6876-76.8667 48.872-161.6074 69.9812-203.2968l.6274-1.1147c11.341-23.2107 20.3314-39.6864 24.1993-46.2262l-8.5031-.1106c-82.57 1.4207-148.1528 20.4559-178.764 62.2559-28.6686 39.1333-29.4982 80.3215-5.8174 104.7852l3.4652 3.422c6.9304 6.9822 16.0297 10.577 25.0893 10.577h.0692c8.1678 0 16.46-3.0625 22.6957-9.3257 6.246-6.2045 9.3223-14.5244 9.298-22.706 0-9.0735-3.6207-18.1729-10.5908-25.1033-3.6466-3.6466-7.9051-6.3738-12.4263-8.1574l.1383-.2489c.6135-1.5036 1.3515-2.9501 2.1569-4.369 5.5374-9.713 15.2088-18.5617 27.8165-24.9097 9.8961-4.9808 21.5827-8.4046 34.2199-9.6835l-1.9945 4.2568c-17.504 32.4224-43.0806 94.1736-51.1361 126.3748-25.1723 100.6892 15.5147 159.658 59.501 167.8966 52.9595 9.8805 93.6465-15.8068 115.1307-48.9793 25.6337 16.251 93.287 25.6303 144.1432-64.9278 58.5262-104.3618 60.652-258.2334 6.8992-301.34zm-149.71 298.2222c-10.0585-24.462-14.6505-53.2654-14.6505-80.5946 0-33.0065 6.5795-63.7007 17.974-81.7076 7.518-11.856 16.4083-17.5886 26.4945-16.9474 3.5775.28 7.6424 1.4483 10.5079 8.3476 2.3383 5.5926 3.396 12.9966 3.396 21.6207 0 43.0564-25.7167 116.4441-43.7218 149.2813z" fill="#AB0003" fill-rule="nonzero"/><path d="M426.1076 46.7516c-39.8937-31.9766-76.1304 7.988-76.1304 30.8911 39.9525 8.4858 75.5601 48.4522 59.5874 152.254-12.9966 84.8237-63.0474 137.6743-94.5815 138.7044 26.1315-35.7062 43.6787-76.058 53.2533-115.5213 28.6081-117.775-17.1963-155.79-53.49-157.572-44.0832-2.1983-88.1766 57.8281-100.482 128.6562-9.725 56.1344-8.5272 113.4318 25.6356 155.4548-30.167 38.1257-102.72 49.8987-89.9912-41.9366 10.6876-76.8667 48.872-161.6074 69.9812-203.2968l.6274-1.1147c11.341-23.2107 20.3314-39.6864 24.1993-46.2262l-8.5031-.1106c-82.57 1.4207-148.1528 20.4559-178.764 62.2559-28.6686 39.1333-29.4982 80.3215-5.8174 104.7852l3.4652 3.422c6.9304 6.9822 16.0297 10.577 25.0893 10.577h.0692c8.1678 0 16.46-3.0625 22.6957-9.3257 6.246-6.2045 9.3223-14.5244 9.298-22.706 0-9.0735-3.6207-18.1729-10.5908-25.1033-3.6466-3.6466-7.9051-6.3738-12.4263-8.1574l.1383-.2489c.6135-1.5036 1.3515-2.9501 2.1569-4.369 5.5374-9.713 15.2088-18.5617 27.8165-24.9097 9.8961-4.9808 21.5827-8.4046 34.2199-9.6835l-1.9945 4.2568c-17.504 32.4224-43.0806 94.1736-51.1361 126.3748-25.1723 100.6892 15.5147 159.658 59.501 167.8966 52.9595 9.8805 93.6465-15.8068 115.1307-48.9793 25.6337 16.251 93.287 25.6303 144.1432-64.9278 58.5262-104.3618 60.652-258.2334 6.8992-301.34zm-149.71 298.2222c-10.0585-24.462-14.6505-53.2654-14.6505-80.5946 0-33.0065 6.5795-63.7007 17.974-81.7076 7.518-11.856 16.4083-17.5886 26.4945-16.9474 3.5775.28 7.6424 1.4483 10.5079 8.3476 2.3383 5.5926 3.396 12.9966 3.396 21.6207 0 43.0564-25.7167 116.4441-43.7218 149.2813z" stroke="#FFF" stroke-width="9.83632"/></g></svg>